STARTFONT 2.1
FONT -FontForge-BABAmoji-Book-R-Normal--13-120-75-75-P-149-ISO10646-1
SIZE 12 75 75
FONTBOUNDINGBOX 15 19 0 -3
COMMENT "Generated by fontforge, http://fontforge.sourceforge.net"
COMMENT "Copyright whitewing 2020"
STARTPROPERTIES 38
FOUNDRY "FontForge"
FAMILY_NAME "BABAmoji"
WEIGHT_NAME "Book"
SLANT "R"
SETWIDTH_NAME "Normal"
ADD_STYLE_NAME ""
PIXEL_SIZE 13
POINT_SIZE 120
RESOLUTION_X 75
RESOLUTION_Y 75
SPACING "P"
AVERAGE_WIDTH 149
CHARSET_REGISTRY "ISO10646"
CHARSET_ENCODING "1"
FONTNAME_REGISTRY ""
CHARSET_COLLECTIONS "JISX0208.1997 ISO10646-1"
FONT_NAME "BABAmoji"
FACE_NAME "BABA moji Regular"
COPYRIGHT "Copyright whitewing 2020"
FONT_VERSION "1.007"
FONT_ASCENT 13
FONT_DESCENT 0
UNDERLINE_POSITION 1
UNDERLINE_THICKNESS 1
CAP_HEIGHT 12
RAW_ASCENT 1000
RAW_DESCENT 0
NORM_SPACE 15
RELATIVE_WEIGHT 40
RELATIVE_SETWIDTH 50
SUPERSCRIPT_X 0
SUPERSCRIPT_Y 6
SUPERSCRIPT_SIZE 6
SUBSCRIPT_X 0
SUBSCRIPT_Y 0
SUBSCRIPT_SIZE 6
FIGURE_WIDTH -1
AVG_UPPERCASE_WIDTH 150
ENDPROPERTIES
CHARS 2652
STARTCHAR space
ENCODING 32
SWIDTH 769 0
DWIDTH 10 0
BBX 1 1 0 0
BITMAP
00
ENDCHAR
STARTCHAR exclam
ENCODING 33
SWIDTH 769 0
DWIDTH 10 0
BBX 4 14 3 0
BITMAP
60
F0
F0
F0
F0
F0
F0
F0
60
60
00
00
60
60
ENDCHAR
STARTCHAR quotedbl
ENCODING 34
SWIDTH 769 0
DWIDTH 10 0
BBX 6 5 1 9
BITMAP
6C
6C
6C
D8
D8
ENDCHAR
STARTCHAR numbersign
ENCODING 35
SWIDTH 769 0
DWIDTH 10 0
BBX 8 13 1 0
BITMAP
36
36
36
FF
FF
66
66
66
FF
FF
6C
6C
6C
ENDCHAR
STARTCHAR dollar
ENCODING 36
SWIDTH 769 0
DWIDTH 10 0
BBX 8 15 1 -1
BITMAP
18
18
7E
FF
DB
D8
F8
7E
1F
1B
DB
FF
7E
18
18
ENDCHAR
STARTCHAR percent
ENCODING 37
SWIDTH 769 0
DWIDTH 10 0
BBX 8 15 1 -1
BITMAP
06
E6
AC
EC
0C
18
18
18
30
30
60
67
65
C7
C0
ENDCHAR
STARTCHAR ampersand
ENCODING 38
SWIDTH 769 0
DWIDTH 10 0
BBX 8 13 1 0
BITMAP
78
FC
CC
CC
FC
78
7B
FF
CF
C6
CE
FF
7B
ENDCHAR
STARTCHAR quotesingle
ENCODING 39
SWIDTH 769 0
DWIDTH 10 0
BBX 3 5 1 9
BITMAP
60
60
60
E0
C0
ENDCHAR
STARTCHAR parenleft
ENCODING 40
SWIDTH 769 0
DWIDTH 10 0
BBX 6 18 1 -2
BITMAP
0C
1C
38
70
60
E0
C0
C0
C0
C0
C0
C0
E0
E0
60
70
38
18
ENDCHAR
STARTCHAR parenright
ENCODING 41
SWIDTH 769 0
DWIDTH 10 0
BBX 6 18 2 -2
BITMAP
C0
E0
70
38
18
1C
1C
0C
0C
0C
0C
1C
18
38
30
70
E0
C0
ENDCHAR
STARTCHAR asterisk
ENCODING 42
SWIDTH 769 0
DWIDTH 10 0
BBX 6 7 2 4
BITMAP
30
30
FC
FC
78
FC
CC
ENDCHAR
STARTCHAR plus
ENCODING 43
SWIDTH 769 0
DWIDTH 10 0
BBX 8 8 1 3
BITMAP
18
18
18
FF
FF
18
18
18
ENDCHAR
STARTCHAR comma
ENCODING 44
SWIDTH 769 0
DWIDTH 10 0
BBX 3 6 2 -3
BITMAP
C0
E0
E0
60
E0
C0
ENDCHAR
STARTCHAR hyphen
ENCODING 45
SWIDTH 769 0
DWIDTH 10 0
BBX 7 2 1 6
BITMAP
FE
FE
ENDCHAR
STARTCHAR period
ENCODING 46
SWIDTH 769 0
DWIDTH 10 0
BBX 3 3 2 0
BITMAP
60
E0
E0
ENDCHAR
STARTCHAR slash
ENCODING 47
SWIDTH 769 0
DWIDTH 10 0
BBX 6 16 2 0
BITMAP
0C
0C
0C
18
18
18
30
30
30
30
60
60
60
C0
C0
C0
ENDCHAR
STARTCHAR zero
ENCODING 48
SWIDTH 769 0
DWIDTH 10 0
BBX 8 13 1 0
BITMAP
3C
7E
66
E3
C7
CF
DB
F3
E3
C3
E6
7E
7C
ENDCHAR
STARTCHAR one
ENCODING 49
SWIDTH 769 0
DWIDTH 10 0
BBX 8 13 1 0
BITMAP
38
78
78
18
18
18
18
18
18
18
18
FF
FF
ENDCHAR
STARTCHAR two
ENCODING 50
SWIDTH 769 0
DWIDTH 10 0
BBX 8 13 1 0
BITMAP
3C
7E
E7
C3
03
07
06
0E
1C
38
70
FF
FF
ENDCHAR
STARTCHAR three
ENCODING 51
SWIDTH 769 0
DWIDTH 10 0
BBX 8 13 1 0
BITMAP
7C
FE
C6
06
0E
1C
1E
07
03
03
C7
FE
7C
ENDCHAR
STARTCHAR four
ENCODING 52
SWIDTH 769 0
DWIDTH 10 0
BBX 8 13 1 0
BITMAP
03
63
63
63
63
FF
FF
06
06
06
06
06
06
ENDCHAR
STARTCHAR five
ENCODING 53
SWIDTH 769 0
DWIDTH 10 0
BBX 8 13 1 0
BITMAP
7F
7F
60
60
60
7C
3E
07
03
C3
E7
7E
3C
ENDCHAR
STARTCHAR six
ENCODING 54
SWIDTH 769 0
DWIDTH 10 0
BBX 8 13 1 0
BITMAP
1E
3E
70
60
60
FC
FE
E7
C3
C3
E7
7E
3C
ENDCHAR
STARTCHAR seven
ENCODING 55
SWIDTH 769 0
DWIDTH 10 0
BBX 8 13 1 0
BITMAP
FF
FF
03
03
07
3E
3E
06
0C
0C
0C
18
18
ENDCHAR
STARTCHAR eight
ENCODING 56
SWIDTH 769 0
DWIDTH 10 0
BBX 8 14 1 0
BITMAP
3C
7E
E6
C6
E6
7E
3C
7E
67
C3
C3
E7
7E
3C
ENDCHAR
STARTCHAR nine
ENCODING 57
SWIDTH 769 0
DWIDTH 10 0
BBX 8 14 1 0
BITMAP
3C
7E
E7
C3
C3
E7
7F
3E
06
0E
0C
1C
78
70
ENDCHAR
STARTCHAR colon
ENCODING 58
SWIDTH 769 0
DWIDTH 10 0
BBX 3 12 2 0
BITMAP
60
E0
E0
00
00
00
00
00
00
E0
E0
E0
ENDCHAR
STARTCHAR semicolon
ENCODING 59
SWIDTH 769 0
DWIDTH 10 0
BBX 3 14 2 -2
BITMAP
C0
E0
E0
00
00
00
00
00
00
C0
E0
60
E0
C0
ENDCHAR
STARTCHAR less
ENCODING 60
SWIDTH 769 0
DWIDTH 10 0
BBX 7 13 1 0
BITMAP
06
0E
1C
38
70
E0
E0
E0
70
38
1C
0E
06
ENDCHAR
STARTCHAR equal
ENCODING 61
SWIDTH 769 0
DWIDTH 10 0
BBX 6 6 2 4
BITMAP
FC
FC
00
00
FC
FC
ENDCHAR
STARTCHAR greater
ENCODING 62
SWIDTH 769 0
DWIDTH 10 0
BBX 6 13 2 0
BITMAP
C0
E0
70
38
1C
0C
0C
1C
1C
38
70
E0
C0
ENDCHAR
STARTCHAR question
ENCODING 63
SWIDTH 769 0
DWIDTH 10 0
BBX 8 14 1 0
BITMAP
3C
7E
E7
C3
C3
07
0E
1C
18
18
00
00
18
18
ENDCHAR
STARTCHAR at
ENCODING 64
SWIDTH 769 0
DWIDTH 10 0
BBX 8 13 1 0
BITMAP
3C
7E
E7
DB
DD
D5
D5
D7
DF
DB
E0
7F
3F
ENDCHAR
STARTCHAR A
ENCODING 65
SWIDTH 769 0
DWIDTH 10 0
BBX 7 13 1 0
BITMAP
38
3C
7C
6C
6C
EC
FE
FE
C6
C6
C6
C6
C6
ENDCHAR
STARTCHAR B
ENCODING 66
SWIDTH 769 0
DWIDTH 10 0
BBX 8 13 1 0
BITMAP
FC
FE
CE
C6
C6
FE
FC
FE
C7
C3
C7
FF
FE
ENDCHAR
STARTCHAR C
ENCODING 67
SWIDTH 769 0
DWIDTH 10 0
BBX 8 12 1 0
BITMAP
0F
3F
78
60
E0
C0
C0
C0
C0
E3
7F
3E
ENDCHAR
STARTCHAR D
ENCODING 68
SWIDTH 769 0
DWIDTH 10 0
BBX 8 13 1 0
BITMAP
70
7C
7E
66
67
63
E3
C3
C3
C3
CF
FE
FC
ENDCHAR
STARTCHAR E
ENCODING 69
SWIDTH 769 0
DWIDTH 10 0
BBX 7 13 1 0
BITMAP
7E
7E
60
60
60
78
F8
C0
C0
C0
C0
FE
FE
ENDCHAR
STARTCHAR F
ENCODING 70
SWIDTH 769 0
DWIDTH 10 0
BBX 8 13 1 0
BITMAP
7F
7F
60
60
60
7C
7C
60
E0
C0
C0
C0
C0
ENDCHAR
STARTCHAR G
ENCODING 71
SWIDTH 769 0
DWIDTH 10 0
BBX 8 13 1 0
BITMAP
1E
3E
70
60
E0
C0
CF
CF
C3
E3
67
7F
3E
ENDCHAR
STARTCHAR H
ENCODING 72
SWIDTH 769 0
DWIDTH 10 0
BBX 8 13 1 0
BITMAP
63
63
67
66
66
66
7E
FE
E6
C6
C6
C6
C6
ENDCHAR
STARTCHAR I
ENCODING 73
SWIDTH 769 0
DWIDTH 10 0
BBX 7 13 1 0
BITMAP
FC
FC
30
30
30
30
38
18
18
18
18
7E
7E
ENDCHAR
STARTCHAR J
ENCODING 74
SWIDTH 769 0
DWIDTH 10 0
BBX 8 13 1 0
BITMAP
03
03
03
03
03
03
03
03
03
C7
E6
7E
3C
ENDCHAR
STARTCHAR K
ENCODING 75
SWIDTH 769 0
DWIDTH 10 0
BBX 8 13 1 0
BITMAP
63
63
66
6E
6C
7C
F8
F8
DC
CC
CE
C7
C3
ENDCHAR
STARTCHAR L
ENCODING 76
SWIDTH 769 0
DWIDTH 10 0
BBX 8 13 1 0
BITMAP
C0
C0
C0
C0
C0
C0
E0
60
60
60
60
7F
7F
ENDCHAR
STARTCHAR M
ENCODING 77
SWIDTH 769 0
DWIDTH 10 0
BBX 8 13 1 0
BITMAP
66
66
76
7E
7E
FF
DB
C3
C3
C3
C3
C3
C3
ENDCHAR
STARTCHAR N
ENCODING 78
SWIDTH 769 0
DWIDTH 10 0
BBX 8 13 1 0
BITMAP
63
63
73
73
73
7B
7F
6F
EF
E7
C7
C3
C3
ENDCHAR
STARTCHAR O
ENCODING 79
SWIDTH 769 0
DWIDTH 10 0
BBX 8 13 1 0
BITMAP
3E
7F
77
E3
C3
C3
C3
C3
C7
E7
7E
7E
3C
ENDCHAR
STARTCHAR P
ENCODING 80
SWIDTH 769 0
DWIDTH 10 0
BBX 8 13 1 0
BITMAP
7C
7F
67
63
63
67
7E
FC
C0
C0
C0
C0
C0
ENDCHAR
STARTCHAR Q
ENCODING 81
SWIDTH 769 0
DWIDTH 10 0
BBX 8 13 1 0
BITMAP
3E
7F
F7
E3
C3
C3
DB
DF
CF
E7
7E
7F
3B
ENDCHAR
STARTCHAR R
ENCODING 82
SWIDTH 769 0
DWIDTH 10 0
BBX 8 13 1 0
BITMAP
7E
7F
67
63
63
67
7E
FC
DC
CE
C6
C7
C3
ENDCHAR
STARTCHAR S
ENCODING 83
SWIDTH 769 0
DWIDTH 10 0
BBX 8 13 1 0
BITMAP
3E
7F
E3
C0
E0
78
3C
0E
07
C3
E7
7E
3C
ENDCHAR
STARTCHAR T
ENCODING 84
SWIDTH 769 0
DWIDTH 10 0
BBX 8 13 1 0
BITMAP
1F
FF
F8
18
18
18
18
18
18
18
18
18
18
ENDCHAR
STARTCHAR U
ENCODING 85
SWIDTH 769 0
DWIDTH 10 0
BBX 8 13 1 0
BITMAP
C3
C3
C3
C3
C3
C3
C3
C3
E3
E7
7F
7E
3C
ENDCHAR
STARTCHAR V
ENCODING 86
SWIDTH 769 0
DWIDTH 10 0
BBX 8 13 1 0
BITMAP
C3
C3
C7
E6
66
6E
6C
7C
3C
3C
38
38
18
ENDCHAR
STARTCHAR W
ENCODING 87
SWIDTH 769 0
DWIDTH 10 0
BBX 8 14 1 -1
BITMAP
03
C3
C3
C3
C3
C7
C7
DE
FE
7E
7E
76
66
60
ENDCHAR
STARTCHAR X
ENCODING 88
SWIDTH 769 0
DWIDTH 10 0
BBX 7 13 1 0
BITMAP
C6
C6
EE
6C
7C
3C
38
38
7C
7C
6E
E6
C6
ENDCHAR
STARTCHAR Y
ENCODING 89
SWIDTH 769 0
DWIDTH 10 0
BBX 8 13 1 0
BITMAP
C3
C3
E6
7E
3C
1C
18
18
18
18
18
18
18
ENDCHAR
STARTCHAR Z
ENCODING 90
SWIDTH 769 0
DWIDTH 10 0
BBX 8 13 1 0
BITMAP
FF
FF
06
0E
0C
18
18
30
30
60
60
FF
FF
ENDCHAR
STARTCHAR bracketleft
ENCODING 91
SWIDTH 769 0
DWIDTH 10 0
BBX 6 15 2 -1
BITMAP
FC
FC
C0
C0
C0
C0
C0
E0
60
60
60
60
60
7C
7C
ENDCHAR
STARTCHAR backslash
ENCODING 92
SWIDTH 769 0
DWIDTH 10 0
BBX 6 16 2 0
BITMAP
C0
C0
C0
60
60
60
30
30
30
30
18
18
18
0C
0C
0C
ENDCHAR
STARTCHAR bracketright
ENCODING 93
SWIDTH 769 0
DWIDTH 10 0
BBX 6 15 2 -1
BITMAP
F8
F8
18
18
18
18
18
1C
0C
0C
0C
0C
0C
FC
FC
ENDCHAR
STARTCHAR asciicircum
ENCODING 94
SWIDTH 769 0
DWIDTH 10 0
BBX 6 4 2 9
BITMAP
30
78
FC
CC
ENDCHAR
STARTCHAR underscore
ENCODING 95
SWIDTH 769 0
DWIDTH 10 0
BBX 6 2 2 0
BITMAP
FC
FC
ENDCHAR
STARTCHAR grave
ENCODING 96
SWIDTH 769 0
DWIDTH 10 0
BBX 3 3 2 10
BITMAP
C0
E0
60
ENDCHAR
STARTCHAR a
ENCODING 97
SWIDTH 769 0
DWIDTH 10 0
BBX 7 13 1 0
BITMAP
38
3C
7C
6C
6C
EC
FE
FE
C6
C6
C6
C6
C6
ENDCHAR
STARTCHAR b
ENCODING 98
SWIDTH 769 0
DWIDTH 10 0
BBX 8 13 1 0
BITMAP
FC
FE
CE
C6
C6
FE
FC
FE
C7
C3
C7
FF
FE
ENDCHAR
STARTCHAR c
ENCODING 99
SWIDTH 769 0
DWIDTH 10 0
BBX 8 12 1 0
BITMAP
0F
3F
78
60
E0
C0
C0
C0
C0
E3
7F
3E
ENDCHAR
STARTCHAR d
ENCODING 100
SWIDTH 769 0
DWIDTH 10 0
BBX 8 13 1 0
BITMAP
70
7C
7E
66
67
63
E3
C3
C3
C3
CF
FE
FC
ENDCHAR
STARTCHAR e
ENCODING 101
SWIDTH 769 0
DWIDTH 10 0
BBX 7 13 1 0
BITMAP
7E
7E
60
60
60
78
F8
C0
C0
C0
C0
FE
FE
ENDCHAR
STARTCHAR f
ENCODING 102
SWIDTH 769 0
DWIDTH 10 0
BBX 8 13 1 0
BITMAP
7F
7F
60
60
60
7C
7C
60
E0
C0
C0
C0
C0
ENDCHAR
STARTCHAR g
ENCODING 103
SWIDTH 769 0
DWIDTH 10 0
BBX 8 13 1 0
BITMAP
1E
3E
70
60
E0
C0
CF
CF
C3
E3
67
7F
3E
ENDCHAR
STARTCHAR h
ENCODING 104
SWIDTH 769 0
DWIDTH 10 0
BBX 8 13 1 0
BITMAP
63
63
67
66
66
66
7E
FE
E6
C6
C6
C6
C6
ENDCHAR
STARTCHAR i
ENCODING 105
SWIDTH 769 0
DWIDTH 10 0
BBX 7 13 1 0
BITMAP
FC
FC
30
30
30
30
38
18
18
18
18
7E
7E
ENDCHAR
STARTCHAR j
ENCODING 106
SWIDTH 769 0
DWIDTH 10 0
BBX 8 13 1 0
BITMAP
03
03
03
03
03
03
03
03
03
C7
E6
7E
3C
ENDCHAR
STARTCHAR k
ENCODING 107
SWIDTH 769 0
DWIDTH 10 0
BBX 8 13 1 0
BITMAP
63
63
66
6E
6C
7C
F8
F8
DC
CC
CE
C7
C3
ENDCHAR
STARTCHAR l
ENCODING 108
SWIDTH 769 0
DWIDTH 10 0
BBX 8 13 1 0
BITMAP
C0
C0
C0
C0
C0
C0
E0
60
60
60
60
7F
7F
ENDCHAR
STARTCHAR m
ENCODING 109
SWIDTH 769 0
DWIDTH 10 0
BBX 8 13 1 0
BITMAP
66
66
76
7E
7E
FF
DB
C3
C3
C3
C3
C3
C3
ENDCHAR
STARTCHAR n
ENCODING 110
SWIDTH 769 0
DWIDTH 10 0
BBX 8 13 1 0
BITMAP
63
63
73
73
73
7B
7F
6F
EF
E7
C7
C3
C3
ENDCHAR
STARTCHAR o
ENCODING 111
SWIDTH 769 0
DWIDTH 10 0
BBX 8 13 1 0
BITMAP
3E
7F
77
E3
C3
C3
C3
C3
C7
E7
7E
7E
3C
ENDCHAR
STARTCHAR p
ENCODING 112
SWIDTH 769 0
DWIDTH 10 0
BBX 8 13 1 0
BITMAP
7C
7F
67
63
63
67
7E
FC
C0
C0
C0
C0
C0
ENDCHAR
STARTCHAR q
ENCODING 113
SWIDTH 769 0
DWIDTH 10 0
BBX 8 13 1 0
BITMAP
3E
7F
F7
E3
C3
C3
DB
DF
CF
E7
7E
7F
3B
ENDCHAR
STARTCHAR r
ENCODING 114
SWIDTH 769 0
DWIDTH 10 0
BBX 8 13 1 0
BITMAP
7E
7F
67
63
63
67
7E
FC
DC
CE
C6
C7
C3
ENDCHAR
STARTCHAR s
ENCODING 115
SWIDTH 769 0
DWIDTH 10 0
BBX 8 13 1 0
BITMAP
3E
7F
E3
C0
E0
78
3C
0E
07
C3
E7
7E
3C
ENDCHAR
STARTCHAR t
ENCODING 116
SWIDTH 769 0
DWIDTH 10 0
BBX 8 13 1 0
BITMAP
1F
FF
F8
18
18
18
18
18
18
18
18
18
18
ENDCHAR
STARTCHAR u
ENCODING 117
SWIDTH 769 0
DWIDTH 10 0
BBX 8 13 1 0
BITMAP
C3
C3
C3
C3
C3
C3
C3
C3
E3
E7
7F
7E
3C
ENDCHAR
STARTCHAR v
ENCODING 118
SWIDTH 769 0
DWIDTH 10 0
BBX 8 13 1 0
BITMAP
C3
C3
C7
E6
66
6E
6C
7C
3C
3C
38
38
18
ENDCHAR
STARTCHAR w
ENCODING 119
SWIDTH 769 0
DWIDTH 10 0
BBX 8 14 1 -1
BITMAP
03
C3
C3
C3
C3
C7
C7
DE
FE
7E
7E
76
66
60
ENDCHAR
STARTCHAR x
ENCODING 120
SWIDTH 769 0
DWIDTH 10 0
BBX 7 13 1 0
BITMAP
C6
C6
EE
6C
7C
3C
38
38
7C
7C
6E
E6
C6
ENDCHAR
STARTCHAR y
ENCODING 121
SWIDTH 769 0
DWIDTH 10 0
BBX 8 13 1 0
BITMAP
C3
C3
E6
7E
3C
1C
18
18
18
18
18
18
18
ENDCHAR
STARTCHAR z
ENCODING 122
SWIDTH 769 0
DWIDTH 10 0
BBX 8 13 1 0
BITMAP
FF
FF
06
0E
0C
18
18
30
30
60
60
FF
FF
ENDCHAR
STARTCHAR braceleft
ENCODING 123
SWIDTH 769 0
DWIDTH 10 0
BBX 5 15 3 -1
BITMAP
38
78
60
60
60
60
E0
C0
E0
60
60
60
60
78
38
ENDCHAR
STARTCHAR bar
ENCODING 124
SWIDTH 769 0
DWIDTH 10 0
BBX 2 13 4 0
BITMAP
C0
C0
C0
C0
C0
C0
C0
C0
C0
C0
C0
C0
C0
ENDCHAR
STARTCHAR braceright
ENCODING 125
SWIDTH 769 0
DWIDTH 10 0
BBX 5 15 2 -1
BITMAP
E0
F0
30
30
30
30
38
18
38
30
30
30
30
F0
E0
ENDCHAR
STARTCHAR asciitilde
ENCODING 126
SWIDTH 769 0
DWIDTH 10 0
BBX 8 4 1 5
BITMAP
70
FB
DF
0E
ENDCHAR
STARTCHAR uni00A0
ENCODING 160
SWIDTH 769 0
DWIDTH 10 0
BBX 1 1 0 0
BITMAP
00
ENDCHAR
STARTCHAR section
ENCODING 167
SWIDTH 769 0
DWIDTH 10 0
BBX 7 13 1 0
BITMAP
7C
FE
C6
E0
7C
CE
C6
E6
7C
0E
C6
FE
7C
ENDCHAR
STARTCHAR dieresis
ENCODING 168
SWIDTH 769 0
DWIDTH 10 0
BBX 5 2 2 11
BITMAP
D8
D8
ENDCHAR
STARTCHAR copyright
ENCODING 169
SWIDTH 1153 0
DWIDTH 15 0
BBX 13 13 1 0
BITMAP
1FC0
3FE0
7070
E738
CF98
DC18
D818
DD98
CF98
6738
7070
3FE0
1FC0
ENDCHAR
STARTCHAR logicalnot
ENCODING 172
SWIDTH 1153 0
DWIDTH 15 0
BBX 9 5 3 3
BITMAP
FF80
FF80
0180
0180
0180
ENDCHAR
STARTCHAR registered
ENCODING 174
SWIDTH 1153 0
DWIDTH 15 0
BBX 13 13 1 0
BITMAP
0FC0
3FE0
7070
6F38
EF98
CD98
CD98
DF18
DB98
D9B8
6070
7FE0
3FC0
ENDCHAR
STARTCHAR degree
ENCODING 176
SWIDTH 1153 0
DWIDTH 15 0
BBX 5 5 2 8
BITMAP
70
F8
D8
F8
70
ENDCHAR
STARTCHAR plusminus
ENCODING 177
SWIDTH 1153 0
DWIDTH 15 0
BBX 10 11 3 1
BITMAP
0C00
0C00
0C00
FFC0
FFC0
0C00
0C00
0C00
0000
FFC0
FFC0
ENDCHAR
STARTCHAR acute
ENCODING 180
SWIDTH 769 0
DWIDTH 10 0
BBX 3 3 2 10
BITMAP
60
E0
C0
ENDCHAR
STARTCHAR paragraph
ENCODING 182
SWIDTH 769 0
DWIDTH 10 0
BBX 8 13 1 0
BITMAP
3F
7B
FB
FB
FB
FB
7B
1B
1B
1B
1B
3B
33
ENDCHAR
STARTCHAR Aacute
ENCODING 193
SWIDTH 769 0
DWIDTH 10 0
BBX 7 16 1 0
BITMAP
18
38
30
00
38
3C
7C
6C
6C
6C
FE
FE
C6
C6
C6
C6
ENDCHAR
STARTCHAR Adieresis
ENCODING 196
SWIDTH 769 0
DWIDTH 10 0
BBX 7 14 1 0
BITMAP
6C
6C
00
38
3C
7C
6C
6C
6C
FE
FE
C6
C6
C6
ENDCHAR
STARTCHAR AE
ENCODING 198
SWIDTH 769 0
DWIDTH 10 0
BBX 8 13 1 0
BITMAP
3F
3F
7C
6C
6C
6F
6F
FC
FC
CC
CC
CF
CF
ENDCHAR
STARTCHAR Ccedilla
ENCODING 199
SWIDTH 769 0
DWIDTH 10 0
BBX 8 16 1 -3
BITMAP
3E
7F
63
E0
C0
C0
C0
C0
C0
E3
7F
3E
18
0C
3C
38
ENDCHAR
STARTCHAR Ecircumflex
ENCODING 202
SWIDTH 769 0
DWIDTH 10 0
BBX 7 16 1 0
BITMAP
18
3C
7E
66
00
7E
7E
60
60
78
F8
C0
C0
C0
FE
FE
ENDCHAR
STARTCHAR Ntilde
ENCODING 209
SWIDTH 769 0
DWIDTH 10 0
BBX 8 15 1 0
BITMAP
36
7E
6C
00
63
63
73
73
7B
7F
6F
E7
C7
C3
C3
ENDCHAR
STARTCHAR Odieresis
ENCODING 214
SWIDTH 769 0
DWIDTH 10 0
BBX 8 14 1 0
BITMAP
66
66
00
3E
7F
77
E3
C3
C3
C7
E7
7E
7E
3C
ENDCHAR
STARTCHAR multiply
ENCODING 215
SWIDTH 1153 0
DWIDTH 15 0
BBX 11 11 2 1
BITMAP
C060
E0E0
71C0
3B80
1F00
0E00
1F00
3B80
71C0
E0E0
C060
ENDCHAR
STARTCHAR aacute
ENCODING 225
SWIDTH 769 0
DWIDTH 10 0
BBX 7 16 1 0
BITMAP
18
38
30
00
38
3C
7C
6C
6C
6C
FE
FE
C6
C6
C6
C6
ENDCHAR
STARTCHAR adieresis
ENCODING 228
SWIDTH 769 0
DWIDTH 10 0
BBX 7 14 1 0
BITMAP
6C
6C
00
38
3C
7C
6C
6C
6C
FE
FE
C6
C6
C6
ENDCHAR
STARTCHAR ae
ENCODING 230
SWIDTH 769 0
DWIDTH 10 0
BBX 8 13 1 0
BITMAP
3F
3F
3C
6C
6C
6F
6F
7C
7C
CC
CC
CF
CF
ENDCHAR
STARTCHAR ccedilla
ENCODING 231
SWIDTH 769 0
DWIDTH 10 0
BBX 8 16 1 -3
BITMAP
3E
7F
63
E0
C0
C0
C0
C0
C0
E3
7F
3E
18
0C
3C
38
ENDCHAR
STARTCHAR ecircumflex
ENCODING 234
SWIDTH 769 0
DWIDTH 10 0
BBX 7 16 1 0
BITMAP
18
3C
7E
66
00
7E
7E
60
60
78
F8
C0
C0
C0
FE
FE
ENDCHAR
STARTCHAR ntilde
ENCODING 241
SWIDTH 769 0
DWIDTH 10 0
BBX 8 15 1 0
BITMAP
36
7E
6C
00
63
63
73
73
7B
7F
6F
E7
C7
C3
C3
ENDCHAR
STARTCHAR odieresis
ENCODING 246
SWIDTH 769 0
DWIDTH 10 0
BBX 8 14 1 0
BITMAP
66
66
00
3E
7F
77
E3
C3
C3
C7
E7
7E
7E
3C
ENDCHAR
STARTCHAR divide
ENCODING 247
SWIDTH 1153 0
DWIDTH 15 0
BBX 11 10 2 2
BITMAP
0400
0E00
0400
0000
FFE0
FFE0
0000
0400
0E00
0400
ENDCHAR
STARTCHAR Ccaron
ENCODING 268
SWIDTH 769 0
DWIDTH 10 0
BBX 8 16 1 0
BITMAP
66
7E
3C
18
00
3E
7F
63
E0
C0
C0
C0
C0
E3
7F
3E
ENDCHAR
STARTCHAR ccaron
ENCODING 269
SWIDTH 769 0
DWIDTH 10 0
BBX 8 16 1 0
BITMAP
66
7E
3C
18
00
3E
7F
63
E0
C0
C0
C0
C0
E3
7F
3E
ENDCHAR
STARTCHAR Edotaccent
ENCODING 278
SWIDTH 769 0
DWIDTH 10 0
BBX 7 14 1 0
BITMAP
18
18
00
7E
7E
60
60
78
F8
C0
C0
C0
FE
FE
ENDCHAR
STARTCHAR edotaccent
ENCODING 279
SWIDTH 769 0
DWIDTH 10 0
BBX 7 14 1 0
BITMAP
18
18
00
7E
7E
60
60
78
F8
C0
C0
C0
FE
FE
ENDCHAR
STARTCHAR Eogonek
ENCODING 280
SWIDTH 769 0
DWIDTH 10 0
BBX 7 14 1 -1
BITMAP
7E
7E
60
60
78
F8
C0
C0
FE
FE
0C
18
1E
0E
ENDCHAR
STARTCHAR eogonek
ENCODING 281
SWIDTH 769 0
DWIDTH 10 0
BBX 7 14 1 -1
BITMAP
7E
7E
60
60
78
F8
C0
C0
FE
FE
0C
18
1E
0E
ENDCHAR
STARTCHAR Ecaron
ENCODING 282
SWIDTH 769 0
DWIDTH 10 0
BBX 7 16 1 0
BITMAP
66
7E
3C
18
00
7E
7E
60
60
78
F8
C0
C0
C0
FE
FE
ENDCHAR
STARTCHAR ecaron
ENCODING 283
SWIDTH 769 0
DWIDTH 10 0
BBX 7 16 1 0
BITMAP
66
7E
3C
18
00
7E
7E
60
60
78
F8
C0
C0
C0
FE
FE
ENDCHAR
STARTCHAR Idotaccent
ENCODING 304
SWIDTH 769 0
DWIDTH 10 0
BBX 7 15 1 0
BITMAP
30
30
00
FC
FC
30
30
30
30
38
18
18
18
7E
7E
ENDCHAR
STARTCHAR dotlessi
ENCODING 305
SWIDTH 769 0
DWIDTH 10 0
BBX 7 13 1 0
BITMAP
FC
FC
30
30
30
30
38
18
18
18
18
7E
7E
ENDCHAR
STARTCHAR Scaron
ENCODING 352
SWIDTH 769 0
DWIDTH 10 0
BBX 8 16 1 0
BITMAP
66
7E
3C
18
00
3E
7F
E3
C0
F8
7E
0F
C3
E7
7E
3C
ENDCHAR
STARTCHAR scaron
ENCODING 353
SWIDTH 769 0
DWIDTH 10 0
BBX 8 16 1 0
BITMAP
66
7E
3C
18
00
3E
7F
E3
C0
F8
7E
0F
C3
E7
7E
3C
ENDCHAR
STARTCHAR tonos
ENCODING 900
SWIDTH 1153 0
DWIDTH 15 0
BBX 3 3 6 10
BITMAP
60
E0
C0
ENDCHAR
STARTCHAR dieresistonos
ENCODING 901
SWIDTH 1153 0
DWIDTH 15 0
BBX 8 4 4 11
BITMAP
0C
18
DB
C3
ENDCHAR
STARTCHAR Alphatonos
ENCODING 902
SWIDTH 1153 0
DWIDTH 15 0
BBX 11 13 2 0
BITMAP
6E00
EE00
DF00
1B00
3B00
3180
3180
7FC0
7FC0
60C0
E0E0
C060
C060
ENDCHAR
STARTCHAR anoteleia
ENCODING 903
SWIDTH 1153 0
DWIDTH 15 0
BBX 3 3 6 6
BITMAP
60
E0
E0
ENDCHAR
STARTCHAR Epsilontonos
ENCODING 904
SWIDTH 1153 0
DWIDTH 15 0
BBX 11 13 2 0
BITMAP
6FE0
EFE0
D800
1800
1800
1F00
1F00
3800
3000
3000
3000
3FE0
1FE0
ENDCHAR
STARTCHAR Etatonos
ENCODING 905
SWIDTH 1153 0
DWIDTH 15 0
BBX 12 13 1 0
BITMAP
6C30
EC30
CC30
0C30
0C30
0FF0
1FE0
1860
1860
1860
3860
3060
3060
ENDCHAR
STARTCHAR Iotatonos
ENCODING 906
SWIDTH 1153 0
DWIDTH 15 0
BBX 9 13 2 0
BITMAP
6F80
EF80
C600
0600
0600
0600
0E00
0C00
0C00
0C00
0C00
3F00
3F00
ENDCHAR
STARTCHAR Omicrontonos
ENCODING 908
SWIDTH 1153 0
DWIDTH 15 0
BBX 12 13 1 0
BITMAP
67C0
EFE0
DC60
1870
3830
3030
3030
3030
3070
3870
38E0
1FE0
0FC0
ENDCHAR
STARTCHAR Upsilontonos
ENCODING 910
SWIDTH 1153 0
DWIDTH 15 0
BBX 12 13 1 0
BITMAP
6C30
EC30
CE70
0660
07E0
03C0
0180
0180
0180
0180
0180
0180
0180
ENDCHAR
STARTCHAR Omegatonos
ENCODING 911
SWIDTH 1153 0
DWIDTH 15 0
BBX 13 13 1 0
BITMAP
67C0
EFE0
DC70
3830
3030
3030
3030
3030
3030
1870
1860
7878
7878
ENDCHAR
STARTCHAR iotadieresistonos
ENCODING 912
SWIDTH 1153 0
DWIDTH 15 0
BBX 8 14 3 0
BITMAP
0C
18
DB
C3
00
18
18
18
18
18
18
18
1E
0E
ENDCHAR
STARTCHAR Alpha
ENCODING 913
SWIDTH 1153 0
DWIDTH 15 0
BBX 11 13 2 0
BITMAP
0E00
0E00
1F00
1B00
3B00
3180
3180
7FC0
7FC0
60C0
E0E0
C060
C060
ENDCHAR
STARTCHAR Beta
ENCODING 914
SWIDTH 1153 0
DWIDTH 15 0
BBX 9 13 3 0
BITMAP
FE00
FF00
C300
C300
C700
FF00
FE00
FF00
C380
C180
C380
FF80
FF00
ENDCHAR
STARTCHAR Gamma
ENCODING 915
SWIDTH 1153 0
DWIDTH 15 0
BBX 8 13 4 0
BITMAP
7F
FF
C0
C0
C0
C0
C0
C0
C0
C0
C0
C0
C0
ENDCHAR
STARTCHAR uni0394
ENCODING 916
SWIDTH 1153 0
DWIDTH 15 0
BBX 9 13 3 0
BITMAP
1C00
1C00
1E00
3600
3600
7300
6300
6300
E180
C180
C180
FF80
7F80
ENDCHAR
STARTCHAR Epsilon
ENCODING 917
SWIDTH 1153 0
DWIDTH 15 0
BBX 9 13 3 0
BITMAP
3F80
7F80
6000
6000
6000
7C00
7C00
E000
C000
C000
C000
FF80
7F80
ENDCHAR
STARTCHAR Zeta
ENCODING 918
SWIDTH 1153 0
DWIDTH 15 0
BBX 9 13 3 0
BITMAP
FF80
FF80
0380
0700
0600
0E00
1C00
3800
3000
7000
E000
FF80
FF80
ENDCHAR
STARTCHAR Eta
ENCODING 919
SWIDTH 1153 0
DWIDTH 15 0
BBX 11 13 2 0
BITMAP
6060
6060
6060
6060
6060
7FE0
7FC0
60C0
E0C0
C0C0
C0C0
C0C0
C0C0
ENDCHAR
STARTCHAR Theta
ENCODING 920
SWIDTH 1153 0
DWIDTH 15 0
BBX 9 13 3 0
BITMAP
3E00
7F00
6300
C380
C180
FF80
FF80
C180
C180
E180
6380
7F00
3E00
ENDCHAR
STARTCHAR Iota
ENCODING 921
SWIDTH 1153 0
DWIDTH 15 0
BBX 7 13 4 0
BITMAP
7E
7E
18
18
18
18
38
30
30
30
30
FC
FC
ENDCHAR
STARTCHAR Kappa
ENCODING 922
SWIDTH 1153 0
DWIDTH 15 0
BBX 9 13 3 0
BITMAP
6180
6380
6700
6E00
7C00
7800
7800
7C00
EE00
E600
C700
C380
C180
ENDCHAR
STARTCHAR Lambda
ENCODING 923
SWIDTH 1153 0
DWIDTH 15 0
BBX 11 13 2 0
BITMAP
0E00
0E00
1F00
1B00
3B80
3180
7180
61C0
60C0
E0C0
C0E0
C060
C060
ENDCHAR
STARTCHAR Mu
ENCODING 924
SWIDTH 1153 0
DWIDTH 15 0
BBX 13 13 1 0
BITMAP
1860
1CE0
3DE0
3FF0
3FF0
37B0
7330
6030
6038
E018
C018
C018
C018
ENDCHAR
STARTCHAR Nu
ENCODING 925
SWIDTH 1153 0
DWIDTH 15 0
BBX 11 13 2 0
BITMAP
3060
3060
7860
7860
7C60
7C60
6E60
E7E0
C7E0
C3E0
C1E0
C1C0
C0C0
ENDCHAR
STARTCHAR Xi
ENCODING 926
SWIDTH 1153 0
DWIDTH 15 0
BBX 9 13 3 0
BITMAP
FF80
FF80
0000
0000
0000
7F00
7F00
0000
0000
0000
0000
FF80
FF80
ENDCHAR
STARTCHAR Omicron
ENCODING 927
SWIDTH 1153 0
DWIDTH 15 0
BBX 11 13 2 0
BITMAP
1F80
7FC0
71C0
E0E0
E060
C060
C060
C060
E0E0
60E0
71C0
3FC0
1F80
ENDCHAR
STARTCHAR Pi
ENCODING 928
SWIDTH 1153 0
DWIDTH 15 0
BBX 9 13 3 0
BITMAP
7F80
FF80
E180
C180
C180
C180
C180
C180
C180
C180
C180
C180
C180
ENDCHAR
STARTCHAR Rho
ENCODING 929
SWIDTH 1153 0
DWIDTH 15 0
BBX 10 13 3 0
BITMAP
3F00
7F80
61C0
60C0
60C0
61C0
7F80
7F00
E000
C000
C000
C000
C000
ENDCHAR
STARTCHAR Sigma
ENCODING 931
SWIDTH 1153 0
DWIDTH 15 0
BBX 9 13 3 0
BITMAP
1F80
FF80
F800
7000
3800
1C00
0E00
0E00
1C00
3800
7000
FF80
FF80
ENDCHAR
STARTCHAR Tau
ENCODING 932
SWIDTH 1153 0
DWIDTH 15 0
BBX 10 13 3 0
BITMAP
FFC0
FFC0
0C00
0C00
0C00
0C00
1C00
1800
1800
1800
1800
1800
1800
ENDCHAR
STARTCHAR Upsilon
ENCODING 933
SWIDTH 1153 0
DWIDTH 15 0
BBX 10 13 3 0
BITMAP
C0C0
E0C0
61C0
7180
3F80
1F00
0E00
0C00
0C00
0C00
0C00
0C00
0C00
ENDCHAR
STARTCHAR Phi
ENCODING 934
SWIDTH 1153 0
DWIDTH 15 0
BBX 10 13 3 0
BITMAP
0C00
3F00
7F80
EDC0
CCC0
CCC0
CCC0
EDC0
7F80
3E00
0C00
0C00
0C00
ENDCHAR
STARTCHAR Chi
ENCODING 935
SWIDTH 1153 0
DWIDTH 15 0
BBX 9 13 3 0
BITMAP
C180
E180
6380
7300
3700
3E00
1C00
1C00
3E00
3700
7300
E380
C180
ENDCHAR
STARTCHAR Psi
ENCODING 936
SWIDTH 1153 0
DWIDTH 15 0
BBX 10 13 3 0
BITMAP
CCC0
CCC0
CCC0
CDC0
ED80
7F80
7F00
3E00
0C00
0C00
0C00
0C00
0C00
ENDCHAR
STARTCHAR uni03A9
ENCODING 937
SWIDTH 1153 0
DWIDTH 15 0
BBX 13 13 1 0
BITMAP
0F80
1FE0
38E0
7070
6030
6030
6030
6030
7030
3070
3860
F8F8
F8F8
ENDCHAR
STARTCHAR Iotadieresis
ENCODING 938
SWIDTH 1153 0
DWIDTH 15 0
BBX 7 15 4 0
BITMAP
66
66
00
7E
7E
18
18
18
18
38
30
30
30
FC
FC
ENDCHAR
STARTCHAR Upsilondieresis
ENCODING 939
SWIDTH 1153 0
DWIDTH 15 0
BBX 10 15 3 0
BITMAP
3300
3300
0000
C0C0
E0C0
61C0
7180
3F80
1F00
0E00
0C00
0C00
0C00
0C00
0C00
ENDCHAR
STARTCHAR alphatonos
ENCODING 940
SWIDTH 1153 0
DWIDTH 15 0
BBX 9 13 3 0
BITMAP
0C00
1C00
1800
0000
3D80
7F80
E780
C300
C300
C700
CF00
FF80
7980
ENDCHAR
STARTCHAR epsilontonos
ENCODING 941
SWIDTH 1153 0
DWIDTH 15 0
BBX 7 14 4 0
BITMAP
18
38
30
00
7C
FC
C0
C0
7C
FC
C0
C6
FE
7C
ENDCHAR
STARTCHAR etatonos
ENCODING 942
SWIDTH 1153 0
DWIDTH 15 0
BBX 7 14 4 -2
BITMAP
18
38
30
00
DC
FE
E6
C6
C6
C6
C6
C6
06
06
ENDCHAR
STARTCHAR iotatonos
ENCODING 943
SWIDTH 1153 0
DWIDTH 15 0
BBX 4 13 6 0
BITMAP
60
E0
C0
00
C0
C0
C0
C0
C0
C0
C0
F0
70
ENDCHAR
STARTCHAR upsilondieresistonos
ENCODING 944
SWIDTH 1153 0
DWIDTH 15 0
BBX 9 14 3 0
BITMAP
0600
0C00
6D80
6180
0000
C180
E180
6180
6180
6180
6180
7380
3F00
1E00
ENDCHAR
STARTCHAR alpha
ENCODING 945
SWIDTH 1153 0
DWIDTH 15 0
BBX 9 9 3 0
BITMAP
3D80
7F80
E780
C300
C300
C700
CF00
FF80
7980
ENDCHAR
STARTCHAR beta
ENCODING 946
SWIDTH 1153 0
DWIDTH 15 0
BBX 9 15 3 -2
BITMAP
1E00
3F00
7380
6180
6180
6380
6F00
6F00
C180
C180
C380
FF00
DE00
C000
C000
ENDCHAR
STARTCHAR gamma
ENCODING 947
SWIDTH 1153 0
DWIDTH 15 0
BBX 9 11 3 -2
BITMAP
E180
F380
3F00
1E00
0C00
1E00
1E00
3E00
3600
3E00
1C00
ENDCHAR
STARTCHAR delta
ENCODING 948
SWIDTH 1153 0
DWIDTH 15 0
BBX 7 13 4 0
BITMAP
7E
FE
E0
70
38
3C
7C
E6
C6
C6
CE
FC
78
ENDCHAR
STARTCHAR epsilon
ENCODING 949
SWIDTH 1153 0
DWIDTH 15 0
BBX 7 10 4 0
BITMAP
7C
FC
C0
C0
7C
FC
C0
C6
FE
7C
ENDCHAR
STARTCHAR zeta
ENCODING 950
SWIDTH 1153 0
DWIDTH 15 0
BBX 7 13 4 0
BITMAP
FE
FE
1C
38
70
60
60
70
38
1C
0C
3C
38
ENDCHAR
STARTCHAR eta
ENCODING 951
SWIDTH 1153 0
DWIDTH 15 0
BBX 7 10 4 -2
BITMAP
DC
FE
E6
C6
C6
C6
C6
C6
06
06
ENDCHAR
STARTCHAR theta
ENCODING 952
SWIDTH 1153 0
DWIDTH 15 0
BBX 7 13 4 0
BITMAP
38
7C
66
C6
C6
FE
FE
C6
C6
C6
6E
7C
38
ENDCHAR
STARTCHAR iota
ENCODING 953
SWIDTH 1153 0
DWIDTH 15 0
BBX 4 9 6 0
BITMAP
C0
C0
C0
C0
C0
C0
C0
F0
70
ENDCHAR
STARTCHAR kappa
ENCODING 954
SWIDTH 1153 0
DWIDTH 15 0
BBX 7 9 4 0
BITMAP
C6
CE
FC
F8
F0
F8
DC
CE
C6
ENDCHAR
STARTCHAR lambda
ENCODING 955
SWIDTH 1153 0
DWIDTH 15 0
BBX 7 13 4 0
BITMAP
70
F8
D8
18
18
1C
3C
3C
7C
66
E6
C6
C6
ENDCHAR
STARTCHAR uni03BC
ENCODING 956
SWIDTH 1153 0
DWIDTH 15 0
BBX 11 11 2 -2
BITMAP
6180
6180
6180
6180
6180
6180
F380
FFE0
CEE0
C000
C000
ENDCHAR
STARTCHAR nu
ENCODING 957
SWIDTH 1153 0
DWIDTH 15 0
BBX 9 9 3 0
BITMAP
C180
C180
E180
6380
7300
3700
3E00
1E00
1C00
ENDCHAR
STARTCHAR xi
ENCODING 958
SWIDTH 1153 0
DWIDTH 15 0
BBX 7 15 4 -2
BITMAP
FE
FE
38
70
60
70
3C
7C
60
60
7C
3E
06
1E
1C
ENDCHAR
STARTCHAR omicron
ENCODING 959
SWIDTH 1153 0
DWIDTH 15 0
BBX 9 9 3 0
BITMAP
3E00
7F00
6380
E180
C180
C180
E380
7F00
3E00
ENDCHAR
STARTCHAR pi
ENCODING 960
SWIDTH 1153 0
DWIDTH 15 0
BBX 7 9 4 0
BITMAP
7E
FE
C6
C6
C6
C6
C6
C6
C6
ENDCHAR
STARTCHAR rho
ENCODING 961
SWIDTH 1153 0
DWIDTH 15 0
BBX 9 11 3 -2
BITMAP
1E00
3F00
7380
6180
6180
6380
FF00
FE00
C000
C000
C000
ENDCHAR
STARTCHAR sigma1
ENCODING 962
SWIDTH 1153 0
DWIDTH 15 0
BBX 6 9 4 0
BITMAP
3C
7C
E0
C0
F8
7C
0C
7C
78
ENDCHAR
STARTCHAR sigma
ENCODING 963
SWIDTH 1153 0
DWIDTH 15 0
BBX 8 9 4 0
BITMAP
3F
7F
EC
C6
C6
C6
CE
7C
78
ENDCHAR
STARTCHAR tau
ENCODING 964
SWIDTH 1153 0
DWIDTH 15 0
BBX 7 9 4 0
BITMAP
FE
FE
38
30
30
30
30
3C
1C
ENDCHAR
STARTCHAR upsilon
ENCODING 965
SWIDTH 1153 0
DWIDTH 15 0
BBX 9 9 3 0
BITMAP
C180
E180
6180
6180
6180
6180
7380
3F00
1E00
ENDCHAR
STARTCHAR phi
ENCODING 966
SWIDTH 1153 0
DWIDTH 15 0
BBX 10 11 3 -2
BITMAP
6700
EF80
CDC0
CCC0
CCC0
EDC0
7F80
3F00
0C00
0C00
0C00
ENDCHAR
STARTCHAR chi
ENCODING 967
SWIDTH 1153 0
DWIDTH 15 0
BBX 7 11 4 -2
BITMAP
C6
C6
EE
6C
7C
38
38
7C
6C
EE
C6
ENDCHAR
STARTCHAR psi
ENCODING 968
SWIDTH 1153 0
DWIDTH 15 0
BBX 10 11 3 -2
BITMAP
CCC0
CCC0
CCC0
CDC0
EDC0
7F80
3F00
0C00
0C00
0C00
0C00
ENDCHAR
STARTCHAR omega
ENCODING 969
SWIDTH 1153 0
DWIDTH 15 0
BBX 10 9 3 0
BITMAP
6180
E180
C0C0
CCC0
CCC0
CCC0
EDC0
7F80
3B00
ENDCHAR
STARTCHAR iotadieresis
ENCODING 970
SWIDTH 1153 0
DWIDTH 15 0
BBX 6 12 4 0
BITMAP
CC
CC
00
30
30
30
30
30
30
30
3C
1C
ENDCHAR
STARTCHAR upsilondieresis
ENCODING 971
SWIDTH 1153 0
DWIDTH 15 0
BBX 8 12 4 0
BITMAP
66
66
00
C3
C3
C3
C3
C3
C3
E7
7E
3C
ENDCHAR
STARTCHAR omicrontonos
ENCODING 972
SWIDTH 1153 0
DWIDTH 15 0
BBX 9 13 3 0
BITMAP
0C00
1C00
1800
0000
3E00
7F00
6380
E180
C180
C180
E380
7F00
3E00
ENDCHAR
STARTCHAR upsilontonos
ENCODING 973
SWIDTH 1153 0
DWIDTH 15 0
BBX 9 13 3 0
BITMAP
0600
0E00
0C00
0000
C180
E180
6180
6180
6180
6180
7380
3F00
1E00
ENDCHAR
STARTCHAR omegatonos
ENCODING 974
SWIDTH 1153 0
DWIDTH 15 0
BBX 10 13 3 0
BITMAP
0600
0E00
0C00
0000
6180
E180
C0C0
CCC0
CCC0
CCC0
EDC0
7F80
3B00
ENDCHAR
STARTCHAR uni1EBE
ENCODING 7870
SWIDTH 769 0
DWIDTH 10 0
BBX 8 16 1 0
BITMAP
03
07
06
18
3C
7E
66
00
7E
7E
60
78
F8
C0
FE
FE
ENDCHAR
STARTCHAR uni1EBF
ENCODING 7871
SWIDTH 769 0
DWIDTH 10 0
BBX 8 16 1 0
BITMAP
03
07
06
18
3C
7E
66
00
7E
7E
60
78
F8
C0
FE
FE
ENDCHAR
STARTCHAR uni1EC6
ENCODING 7878
SWIDTH 769 0
DWIDTH 10 0
BBX 7 16 1 -1
BITMAP
18
3C
7E
66
00
7E
7E
60
78
F8
C0
FE
FE
00
18
18
ENDCHAR
STARTCHAR uni1EC7
ENCODING 7879
SWIDTH 769 0
DWIDTH 10 0
BBX 7 16 1 -1
BITMAP
18
3C
7E
66
00
7E
7E
60
78
F8
C0
FE
FE
00
18
18
ENDCHAR
STARTCHAR uni200B
ENCODING 8203
SWIDTH 0 0
DWIDTH 0 0
BBX 1 1 0 0
BITMAP
00
ENDCHAR
STARTCHAR uni2010
ENCODING 8208
SWIDTH 769 0
DWIDTH 10 0
BBX 7 2 1 6
BITMAP
FE
FE
ENDCHAR
STARTCHAR endash
ENCODING 8211
SWIDTH 769 0
DWIDTH 10 0
BBX 7 2 1 6
BITMAP
FE
FE
ENDCHAR
STARTCHAR emdash
ENCODING 8212
SWIDTH 1153 0
DWIDTH 15 0
BBX 15 2 0 6
BITMAP
FFFE
FFFE
ENDCHAR
STARTCHAR uni2015
ENCODING 8213
SWIDTH 1153 0
DWIDTH 15 0
BBX 15 2 0 6
BITMAP
FFFE
FFFE
ENDCHAR
STARTCHAR uni2016
ENCODING 8214
SWIDTH 1153 0
DWIDTH 15 0
BBX 5 13 5 0
BITMAP
D8
D8
D8
D8
D8
D8
D8
D8
D8
D8
D8
D8
D8
ENDCHAR
STARTCHAR quoteleft
ENCODING 8216
SWIDTH 1153 0
DWIDTH 15 0
BBX 3 5 10 9
BITMAP
60
E0
C0
C0
C0
ENDCHAR
STARTCHAR quoteright
ENCODING 8217
SWIDTH 1153 0
DWIDTH 15 0
BBX 3 5 2 9
BITMAP
60
60
60
E0
C0
ENDCHAR
STARTCHAR quotedblleft
ENCODING 8220
SWIDTH 1153 0
DWIDTH 15 0
BBX 6 5 7 9
BITMAP
6C
6C
D8
D8
D8
ENDCHAR
STARTCHAR quotedblright
ENCODING 8221
SWIDTH 1153 0
DWIDTH 15 0
BBX 6 5 2 9
BITMAP
6C
6C
6C
D8
D8
ENDCHAR
STARTCHAR dagger
ENCODING 8224
SWIDTH 1153 0
DWIDTH 15 0
BBX 8 14 4 0
BITMAP
18
18
18
FF
FF
18
18
18
18
18
18
18
18
18
ENDCHAR
STARTCHAR daggerdbl
ENCODING 8225
SWIDTH 1153 0
DWIDTH 15 0
BBX 8 14 4 0
BITMAP
18
18
18
FF
FF
18
18
18
18
FF
FF
18
18
18
ENDCHAR
STARTCHAR twodotenleader
ENCODING 8229
SWIDTH 1153 0
DWIDTH 15 0
BBX 9 3 3 5
BITMAP
6380
E380
E300
ENDCHAR
STARTCHAR ellipsis
ENCODING 8230
SWIDTH 1153 0
DWIDTH 15 0
BBX 13 3 1 5
BITMAP
6738
E738
E630
ENDCHAR
STARTCHAR perthousand
ENCODING 8240
SWIDTH 1153 0
DWIDTH 15 0
BBX 13 15 1 -1
BITMAP
0300
6300
F700
B600
FE00
6C00
1C00
1800
3800
3630
7F78
6B58
EF78
C630
C000
ENDCHAR
STARTCHAR uni2031
ENCODING 8241
SWIDTH 1153 0
DWIDTH 15 0
BBX 13 15 1 -1
BITMAP
0600
4600
EC00
AC00
EC00
5800
1800
3800
3000
3490
6FF8
6B68
6FF8
C490
C000
ENDCHAR
STARTCHAR minute
ENCODING 8242
SWIDTH 1153 0
DWIDTH 15 0
BBX 3 5 2 9
BITMAP
60
60
60
E0
C0
ENDCHAR
STARTCHAR second
ENCODING 8243
SWIDTH 1153 0
DWIDTH 15 0
BBX 6 5 2 9
BITMAP
6C
6C
6C
D8
D8
ENDCHAR
STARTCHAR uni203B
ENCODING 8251
SWIDTH 1153 0
DWIDTH 15 0
BBX 13 13 1 0
BITMAP
0300
6730
7670
78E0
1DC0
DFB0
EF38
6FB8
1DC0
38E0
7B70
7730
0700
ENDCHAR
STARTCHAR uni2103
ENCODING 8451
SWIDTH 1153 0
DWIDTH 15 0
BBX 13 13 1 0
BITMAP
7000
F800
D9F0
FBF8
7718
0E00
0C00
0C00
0C00
0C18
0E38
07F0
03E0
ENDCHAR
STARTCHAR uni2109
ENCODING 8457
SWIDTH 1153 0
DWIDTH 15 0
BBX 13 13 1 0
BITMAP
7000
F800
D9F8
FBF8
7300
0300
03E0
07E0
0600
0600
0600
0600
0600
ENDCHAR
STARTCHAR uni2121
ENCODING 8481
SWIDTH 1153 0
DWIDTH 15 0
BBX 13 13 1 0
BITMAP
3C00
FC00
F000
3360
3760
3660
3660
3760
3760
3660
3660
3778
3738
ENDCHAR
STARTCHAR trademark
ENCODING 8482
SWIDTH 1153 0
DWIDTH 15 0
BBX 13 7 1 6
BITMAP
3DB0
FDF0
F1F0
3378
3318
3318
3318
ENDCHAR
STARTCHAR uni212B
ENCODING 8491
SWIDTH 1153 0
DWIDTH 15 0
BBX 10 13 3 0
BITMAP
0C00
1200
1200
0C00
0C00
1E00
1E00
3300
3300
7F80
7F80
E1C0
C0C0
ENDCHAR
STARTCHAR arrowleft
ENCODING 8592
SWIDTH 1153 0
DWIDTH 15 0
BBX 13 10 1 2
BITMAP
0C00
1C00
3800
7000
FFC0
FFF8
7078
3800
1C00
0C00
ENDCHAR
STARTCHAR arrowup
ENCODING 8593
SWIDTH 1153 0
DWIDTH 15 0
BBX 10 13 3 0
BITMAP
0C00
1E00
3F00
7F80
ED80
CDC0
0CC0
0C00
0C00
0C00
0C00
0C00
0C00
ENDCHAR
STARTCHAR arrowright
ENCODING 8594
SWIDTH 1153 0
DWIDTH 15 0
BBX 13 10 1 1
BITMAP
0180
01C0
00E0
E070
FFF8
3FF8
0070
00E0
01C0
0180
ENDCHAR
STARTCHAR arrowdown
ENCODING 8595
SWIDTH 1153 0
DWIDTH 15 0
BBX 11 13 2 0
BITMAP
0600
0600
0600
0600
0600
0600
0600
C660
E660
76E0
3FC0
1F80
0700
ENDCHAR
STARTCHAR arrowdblleft
ENCODING 8656
SWIDTH 1153 0
DWIDTH 15 0
BBX 13 11 1 1
BITMAP
0C00
0C00
1800
3FF8
FFF8
E000
7FF8
3FF8
1800
0C00
0C00
ENDCHAR
STARTCHAR arrowdblright
ENCODING 8658
SWIDTH 1153 0
DWIDTH 15 0
BBX 13 11 1 1
BITMAP
0180
0180
00C0
FFE0
FFF8
0038
FFF0
FFE0
00C0
0180
0180
ENDCHAR
STARTCHAR arrowdblboth
ENCODING 8660
SWIDTH 1153 0
DWIDTH 15 0
BBX 13 11 1 1
BITMAP
18C0
38E0
3060
7FF0
FFF8
C018
FFF8
7FF0
3060
18C0
18C0
ENDCHAR
STARTCHAR universal
ENCODING 8704
SWIDTH 1153 0
DWIDTH 15 0
BBX 13 13 1 0
BITMAP
C018
C018
E038
6030
7FF0
3FE0
38E0
18C0
1DC0
0D80
0F80
0700
0700
ENDCHAR
STARTCHAR partialdiff
ENCODING 8706
SWIDTH 1153 0
DWIDTH 15 0
BBX 10 13 3 0
BITMAP
1F00
3F80
31C0
00C0
00C0
3EC0
7FC0
E3C0
C180
C180
E380
7F00
3E00
ENDCHAR
STARTCHAR existential
ENCODING 8707
SWIDTH 1153 0
DWIDTH 15 0
BBX 11 13 2 0
BITMAP
FFE0
FFE0
0060
0060
0060
FFE0
FFE0
0060
0060
0060
0060
FFE0
FFC0
ENDCHAR
STARTCHAR emptyset
ENCODING 8709
SWIDTH 1153 0
DWIDTH 15 0
BBX 13 13 1 0
BITMAP
0F98
3FF8
7870
60F0
E1D8
C398
C718
CE18
DC18
7838
7070
FFE0
CF80
ENDCHAR
STARTCHAR Delta
ENCODING 8710
SWIDTH 1153 0
DWIDTH 15 0
BBX 11 13 2 0
BITMAP
0E00
0E00
1F00
1B00
1B80
3380
3180
61C0
61C0
60C0
C0E0
FFE0
FFE0
ENDCHAR
STARTCHAR gradient
ENCODING 8711
SWIDTH 1153 0
DWIDTH 15 0
BBX 11 13 2 0
BITMAP
FFE0
FFE0
E060
60C0
70C0
70C0
3180
3980
3B00
1B00
1F00
0E00
0E00
ENDCHAR
STARTCHAR element
ENCODING 8712
SWIDTH 1153 0
DWIDTH 15 0
BBX 11 10 2 2
BITMAP
3FE0
7FE0
E000
C000
FFE0
FFE0
C000
E000
7FE0
3FE0
ENDCHAR
STARTCHAR notelement
ENCODING 8713
SWIDTH 1153 0
DWIDTH 15 0
BBX 11 13 1 0
BITMAP
0180
3FE0
7FE0
E300
C600
FFE0
FFE0
C600
EC00
7FE0
3FE0
1800
1800
ENDCHAR
STARTCHAR suchthat
ENCODING 8715
SWIDTH 1153 0
DWIDTH 15 0
BBX 11 10 2 2
BITMAP
FF80
FFC0
00E0
0060
FFE0
FFE0
0060
00E0
FFC0
FF80
ENDCHAR
STARTCHAR uni220C
ENCODING 8716
SWIDTH 1153 0
DWIDTH 15 0
BBX 11 13 2 0
BITMAP
0300
FF80
FFC0
06E0
0C60
FFE0
FFE0
0C60
18E0
FFC0
FF80
3000
3000
ENDCHAR
STARTCHAR radical
ENCODING 8730
SWIDTH 1153 0
DWIDTH 15 0
BBX 13 13 1 0
BITMAP
07F8
07F8
0600
0600
0C00
0C00
6C00
6C00
7C00
F800
D800
D800
1800
ENDCHAR
STARTCHAR uni221B
ENCODING 8731
SWIDTH 1153 0
DWIDTH 15 0
BBX 13 13 1 0
BITMAP
E7F8
37F8
6600
3600
EC00
0C00
6C00
6C00
7C00
F800
D800
D800
1800
ENDCHAR
STARTCHAR uni221C
ENCODING 8732
SWIDTH 1153 0
DWIDTH 15 0
BBX 13 13 1 0
BITMAP
57F8
D7F8
F600
2600
2C00
0C00
6C00
6C00
7C00
F800
D800
D800
1800
ENDCHAR
STARTCHAR proportional
ENCODING 8733
SWIDTH 1153 0
DWIDTH 15 0
BBX 12 7 1 3
BITMAP
38E0
7DF0
CF00
8700
C780
7DF0
38E0
ENDCHAR
STARTCHAR infinity
ENCODING 8734
SWIDTH 1153 0
DWIDTH 15 0
BBX 13 7 1 3
BITMAP
38E0
7DF0
CF18
8708
C798
7DF0
38E0
ENDCHAR
STARTCHAR angle
ENCODING 8736
SWIDTH 1153 0
DWIDTH 15 0
BBX 11 11 2 1
BITMAP
0060
00E0
01C0
0380
0700
0E00
1C00
3800
7000
FFE0
FFE0
ENDCHAR
STARTCHAR uni2225
ENCODING 8741
SWIDTH 1153 0
DWIDTH 15 0
BBX 13 13 1 0
BITMAP
0060
00E0
01D8
03B8
0770
0EE0
1DC0
3B80
7700
EE00
DC00
3800
3000
ENDCHAR
STARTCHAR uni2226
ENCODING 8742
SWIDTH 1153 0
DWIDTH 15 0
BBX 13 13 1 0
BITMAP
0060
00E0
31D8
3BB8
1F70
0EE0
1FC0
3B80
77C0
EEE0
DC60
3800
3000
ENDCHAR
STARTCHAR logicaland
ENCODING 8743
SWIDTH 1153 0
DWIDTH 15 0
BBX 11 11 2 1
BITMAP
0E00
0E00
1F00
1B00
3B80
3180
71C0
60C0
E0E0
C060
C060
ENDCHAR
STARTCHAR logicalor
ENCODING 8744
SWIDTH 1153 0
DWIDTH 15 0
BBX 11 11 2 1
BITMAP
C060
C060
E0E0
60C0
71C0
3180
3B80
1B00
1F00
0E00
0E00
ENDCHAR
STARTCHAR intersection
ENCODING 8745
SWIDTH 1153 0
DWIDTH 15 0
BBX 11 11 2 1
BITMAP
1F00
3F80
71C0
60C0
E0E0
C060
C060
C060
C060
C060
C060
ENDCHAR
STARTCHAR union
ENCODING 8746
SWIDTH 1153 0
DWIDTH 15 0
BBX 11 11 2 1
BITMAP
C060
C060
C060
C060
C060
C060
E0E0
60C0
71C0
3F80
1F00
ENDCHAR
STARTCHAR integral
ENCODING 8747
SWIDTH 1153 0
DWIDTH 15 0
BBX 5 13 5 0
BITMAP
38
78
60
60
60
60
70
30
30
30
30
F0
E0
ENDCHAR
STARTCHAR uni222C
ENCODING 8748
SWIDTH 1153 0
DWIDTH 15 0
BBX 9 13 3 0
BITMAP
3B80
7F80
6600
6600
6600
6600
7700
3300
3300
3300
3300
FF00
EE00
ENDCHAR
STARTCHAR uni222D
ENCODING 8749
SWIDTH 1153 0
DWIDTH 15 0
BBX 13 13 1 0
BITMAP
3BB8
7FF8
6660
6660
6660
6660
7670
3330
3330
3330
3330
FFE0
EEE0
ENDCHAR
STARTCHAR uni222E
ENCODING 8750
SWIDTH 1153 0
DWIDTH 15 0
BBX 7 13 4 0
BITMAP
1C
3C
30
38
74
B2
BA
9A
5C
38
18
78
70
ENDCHAR
STARTCHAR uni222F
ENCODING 8751
SWIDTH 1153 0
DWIDTH 15 0
BBX 11 13 2 0
BITMAP
1DC0
3FC0
3300
3F80
7340
B320
BBA0
99A0
59C0
3F80
1980
7F80
7700
ENDCHAR
STARTCHAR uni2230
ENCODING 8752
SWIDTH 1153 0
DWIDTH 15 0
BBX 13 13 1 0
BITMAP
3BB8
7FF8
6660
7FE0
6670
A668
B668
B328
7330
3FF0
3330
FFE0
EEE0
ENDCHAR
STARTCHAR therefore
ENCODING 8756
SWIDTH 1153 0
DWIDTH 15 0
BBX 13 13 1 0
BITMAP
0300
0700
0700
0000
0000
0000
0000
0000
0000
0000
6018
E038
E038
ENDCHAR
STARTCHAR uni2235
ENCODING 8757
SWIDTH 1153 0
DWIDTH 15 0
BBX 13 13 1 0
BITMAP
6038
E038
E030
0000
0000
0000
0000
0000
0000
0000
0300
0700
0700
ENDCHAR
STARTCHAR uni223D
ENCODING 8765
SWIDTH 1153 0
DWIDTH 15 0
BBX 13 7 1 3
BITMAP
30E0
71F0
C318
C718
C618
7C70
3860
ENDCHAR
STARTCHAR uni2252
ENCODING 8786
SWIDTH 1153 0
DWIDTH 15 0
BBX 11 12 2 1
BITMAP
3000
3000
0000
FFE0
FFE0
0000
0000
FFE0
FFE0
0000
0180
0180
ENDCHAR
STARTCHAR notequal
ENCODING 8800
SWIDTH 1153 0
DWIDTH 15 0
BBX 11 12 2 1
BITMAP
00C0
01C0
0380
FFE0
FFE0
0600
0C00
FFE0
FFE0
3800
7000
6000
ENDCHAR
STARTCHAR equivalence
ENCODING 8801
SWIDTH 1153 0
DWIDTH 15 0
BBX 11 10 2 2
BITMAP
FFE0
FFE0
0000
0000
FFE0
FFE0
0000
0000
FFE0
FFE0
ENDCHAR
STARTCHAR uni2262
ENCODING 8802
SWIDTH 1153 0
DWIDTH 15 0
BBX 11 12 2 1
BITMAP
00C0
FFE0
FFE0
0380
0700
FFE0
FFE0
1C00
3800
FFE0
FFE0
6000
ENDCHAR
STARTCHAR uni2266
ENCODING 8806
SWIDTH 1153 0
DWIDTH 15 0
BBX 11 13 2 0
BITMAP
01E0
1FE0
FE00
F000
FE00
1FE0
01E0
0000
FFE0
FFE0
0000
FFE0
FFE0
ENDCHAR
STARTCHAR uni2267
ENCODING 8807
SWIDTH 1153 0
DWIDTH 15 0
BBX 11 13 2 0
BITMAP
F000
FF00
0FE0
01E0
0FE0
FF00
F000
0000
FFE0
FFE0
0000
FFE0
FFE0
ENDCHAR
STARTCHAR uni226A
ENCODING 8810
SWIDTH 1153 0
DWIDTH 15 0
BBX 11 13 2 0
BITMAP
0660
0EE0
1DC0
3B80
7700
EE00
DC00
EE00
7700
3B80
1DC0
0EE0
0660
ENDCHAR
STARTCHAR uni226B
ENCODING 8811
SWIDTH 1153 0
DWIDTH 15 0
BBX 11 13 2 0
BITMAP
CC00
EE00
7700
3B80
1DC0
0EE0
0760
0EE0
1DC0
3B80
7700
EE00
CC00
ENDCHAR
STARTCHAR propersubset
ENCODING 8834
SWIDTH 1153 0
DWIDTH 15 0
BBX 11 11 2 1
BITMAP
0FE0
3FE0
7800
E000
C000
C000
C000
E000
7800
3FE0
0FE0
ENDCHAR
STARTCHAR propersuperset
ENCODING 8835
SWIDTH 1153 0
DWIDTH 15 0
BBX 11 11 2 1
BITMAP
FE00
FF80
03C0
00E0
0060
0060
0060
00E0
03C0
FF80
FE00
ENDCHAR
STARTCHAR notsubset
ENCODING 8836
SWIDTH 1153 0
DWIDTH 15 0
BBX 11 13 2 0
BITMAP
0180
0FE0
3FE0
7B00
E300
C600
C600
CC00
EC00
7800
1FE0
3FE0
3000
ENDCHAR
STARTCHAR uni2285
ENCODING 8837
SWIDTH 1153 0
DWIDTH 15 0
BBX 11 13 2 0
BITMAP
0180
FF80
FF00
03C0
06E0
0660
0C60
0C60
18E0
1BC0
FF80
FE00
3000
ENDCHAR
STARTCHAR reflexsubset
ENCODING 8838
SWIDTH 1153 0
DWIDTH 15 0
BBX 11 11 2 1
BITMAP
1FE0
7FE0
F000
C000
C000
F000
7FE0
1FE0
0000
FFE0
FFE0
ENDCHAR
STARTCHAR reflexsuperset
ENCODING 8839
SWIDTH 1153 0
DWIDTH 15 0
BBX 11 11 2 1
BITMAP
FF00
FFC0
01E0
0060
0060
01E0
FFC0
FF00
0000
FFE0
FFE0
ENDCHAR
STARTCHAR uni2288
ENCODING 8840
SWIDTH 1153 0
DWIDTH 15 0
BBX 11 13 2 0
BITMAP
0180
1FE0
7FE0
F300
C300
E600
FE00
7FE0
1FE0
1800
FFE0
FFE0
3000
ENDCHAR
STARTCHAR uni2289
ENCODING 8841
SWIDTH 1153 0
DWIDTH 15 0
BBX 11 13 2 0
BITMAP
0180
FF80
FFC0
03E0
0660
0660
0DE0
FFC0
FF00
1800
FFE0
FFE0
3000
ENDCHAR
STARTCHAR perpendicular
ENCODING 8869
SWIDTH 1153 0
DWIDTH 15 0
BBX 12 11 2 1
BITMAP
0600
0600
0600
0600
0600
0600
0600
0600
0600
FFF0
FFF0
ENDCHAR
STARTCHAR uni22EE
ENCODING 8942
SWIDTH 1153 0
DWIDTH 15 0
BBX 3 13 6 0
BITMAP
60
E0
E0
00
00
E0
E0
C0
00
00
E0
E0
C0
ENDCHAR
STARTCHAR uni22EF
ENCODING 8943
SWIDTH 1153 0
DWIDTH 15 0
BBX 13 3 1 5
BITMAP
6738
E738
E630
ENDCHAR
STARTCHAR uni2312
ENCODING 8978
SWIDTH 1153 0
DWIDTH 15 0
BBX 13 4 1 9
BITMAP
1FC0
7FF0
F078
C018
ENDCHAR
STARTCHAR uni2460
ENCODING 9312
SWIDTH 1153 0
DWIDTH 15 0
BBX 13 13 1 0
BITMAP
0F80
3FE0
70F0
6330
C738
C718
C318
C318
C798
6798
7030
3FF0
0FC0
ENDCHAR
STARTCHAR uni2461
ENCODING 9313
SWIDTH 1153 0
DWIDTH 15 0
BBX 13 13 1 0
BITMAP
0F80
3FE0
70F0
6730
CFB8
CD98
C318
C618
CF98
6F98
7030
3FF0
0FC0
ENDCHAR
STARTCHAR uni2462
ENCODING 9314
SWIDTH 1153 0
DWIDTH 15 0
BBX 13 13 1 0
BITMAP
0F80
3FE0
70F0
6730
CFB8
C198
C318
C198
CF98
6718
7030
3FF0
0FC0
ENDCHAR
STARTCHAR uni2463
ENCODING 9315
SWIDTH 1153 0
DWIDTH 15 0
BBX 13 13 1 0
BITMAP
0F80
3FE0
7070
65B0
CDB8
CD98
CF98
CF18
C318
6318
7030
3FF0
0FC0
ENDCHAR
STARTCHAR uni2464
ENCODING 9316
SWIDTH 1153 0
DWIDTH 15 0
BBX 13 13 1 0
BITMAP
0F80
3FE0
7070
67B0
C7B8
C618
C798
C198
CF98
6718
7030
3FF0
0FC0
ENDCHAR
STARTCHAR uni2465
ENCODING 9317
SWIDTH 1153 0
DWIDTH 15 0
BBX 13 13 1 0
BITMAP
0F80
3FE0
70F0
6330
C738
CC18
CF18
CD98
CF98
6718
7030
3FF0
0FC0
ENDCHAR
STARTCHAR uni2466
ENCODING 9318
SWIDTH 1153 0
DWIDTH 15 0
BBX 13 13 1 0
BITMAP
0F80
3FE0
7070
6FB0
CFB8
C198
C798
C318
C318
6318
7030
3FF0
0FC0
ENDCHAR
STARTCHAR uni2467
ENCODING 9319
SWIDTH 1153 0
DWIDTH 15 0
BBX 13 13 1 0
BITMAP
0F80
3FE0
70F0
6730
CDB8
CD98
C718
CD98
CD98
6718
7030
3FF0
0FC0
ENDCHAR
STARTCHAR uni2468
ENCODING 9320
SWIDTH 1153 0
DWIDTH 15 0
BBX 13 13 1 0
BITMAP
0F80
3FE0
70F0
6730
CFB8
CD98
C798
C198
C318
6318
7030
3FF0
0FC0
ENDCHAR
STARTCHAR SF100000
ENCODING 9472
SWIDTH 1153 0
DWIDTH 15 0
BBX 15 1 0 6
BITMAP
FFFE
ENDCHAR
STARTCHAR SF110000
ENCODING 9474
SWIDTH 1153 0
DWIDTH 15 0
BBX 1 19 7 -3
BITMAP
80
80
80
80
80
80
80
80
80
80
80
80
80
80
80
80
80
80
80
ENDCHAR
STARTCHAR SF010000
ENCODING 9484
SWIDTH 1153 0
DWIDTH 15 0
BBX 8 10 7 -3
BITMAP
FF
80
80
80
80
80
80
80
80
80
ENDCHAR
STARTCHAR SF030000
ENCODING 9488
SWIDTH 1153 0
DWIDTH 15 0
BBX 8 10 0 -3
BITMAP
FF
01
01
01
01
01
01
01
01
01
ENDCHAR
STARTCHAR SF020000
ENCODING 9492
SWIDTH 1153 0
DWIDTH 15 0
BBX 8 10 7 6
BITMAP
80
80
80
80
80
80
80
80
80
FF
ENDCHAR
STARTCHAR SF040000
ENCODING 9496
SWIDTH 1153 0
DWIDTH 15 0
BBX 8 10 0 6
BITMAP
01
01
01
01
01
01
01
01
01
FF
ENDCHAR
STARTCHAR SF080000
ENCODING 9500
SWIDTH 1153 0
DWIDTH 15 0
BBX 8 19 7 -3
BITMAP
80
80
80
80
80
80
80
80
80
FF
80
80
80
80
80
80
80
80
80
ENDCHAR
STARTCHAR SF090000
ENCODING 9508
SWIDTH 1153 0
DWIDTH 15 0
BBX 8 19 0 -3
BITMAP
01
01
01
01
01
01
01
01
01
FF
01
01
01
01
01
01
01
01
01
ENDCHAR
STARTCHAR SF060000
ENCODING 9516
SWIDTH 1153 0
DWIDTH 15 0
BBX 15 10 0 -3
BITMAP
FFFE
0100
0100
0100
0100
0100
0100
0100
0100
0100
ENDCHAR
STARTCHAR SF070000
ENCODING 9524
SWIDTH 1153 0
DWIDTH 15 0
BBX 15 10 0 6
BITMAP
0100
0100
0100
0100
0100
0100
0100
0100
0100
FFFE
ENDCHAR
STARTCHAR SF050000
ENCODING 9532
SWIDTH 1153 0
DWIDTH 15 0
BBX 15 19 0 -3
BITMAP
0100
0100
0100
0100
0100
0100
0100
0100
0100
FFFE
0100
0100
0100
0100
0100
0100
0100
0100
0100
ENDCHAR
STARTCHAR upblock
ENCODING 9600
SWIDTH 1153 0
DWIDTH 15 0
BBX 15 9 0 7
BITMAP
FFFE
FFFE
FFFE
FFFE
FFFE
FFFE
FFFE
FFFE
FFFE
ENDCHAR
STARTCHAR uni2581
ENCODING 9601
SWIDTH 1153 0
DWIDTH 15 0
BBX 15 2 0 -3
BITMAP
FFFE
FFFE
ENDCHAR
STARTCHAR uni2582
ENCODING 9602
SWIDTH 1153 0
DWIDTH 15 0
BBX 15 5 0 -3
BITMAP
FFFE
FFFE
FFFE
FFFE
FFFE
ENDCHAR
STARTCHAR uni2583
ENCODING 9603
SWIDTH 1153 0
DWIDTH 15 0
BBX 15 7 0 -3
BITMAP
FFFE
FFFE
FFFE
FFFE
FFFE
FFFE
FFFE
ENDCHAR
STARTCHAR dnblock
ENCODING 9604
SWIDTH 1153 0
DWIDTH 15 0
BBX 15 10 0 -3
BITMAP
FFFE
FFFE
FFFE
FFFE
FFFE
FFFE
FFFE
FFFE
FFFE
FFFE
ENDCHAR
STARTCHAR uni2585
ENCODING 9605
SWIDTH 1153 0
DWIDTH 15 0
BBX 15 12 0 -3
BITMAP
FFFE
FFFE
FFFE
FFFE
FFFE
FFFE
FFFE
FFFE
FFFE
FFFE
FFFE
FFFE
ENDCHAR
STARTCHAR uni2586
ENCODING 9606
SWIDTH 1153 0
DWIDTH 15 0
BBX 15 14 0 -3
BITMAP
FFFE
FFFE
FFFE
FFFE
FFFE
FFFE
FFFE
FFFE
FFFE
FFFE
FFFE
FFFE
FFFE
FFFE
ENDCHAR
STARTCHAR uni2587
ENCODING 9607
SWIDTH 1153 0
DWIDTH 15 0
BBX 15 16 0 -3
BITMAP
FFFE
FFFE
FFFE
FFFE
FFFE
FFFE
FFFE
FFFE
FFFE
FFFE
FFFE
FFFE
FFFE
FFFE
FFFE
FFFE
ENDCHAR
STARTCHAR block
ENCODING 9608
SWIDTH 1153 0
DWIDTH 15 0
BBX 15 19 0 -3
BITMAP
FFFE
FFFE
FFFE
FFFE
FFFE
FFFE
FFFE
FFFE
FFFE
FFFE
FFFE
FFFE
FFFE
FFFE
FFFE
FFFE
FFFE
FFFE
FFFE
ENDCHAR
STARTCHAR uni2589
ENCODING 9609
SWIDTH 1153 0
DWIDTH 15 0
BBX 13 19 0 -3
BITMAP
FFF8
FFF8
FFF8
FFF8
FFF8
FFF8
FFF8
FFF8
FFF8
FFF8
FFF8
FFF8
FFF8
FFF8
FFF8
FFF8
FFF8
FFF8
FFF8
ENDCHAR
STARTCHAR uni258A
ENCODING 9610
SWIDTH 1153 0
DWIDTH 15 0
BBX 11 19 0 -3
BITMAP
FFE0
FFE0
FFE0
FFE0
FFE0
FFE0
FFE0
FFE0
FFE0
FFE0
FFE0
FFE0
FFE0
FFE0
FFE0
FFE0
FFE0
FFE0
FFE0
ENDCHAR
STARTCHAR uni258B
ENCODING 9611
SWIDTH 1153 0
DWIDTH 15 0
BBX 9 19 0 -3
BITMAP
FF80
FF80
FF80
FF80
FF80
FF80
FF80
FF80
FF80
FF80
FF80
FF80
FF80
FF80
FF80
FF80
FF80
FF80
FF80
ENDCHAR
STARTCHAR lfblock
ENCODING 9612
SWIDTH 1153 0
DWIDTH 15 0
BBX 8 19 0 -3
BITMAP
FF
FF
FF
FF
FF
FF
FF
FF
FF
FF
FF
FF
FF
FF
FF
FF
FF
FF
FF
ENDCHAR
STARTCHAR uni258D
ENCODING 9613
SWIDTH 1153 0
DWIDTH 15 0
BBX 6 19 0 -3
BITMAP
FC
FC
FC
FC
FC
FC
FC
FC
FC
FC
FC
FC
FC
FC
FC
FC
FC
FC
FC
ENDCHAR
STARTCHAR uni258E
ENCODING 9614
SWIDTH 1153 0
DWIDTH 15 0
BBX 4 19 0 -3
BITMAP
F0
F0
F0
F0
F0
F0
F0
F0
F0
F0
F0
F0
F0
F0
F0
F0
F0
F0
F0
ENDCHAR
STARTCHAR uni258F
ENCODING 9615
SWIDTH 1153 0
DWIDTH 15 0
BBX 2 19 0 -3
BITMAP
C0
C0
C0
C0
C0
C0
C0
C0
C0
C0
C0
C0
C0
C0
C0
C0
C0
C0
C0
ENDCHAR
STARTCHAR rtblock
ENCODING 9616
SWIDTH 1153 0
DWIDTH 15 0
BBX 7 19 8 -3
BITMAP
FE
FE
FE
FE
FE
FE
FE
FE
FE
FE
FE
FE
FE
FE
FE
FE
FE
FE
FE
ENDCHAR
STARTCHAR ltshade
ENCODING 9617
SWIDTH 1153 0
DWIDTH 15 0
BBX 15 19 0 -3
BITMAP
AAAA
0000
AAAA
0000
AAAA
0000
AAAA
0000
AAAA
0000
AAAA
0000
AAAA
0000
AAAA
0000
AAAA
0000
AAAA
ENDCHAR
STARTCHAR shade
ENCODING 9618
SWIDTH 1153 0
DWIDTH 15 0
BBX 15 19 0 -3
BITMAP
AAAA
5554
AAAA
5554
AAAA
5554
AAAA
5554
AAAA
5554
AAAA
5554
AAAA
5554
AAAA
5554
AAAA
5554
AAAA
ENDCHAR
STARTCHAR dkshade
ENCODING 9619
SWIDTH 1153 0
DWIDTH 15 0
BBX 15 19 0 -3
BITMAP
FFFE
AAAA
FFFE
AAAA
FFFE
AAAA
FFFE
AAAA
FFFE
AAAA
FFFE
AAAA
FFFE
AAAA
FFFE
AAAA
FFFE
AAAA
FFFE
ENDCHAR
STARTCHAR uni2594
ENCODING 9620
SWIDTH 1153 0
DWIDTH 15 0
BBX 15 3 0 13
BITMAP
FFFE
FFFE
FFFE
ENDCHAR
STARTCHAR uni2595
ENCODING 9621
SWIDTH 1153 0
DWIDTH 15 0
BBX 2 19 13 -3
BITMAP
C0
C0
C0
C0
C0
C0
C0
C0
C0
C0
C0
C0
C0
C0
C0
C0
C0
C0
C0
ENDCHAR
STARTCHAR uni2596
ENCODING 9622
SWIDTH 1153 0
DWIDTH 15 0
BBX 8 10 0 -3
BITMAP
FF
FF
FF
FF
FF
FF
FF
FF
FF
FF
ENDCHAR
STARTCHAR uni2597
ENCODING 9623
SWIDTH 1153 0
DWIDTH 15 0
BBX 7 10 8 -3
BITMAP
FE
FE
FE
FE
FE
FE
FE
FE
FE
FE
ENDCHAR
STARTCHAR uni2598
ENCODING 9624
SWIDTH 1153 0
DWIDTH 15 0
BBX 8 9 0 7
BITMAP
FF
FF
FF
FF
FF
FF
FF
FF
FF
ENDCHAR
STARTCHAR uni2599
ENCODING 9625
SWIDTH 1153 0
DWIDTH 15 0
BBX 15 19 0 -3
BITMAP
FF00
FF00
FF00
FF00
FF00
FF00
FF00
FF00
FF00
FFFE
FFFE
FFFE
FFFE
FFFE
FFFE
FFFE
FFFE
FFFE
FFFE
ENDCHAR
STARTCHAR uni259A
ENCODING 9626
SWIDTH 1153 0
DWIDTH 15 0
BBX 15 19 0 -3
BITMAP
FF00
FF00
FF00
FF00
FF00
FF00
FF00
FF00
FF00
00FE
00FE
00FE
00FE
00FE
00FE
00FE
00FE
00FE
00FE
ENDCHAR
STARTCHAR uni259B
ENCODING 9627
SWIDTH 1153 0
DWIDTH 15 0
BBX 15 19 0 -3
BITMAP
FFFE
FFFE
FFFE
FFFE
FFFE
FFFE
FFFE
FFFE
FFFE
FF00
FF00
FF00
FF00
FF00
FF00
FF00
FF00
FF00
FF00
ENDCHAR
STARTCHAR uni259C
ENCODING 9628
SWIDTH 1153 0
DWIDTH 15 0
BBX 15 19 0 -3
BITMAP
FFFE
FFFE
FFFE
FFFE
FFFE
FFFE
FFFE
FFFE
FFFE
00FE
00FE
00FE
00FE
00FE
00FE
00FE
00FE
00FE
00FE
ENDCHAR
STARTCHAR uni259D
ENCODING 9629
SWIDTH 1153 0
DWIDTH 15 0
BBX 7 9 8 7
BITMAP
FE
FE
FE
FE
FE
FE
FE
FE
FE
ENDCHAR
STARTCHAR uni259E
ENCODING 9630
SWIDTH 1153 0
DWIDTH 15 0
BBX 15 19 0 -3
BITMAP
00FE
00FE
00FE
00FE
00FE
00FE
00FE
00FE
00FE
FF00
FF00
FF00
FF00
FF00
FF00
FF00
FF00
FF00
FF00
ENDCHAR
STARTCHAR uni259F
ENCODING 9631
SWIDTH 1153 0
DWIDTH 15 0
BBX 15 19 0 -3
BITMAP
00FE
00FE
00FE
00FE
00FE
00FE
00FE
00FE
00FE
FFFE
FFFE
FFFE
FFFE
FFFE
FFFE
FFFE
FFFE
FFFE
FFFE
ENDCHAR
STARTCHAR filledbox
ENCODING 9632
SWIDTH 1153 0
DWIDTH 15 0
BBX 13 13 1 0
BITMAP
3FF0
7FF8
FFF8
FFF8
FFF8
FFF8
FFF8
FFF8
FFF8
FFF8
FFF8
FFF0
7FF0
ENDCHAR
STARTCHAR H22073
ENCODING 9633
SWIDTH 1153 0
DWIDTH 15 0
BBX 13 13 1 0
BITMAP
7FF0
FFF8
C018
C018
C018
C018
C018
C018
C018
C018
6018
7FF8
3FF0
ENDCHAR
STARTCHAR uni25A2
ENCODING 9634
SWIDTH 1153 0
DWIDTH 15 0
BBX 13 13 1 0
BITMAP
1FE0
7FF0
F038
C018
C018
C018
C018
C018
C018
E018
6038
7FF0
3FE0
ENDCHAR
STARTCHAR triagup
ENCODING 9650
SWIDTH 1153 0
DWIDTH 15 0
BBX 13 13 1 0
BITMAP
0600
0600
0F00
1F00
1F80
3F80
3FC0
3FE0
7FE0
7FF0
FFF0
FFF8
FFF8
ENDCHAR
STARTCHAR uni25B3
ENCODING 9651
SWIDTH 1153 0
DWIDTH 15 0
BBX 13 13 1 0
BITMAP
0300
0780
0F80
1DC0
18C0
38E0
3060
7070
6030
E038
C018
FFF8
7FF0
ENDCHAR
STARTCHAR triagdn
ENCODING 9660
SWIDTH 1153 0
DWIDTH 15 0
BBX 13 13 1 0
BITMAP
FFF8
FFF8
7FF8
7FF0
3FF0
3FF0
1FE0
1FE0
0FC0
0FC0
0780
0780
0300
ENDCHAR
STARTCHAR uni25BD
ENCODING 9661
SWIDTH 1153 0
DWIDTH 15 0
BBX 13 13 1 0
BITMAP
7FF0
FFF8
C018
C018
E038
6030
7070
3060
38E0
18C0
1DC0
0F80
0700
ENDCHAR
STARTCHAR uni25C6
ENCODING 9670
SWIDTH 1153 0
DWIDTH 15 0
BBX 13 13 1 0
BITMAP
0700
0F80
1FC0
3FE0
7FF0
FFF8
FFF8
FFF8
7FF0
3FE0
1FC0
0F80
0300
ENDCHAR
STARTCHAR uni25C7
ENCODING 9671
SWIDTH 1153 0
DWIDTH 15 0
BBX 13 13 1 0
BITMAP
0700
0F80
1DC0
38E0
7070
E038
C018
E038
7070
38E0
1DC0
0F80
0700
ENDCHAR
STARTCHAR circle
ENCODING 9675
SWIDTH 1153 0
DWIDTH 15 0
BBX 13 13 1 0
BITMAP
0F80
3FE0
78F0
6038
E018
C018
C018
C018
C018
6038
7070
3FE0
1F80
ENDCHAR
STARTCHAR uni25CE
ENCODING 9678
SWIDTH 1153 0
DWIDTH 15 0
BBX 13 13 1 0
BITMAP
0FC0
3FE0
7870
E738
CF98
DDD8
D8D8
DDD8
CF98
C738
E070
7FE0
3FC0
ENDCHAR
STARTCHAR H18533
ENCODING 9679
SWIDTH 1153 0
DWIDTH 15 0
BBX 13 13 1 0
BITMAP
0F80
1FE0
3FE0
7FF0
7FF8
FFF8
FFF8
FFF8
FFF8
FFF0
7FE0
3FC0
0F00
ENDCHAR
STARTCHAR uni25EF
ENCODING 9711
SWIDTH 1153 0
DWIDTH 15 0
BBX 15 15 0 -1
BITMAP
07E0
1FF8
3C3C
700C
600E
E006
C006
C006
C006
C00E
E00C
601C
7878
3FF0
0FC0
ENDCHAR
STARTCHAR uni2605
ENCODING 9733
SWIDTH 1153 0
DWIDTH 15 0
BBX 13 13 1 0
BITMAP
0600
0600
0F00
0F00
FFF8
FFF8
7FF0
3FE0
1FC0
3FE0
3FF0
7CF8
7038
ENDCHAR
STARTCHAR uni2606
ENCODING 9734
SWIDTH 1153 0
DWIDTH 15 0
BBX 13 13 1 0
BITMAP
0600
0700
0F80
0DF8
7DF8
F830
E060
3060
1830
1B30
37B0
3EF0
3870
ENDCHAR
STARTCHAR female
ENCODING 9792
SWIDTH 1153 0
DWIDTH 15 0
BBX 8 13 4 0
BITMAP
3C
7E
E7
C3
C3
E7
7E
3C
18
FF
FF
18
18
ENDCHAR
STARTCHAR male
ENCODING 9794
SWIDTH 1153 0
DWIDTH 15 0
BBX 13 13 1 0
BITMAP
03F8
03F8
0078
00F8
01D8
3F98
7F18
E700
C300
C300
E700
7E00
3C00
ENDCHAR
STARTCHAR spade
ENCODING 9824
SWIDTH 1153 0
DWIDTH 15 0
BBX 13 13 1 0
BITMAP
0200
0700
0F80
1FC0
3FE0
7FF0
FFF8
FFF8
FAF8
7270
0700
0700
0F80
ENDCHAR
STARTCHAR uni2661
ENCODING 9825
SWIDTH 1153 0
DWIDTH 15 0
BBX 13 13 1 0
BITMAP
3DE0
7FF0
E738
C218
C018
C018
E038
7030
3870
1CE0
0DC0
0F80
0700
ENDCHAR
STARTCHAR uni2662
ENCODING 9826
SWIDTH 1153 0
DWIDTH 15 0
BBX 9 13 3 0
BITMAP
1C00
3E00
3600
6300
6300
C180
C180
C180
6300
6300
3600
3E00
1C00
ENDCHAR
STARTCHAR club
ENCODING 9827
SWIDTH 1153 0
DWIDTH 15 0
BBX 13 13 1 0
BITMAP
0700
0F80
1FC0
1FC0
0F80
7770
FFF8
FFF8
FFF8
7AF0
0200
0700
0F80
ENDCHAR
STARTCHAR uni2664
ENCODING 9828
SWIDTH 1153 0
DWIDTH 15 0
BBX 13 13 1 0
BITMAP
0700
0F80
1DC0
38E0
7070
E038
C018
C518
FDF8
7570
0D80
18C0
1FC0
ENDCHAR
STARTCHAR heart
ENCODING 9829
SWIDTH 1153 0
DWIDTH 15 0
BBX 13 13 1 0
BITMAP
38E0
7DF0
FFF8
FFF8
FFF8
FFF8
7FF0
7FF0
3FE0
1FC0
0F80
0700
0300
ENDCHAR
STARTCHAR diamond
ENCODING 9830
SWIDTH 1153 0
DWIDTH 15 0
BBX 9 13 3 0
BITMAP
1800
1C00
3E00
3E00
7F00
7F00
FF80
FF80
7F00
3F00
3E00
1E00
0C00
ENDCHAR
STARTCHAR uni2667
ENCODING 9831
SWIDTH 1153 0
DWIDTH 15 0
BBX 13 13 1 0
BITMAP
0F80
1FC0
18C0
78F0
F8F8
C518
C018
C518
FDF8
7570
18C0
1FC0
1FC0
ENDCHAR
STARTCHAR uni2668
ENCODING 9832
SWIDTH 1153 0
DWIDTH 15 0
BBX 13 13 1 0
BITMAP
0920
1B60
36C0
36C0
36C0
1B60
1B60
5B50
D6D8
C018
E038
7FF0
1FC0
ENDCHAR
STARTCHAR uni2669
ENCODING 9833
SWIDTH 1153 0
DWIDTH 15 0
BBX 7 13 4 0
BITMAP
06
06
06
06
06
06
06
06
3E
7E
FE
FC
78
ENDCHAR
STARTCHAR musicalnote
ENCODING 9834
SWIDTH 1153 0
DWIDTH 15 0
BBX 11 13 2 0
BITMAP
0600
0780
07C0
06E0
0660
0660
0660
0640
3E00
7E00
FE00
FC00
7800
ENDCHAR
STARTCHAR musicalnotedbl
ENCODING 9835
SWIDTH 1153 0
DWIDTH 15 0
BBX 13 13 1 0
BITMAP
00F8
0FF8
0F98
0C18
0C18
0C18
0C18
0C18
3C78
7CF8
FDF8
F9F0
70E0
ENDCHAR
STARTCHAR uni266C
ENCODING 9836
SWIDTH 1153 0
DWIDTH 15 0
BBX 13 13 1 0
BITMAP
0FF8
0FF8
0C18
0FF8
0FF8
0C18
0C18
0C18
3C78
7CF8
FDF8
F9F0
70E0
ENDCHAR
STARTCHAR uni266D
ENCODING 9837
SWIDTH 1153 0
DWIDTH 15 0
BBX 7 13 4 0
BITMAP
C0
C0
C0
C0
C0
DC
FE
E6
C6
CE
DC
F8
E0
ENDCHAR
STARTCHAR uni266E
ENCODING 9838
SWIDTH 1153 0
DWIDTH 15 0
BBX 5 13 5 0
BITMAP
C0
C0
D8
F8
F8
D8
D8
D8
F8
F8
D8
18
18
ENDCHAR
STARTCHAR uni266F
ENCODING 9839
SWIDTH 1153 0
DWIDTH 15 0
BBX 7 13 4 0
BITMAP
6C
6C
6E
7E
FC
EC
6C
6E
7E
FC
EC
6C
6C
ENDCHAR
STARTCHAR uni2776
ENCODING 10102
SWIDTH 1153 0
DWIDTH 15 0
BBX 13 13 1 0
BITMAP
0F80
1FE0
3CF0
78F0
78F8
FCF8
FCF8
FCF8
FCF8
7878
7870
3FF0
0FC0
ENDCHAR
STARTCHAR uni2777
ENCODING 10103
SWIDTH 1153 0
DWIDTH 15 0
BBX 13 13 1 0
BITMAP
0F80
3FE0
7070
6030
E738
FE38
FC78
F8F8
F1F8
6038
6030
3FF0
0FC0
ENDCHAR
STARTCHAR uni2778
ENCODING 10104
SWIDTH 1153 0
DWIDTH 15 0
BBX 13 13 1 0
BITMAP
0F80
3FE0
7070
6030
E738
FC78
FC38
FF38
E738
6038
7070
3FF0
0FC0
ENDCHAR
STARTCHAR uni2779
ENCODING 10105
SWIDTH 1153 0
DWIDTH 15 0
BBX 13 13 1 0
BITMAP
0F80
3FE0
7330
7330
F338
E338
E038
E078
FE78
7E78
7E70
3FF0
0FC0
ENDCHAR
STARTCHAR uni277A
ENCODING 10106
SWIDTH 1153 0
DWIDTH 15 0
BBX 13 13 1 0
BITMAP
0F80
3FE0
7030
7030
F3F8
F078
F838
FF38
E738
6038
7070
3FF0
0FC0
ENDCHAR
STARTCHAR uni277B
ENCODING 10107
SWIDTH 1153 0
DWIDTH 15 0
BBX 13 13 1 0
BITMAP
0F80
3CE0
78F0
71F0
F3F8
E078
E038
E338
E638
6078
70F0
3FF0
0FC0
ENDCHAR
STARTCHAR uni277C
ENCODING 10108
SWIDTH 1153 0
DWIDTH 15 0
BBX 13 13 1 0
BITMAP
0F80
3FE0
6030
6030
FF38
FE78
F078
FCF8
FCF8
78F8
79F0
39F0
0FC0
ENDCHAR
STARTCHAR uni277D
ENCODING 10109
SWIDTH 1153 0
DWIDTH 15 0
BBX 13 13 1 0
BITMAP
0F80
38E0
7070
7270
F278
F878
F038
F338
F338
7038
7870
3FF0
0FC0
ENDCHAR
STARTCHAR uni277E
ENCODING 10110
SWIDTH 1153 0
DWIDTH 15 0
BBX 13 13 1 0
BITMAP
0F80
3FE0
7870
7030
F338
F338
F038
F878
FE78
7C78
78F0
39F0
0FC0
ENDCHAR
STARTCHAR uni277F
ENCODING 10111
SWIDTH 1153 0
DWIDTH 15 0
BBX 13 13 1 0
BITMAP
0F80
3FE0
6630
4410
C598
E518
E458
E4D8
E498
C218
4230
7FF0
1FC0
ENDCHAR
STARTCHAR uni2780
ENCODING 10112
SWIDTH 1153 0
DWIDTH 15 0
BBX 13 13 1 0
BITMAP
0F80
3FE0
70F0
6330
C738
C718
C318
C318
C798
6798
7030
3FF0
0FC0
ENDCHAR
STARTCHAR uni2781
ENCODING 10113
SWIDTH 1153 0
DWIDTH 15 0
BBX 13 13 1 0
BITMAP
0F80
3FE0
70F0
6730
CFB8
CD98
C318
C618
CF98
6F98
7030
3FF0
0FC0
ENDCHAR
STARTCHAR uni2782
ENCODING 10114
SWIDTH 1153 0
DWIDTH 15 0
BBX 13 13 1 0
BITMAP
0F80
3FE0
70F0
6730
CFB8
C198
C318
C198
CF98
6718
7030
3FF0
0FC0
ENDCHAR
STARTCHAR uni2783
ENCODING 10115
SWIDTH 1153 0
DWIDTH 15 0
BBX 13 13 1 0
BITMAP
0F80
3FE0
7070
65B0
CDB8
CD98
CF98
CF18
C318
6318
7030
3FF0
0FC0
ENDCHAR
STARTCHAR uni2784
ENCODING 10116
SWIDTH 1153 0
DWIDTH 15 0
BBX 13 13 1 0
BITMAP
0F80
3FE0
7070
67B0
C7B8
C618
C798
C198
CF98
6718
7030
3FF0
0FC0
ENDCHAR
STARTCHAR uni2785
ENCODING 10117
SWIDTH 1153 0
DWIDTH 15 0
BBX 13 13 1 0
BITMAP
0F80
3FE0
70F0
6330
C738
CC18
CF18
CD98
CF98
6718
7030
3FF0
0FC0
ENDCHAR
STARTCHAR uni2786
ENCODING 10118
SWIDTH 1153 0
DWIDTH 15 0
BBX 13 13 1 0
BITMAP
0F80
3FE0
7070
6FB0
CFB8
C198
C798
C318
C318
6318
7030
3FF0
0FC0
ENDCHAR
STARTCHAR uni2787
ENCODING 10119
SWIDTH 1153 0
DWIDTH 15 0
BBX 13 13 1 0
BITMAP
0F80
3FE0
70F0
6730
CDB8
CD98
C718
CD98
CD98
6718
7030
3FF0
0FC0
ENDCHAR
STARTCHAR uni2788
ENCODING 10120
SWIDTH 1153 0
DWIDTH 15 0
BBX 13 13 1 0
BITMAP
0F80
3FE0
70F0
6730
CFB8
CD98
C798
C198
C318
6318
7030
3FF0
0FC0
ENDCHAR
STARTCHAR uni2789
ENCODING 10121
SWIDTH 1153 0
DWIDTH 15 0
BBX 13 13 1 0
BITMAP
0F80
3FE0
7070
69B0
DBD8
DA58
DA58
DA58
DBD8
6998
7030
3FF0
0FC0
ENDCHAR
STARTCHAR uni3000
ENCODING 12288
SWIDTH 1153 0
DWIDTH 15 0
BBX 1 1 0 0
BITMAP
00
ENDCHAR
STARTCHAR uni3001
ENCODING 12289
SWIDTH 1153 0
DWIDTH 15 0
BBX 5 4 1 0
BITMAP
E0
F0
38
18
ENDCHAR
STARTCHAR uni3002
ENCODING 12290
SWIDTH 1153 0
DWIDTH 15 0
BBX 5 5 1 0
BITMAP
70
F8
D8
F8
70
ENDCHAR
STARTCHAR uni3003
ENCODING 12291
SWIDTH 1153 0
DWIDTH 15 0
BBX 7 4 4 5
BITMAP
66
66
CC
CC
ENDCHAR
STARTCHAR uni3004
ENCODING 12292
SWIDTH 1153 0
DWIDTH 15 0
BBX 13 13 1 0
BITMAP
0E00
3E60
7070
6070
E378
C3F8
CFD8
DF18
DB18
6C30
7CF0
3BE0
0380
ENDCHAR
STARTCHAR uni3005
ENCODING 12293
SWIDTH 1153 0
DWIDTH 15 0
BBX 9 9 3 2
BITMAP
3000
3F00
3F80
7180
E380
DF00
1E00
0700
0300
ENDCHAR
STARTCHAR uni3006
ENCODING 12294
SWIDTH 1153 0
DWIDTH 15 0
BBX 13 13 1 0
BITMAP
0018
0018
0030
1C30
3E60
37C0
63C0
63C0
C7E0
CE70
DC30
F800
7000
ENDCHAR
STARTCHAR uni3007
ENCODING 12295
SWIDTH 1153 0
DWIDTH 15 0
BBX 13 13 1 0
BITMAP
0FC0
3FE0
70E0
6000
E010
C018
C018
C018
C018
E038
7870
3FF0
0FE0
ENDCHAR
STARTCHAR uni3008
ENCODING 12296
SWIDTH 1153 0
DWIDTH 15 0
BBX 5 15 9 -1
BITMAP
18
18
30
30
60
60
C0
C0
C0
60
60
30
30
18
18
ENDCHAR
STARTCHAR uni3009
ENCODING 12297
SWIDTH 1153 0
DWIDTH 15 0
BBX 5 15 1 -1
BITMAP
C0
C0
60
60
30
30
18
18
18
30
30
60
60
C0
C0
ENDCHAR
STARTCHAR uni300A
ENCODING 12298
SWIDTH 1153 0
DWIDTH 15 0
BBX 6 15 8 -1
BITMAP
14
14
24
28
48
50
90
A0
90
50
48
28
24
14
14
ENDCHAR
STARTCHAR uni300B
ENCODING 12299
SWIDTH 1153 0
DWIDTH 15 0
BBX 6 15 1 -1
BITMAP
A0
A0
90
50
48
28
24
14
24
28
48
50
90
A0
A0
ENDCHAR
STARTCHAR uni300C
ENCODING 12300
SWIDTH 1153 0
DWIDTH 15 0
BBX 6 10 8 4
BITMAP
7C
FC
C0
C0
C0
C0
C0
C0
C0
C0
ENDCHAR
STARTCHAR uni300D
ENCODING 12301
SWIDTH 1153 0
DWIDTH 15 0
BBX 6 10 1 -1
BITMAP
0C
0C
0C
0C
0C
0C
0C
1C
FC
F0
ENDCHAR
STARTCHAR uni300E
ENCODING 12302
SWIDTH 1153 0
DWIDTH 15 0
BBX 6 10 8 4
BITMAP
7C
84
BC
A0
A0
A0
A0
A0
A0
E0
ENDCHAR
STARTCHAR uni300F
ENCODING 12303
SWIDTH 1153 0
DWIDTH 15 0
BBX 7 10 1 -1
BITMAP
0E
0A
0A
0A
0A
0A
1A
F2
86
FC
ENDCHAR
STARTCHAR uni3010
ENCODING 12304
SWIDTH 1153 0
DWIDTH 15 0
BBX 6 15 8 -1
BITMAP
FC
F8
F0
E0
E0
C0
C0
C0
C0
C0
E0
E0
F0
FC
FC
ENDCHAR
STARTCHAR uni3011
ENCODING 12305
SWIDTH 1153 0
DWIDTH 15 0
BBX 6 15 1 -1
BITMAP
FC
7C
3C
3C
1C
1C
1C
1C
1C
1C
1C
3C
3C
7C
F8
ENDCHAR
STARTCHAR uni3012
ENCODING 12306
SWIDTH 1153 0
DWIDTH 15 0
BBX 12 13 2 0
BITMAP
FFF0
FFF0
0000
0000
FFF0
FFF0
0600
0600
0600
0600
0600
0600
0600
ENDCHAR
STARTCHAR uni3013
ENCODING 12307
SWIDTH 1153 0
DWIDTH 15 0
BBX 13 11 1 1
BITMAP
FFF8
FFF8
FFF8
FFF8
0000
0000
0000
FFF8
FFF8
FFF8
FFF8
ENDCHAR
STARTCHAR uni3014
ENCODING 12308
SWIDTH 1153 0
DWIDTH 15 0
BBX 5 15 9 -1
BITMAP
18
78
E0
C0
C0
C0
C0
C0
C0
C0
C0
C0
E0
78
18
ENDCHAR
STARTCHAR uni3015
ENCODING 12309
SWIDTH 1153 0
DWIDTH 15 0
BBX 5 15 1 -1
BITMAP
C0
F0
38
18
18
18
18
18
18
18
18
18
38
F0
C0
ENDCHAR
STARTCHAR uni3016
ENCODING 12310
SWIDTH 1153 0
DWIDTH 15 0
BBX 6 15 8 -1
BITMAP
FC
84
98
B0
A0
A0
A0
A0
A0
A0
B0
90
98
84
FC
ENDCHAR
STARTCHAR uni3017
ENCODING 12311
SWIDTH 1153 0
DWIDTH 15 0
BBX 6 15 1 -1
BITMAP
FC
84
64
34
14
14
14
14
14
14
14
34
64
84
FC
ENDCHAR
STARTCHAR uni3018
ENCODING 12312
SWIDTH 1153 0
DWIDTH 15 0
BBX 6 15 8 -1
BITMAP
1C
64
8C
B0
A0
A0
A0
A0
A0
A0
A0
B0
8C
64
1C
ENDCHAR
STARTCHAR uni3019
ENCODING 12313
SWIDTH 1153 0
DWIDTH 15 0
BBX 6 15 1 -1
BITMAP
E0
98
C4
34
14
14
14
14
14
14
14
34
C4
98
E0
ENDCHAR
STARTCHAR uni301A
ENCODING 12314
SWIDTH 1153 0
DWIDTH 15 0
BBX 6 15 8 -1
BITMAP
FC
90
90
90
90
90
90
90
90
90
90
90
90
90
FC
ENDCHAR
STARTCHAR uni301B
ENCODING 12315
SWIDTH 1153 0
DWIDTH 15 0
BBX 6 15 1 -1
BITMAP
FC
24
24
24
24
24
24
24
24
24
24
24
24
24
FC
ENDCHAR
STARTCHAR uni301C
ENCODING 12316
SWIDTH 1153 0
DWIDTH 15 0
BBX 13 5 1 5
BITMAP
3800
7E18
EF38
C3F0
00E0
ENDCHAR
STARTCHAR uni3020
ENCODING 12320
SWIDTH 1153 0
DWIDTH 15 0
BBX 13 11 1 1
BITMAP
3FE0
0000
3FE0
0200
5250
AAA8
9248
8888
6730
2020
1FC0
ENDCHAR
STARTCHAR uni3036
ENCODING 12342
SWIDTH 1153 0
DWIDTH 15 0
BBX 13 13 1 0
BITMAP
0F80
38E0
6030
4010
DFD8
8008
9FC8
8208
C218
4210
6230
38E0
0F80
ENDCHAR
STARTCHAR uni3041
ENCODING 12353
SWIDTH 1153 0
DWIDTH 15 0
BBX 11 11 2 0
BITMAP
1800
1E00
7E00
7880
1F80
7FC0
F2E0
DA60
CE60
FCE0
74C0
ENDCHAR
STARTCHAR uni3042
ENCODING 12354
SWIDTH 1153 0
DWIDTH 15 0
BBX 13 13 1 0
BITMAP
1980
1F80
7F00
7860
1FE0
3FF0
79F8
FB98
DF18
CE18
DC38
FE70
76E0
ENDCHAR
STARTCHAR uni3043
ENCODING 12355
SWIDTH 1153 0
DWIDTH 15 0
BBX 11 8 2 1
BITMAP
C000
C0C0
C0C0
C060
C060
6060
7000
3000
ENDCHAR
STARTCHAR uni3044
ENCODING 12356
SWIDTH 1153 0
DWIDTH 15 0
BBX 13 10 1 1
BITMAP
C000
C060
C060
C030
C030
E038
6018
7018
3800
1800
ENDCHAR
STARTCHAR uni3045
ENCODING 12357
SWIDTH 1153 0
DWIDTH 15 0
BBX 9 12 3 0
BITMAP
3800
3E00
0E00
0000
3E00
FF00
E380
0180
0180
0380
1F00
1E00
ENDCHAR
STARTCHAR uni3046
ENCODING 12358
SWIDTH 1153 0
DWIDTH 15 0
BBX 11 14 2 0
BITMAP
1C00
1F00
0700
0000
1F80
7FC0
F0E0
C060
0060
0060
00E0
03C0
1F80
1E00
ENDCHAR
STARTCHAR uni3047
ENCODING 12359
SWIDTH 1153 0
DWIDTH 15 0
BBX 11 12 2 0
BITMAP
1800
1E00
0600
0000
1F00
7F80
7700
0E00
1C00
3E00
F3E0
E3E0
ENDCHAR
STARTCHAR uni3048
ENCODING 12360
SWIDTH 1153 0
DWIDTH 15 0
BBX 12 14 2 0
BITMAP
1C00
1F00
0700
0000
1F00
7F80
7380
0700
0E00
1C00
3E00
7F00
E3F0
C1F0
ENDCHAR
STARTCHAR uni3049
ENCODING 12361
SWIDTH 1153 0
DWIDTH 15 0
BBX 11 11 2 0
BITMAP
18C0
1EE0
7E60
7800
1F80
3FC0
78E0
D860
D8E0
FBC0
7380
ENDCHAR
STARTCHAR uni304A
ENCODING 12362
SWIDTH 1153 0
DWIDTH 15 0
BBX 13 13 1 0
BITMAP
0C00
0C30
0F38
7F18
7C00
0FE0
0FF0
3C38
7C18
CC18
CC38
FCF0
78E0
ENDCHAR
STARTCHAR uni304B
ENCODING 12363
SWIDTH 1153 0
DWIDTH 15 0
BBX 13 13 1 0
BITMAP
0C00
0C00
0C30
FF30
FFB8
1998
3998
3198
7198
E180
C380
0F00
0E00
ENDCHAR
STARTCHAR uni304C
ENCODING 12364
SWIDTH 1153 0
DWIDTH 15 0
BBX 13 14 1 0
BITMAP
0030
0CD8
0C60
0C00
FF30
FFB0
1998
3998
3198
7198
E180
C380
0F00
0E00
ENDCHAR
STARTCHAR uni304D
ENCODING 12365
SWIDTH 1153 0
DWIDTH 15 0
BBX 11 13 2 0
BITMAP
0C00
0FC0
FFC0
FE00
06E0
7FE0
7F00
0380
0180
6000
7000
3F80
0F80
ENDCHAR
STARTCHAR uni304E
ENCODING 12366
SWIDTH 1153 0
DWIDTH 15 0
BBX 12 14 2 0
BITMAP
0060
0C30
0EC0
FF60
FE00
0780
7FC0
7F00
0380
0180
6000
7000
3F80
0F80
ENDCHAR
STARTCHAR uni304F
ENCODING 12367
SWIDTH 1153 0
DWIDTH 15 0
BBX 8 13 3 0
BITMAP
06
0E
1C
38
70
E0
C0
E0
78
3C
0E
07
03
ENDCHAR
STARTCHAR uni3050
ENCODING 12368
SWIDTH 1153 0
DWIDTH 15 0
BBX 11 13 3 0
BITMAP
0600
0EC0
1C60
3980
70C0
E000
C000
E000
7800
3C00
0E00
0700
0300
ENDCHAR
STARTCHAR uni3051
ENCODING 12369
SWIDTH 1153 0
DWIDTH 15 0
BBX 13 13 1 0
BITMAP
0060
6060
6060
C078
C7F8
C7E0
C060
C060
C060
E060
60C0
61C0
0380
ENDCHAR
STARTCHAR uni3052
ENCODING 12370
SWIDTH 1153 0
DWIDTH 15 0
BBX 13 14 1 0
BITMAP
0030
00D8
6060
6080
C0E0
C7F0
C7F0
C060
C060
C060
E060
60E0
61C0
0380
ENDCHAR
STARTCHAR uni3053
ENCODING 12371
SWIDTH 1153 0
DWIDTH 15 0
BBX 11 12 2 0
BITMAP
3F80
7FC0
00C0
0000
0000
0000
0000
0000
C000
E060
7FE0
3FC0
ENDCHAR
STARTCHAR uni3054
ENCODING 12372
SWIDTH 1153 0
DWIDTH 15 0
BBX 12 13 2 0
BITMAP
0060
3E30
7EC0
0360
0000
0000
0000
0000
0000
C000
E060
7FE0
3FC0
ENDCHAR
STARTCHAR uni3055
ENCODING 12373
SWIDTH 1153 0
DWIDTH 15 0
BBX 11 13 2 0
BITMAP
0C00
0C00
06E0
FFE0
FF00
0380
01C0
00C0
6000
6000
3000
3F80
0F80
ENDCHAR
STARTCHAR uni3056
ENCODING 12374
SWIDTH 1153 0
DWIDTH 15 0
BBX 12 14 2 0
BITMAP
0060
0C30
0CC0
0660
FF80
FF00
0380
01C0
00C0
6000
6000
3000
3F80
0F80
ENDCHAR
STARTCHAR uni3057
ENCODING 12375
SWIDTH 1153 0
DWIDTH 15 0
BBX 11 13 2 0
BITMAP
6000
6000
6000
E000
C000
C000
C060
C060
C060
C0C0
E1C0
7F80
3F00
ENDCHAR
STARTCHAR uni3058
ENCODING 12376
SWIDTH 1153 0
DWIDTH 15 0
BBX 11 13 2 0
BITMAP
6000
6180
60C0
E600
C300
C000
C060
C060
C060
C0C0
E1C0
7F80
3F00
ENDCHAR
STARTCHAR uni3059
ENCODING 12377
SWIDTH 1153 0
DWIDTH 15 0
BBX 13 13 1 0
BITMAP
0180
0180
FFF8
FFF8
0180
0F80
1980
1980
0F80
0780
0380
1F00
1E00
ENDCHAR
STARTCHAR uni305A
ENCODING 12378
SWIDTH 1153 0
DWIDTH 15 0
BBX 13 13 1 0
BITMAP
0190
0198
FFE8
FFF0
0190
0F80
1980
1980
0F80
0780
0380
1F00
1E00
ENDCHAR
STARTCHAR uni305B
ENCODING 12379
SWIDTH 1153 0
DWIDTH 15 0
BBX 13 13 1 0
BITMAP
00C0
30C0
30C0
33F8
FFF8
FEC0
30C0
3180
3180
3800
1800
1FE0
0FE0
ENDCHAR
STARTCHAR uni305C
ENCODING 12380
SWIDTH 1153 0
DWIDTH 15 0
BBX 13 14 1 0
BITMAP
0030
00D8
3060
30C0
30C0
33F8
FFF8
FCC0
3180
3180
3800
1800
1FE0
0FE0
ENDCHAR
STARTCHAR uni305D
ENCODING 12381
SWIDTH 1153 0
DWIDTH 15 0
BBX 12 13 1 0
BITMAP
01C0
3FC0
3F00
0E00
1C70
FFF0
FF80
0E00
1C00
1800
1C60
0FE0
07C0
ENDCHAR
STARTCHAR uni305E
ENCODING 12382
SWIDTH 1153 0
DWIDTH 15 0
BBX 13 13 1 0
BITMAP
01B0
3F98
3F60
0E30
1C00
FFF0
FFF0
0E00
1C00
1800
1C60
0FE0
07C0
ENDCHAR
STARTCHAR uni305F
ENCODING 12383
SWIDTH 1153 0
DWIDTH 15 0
BBX 13 13 1 0
BITMAP
0C00
0C00
0F80
7F80
7800
1800
39F0
31F0
7000
6000
6200
C3F8
C1F8
ENDCHAR
STARTCHAR uni3060
ENCODING 12384
SWIDTH 1153 0
DWIDTH 15 0
BBX 13 13 1 0
BITMAP
0C30
0C18
0F60
7FB0
7800
1800
39F0
31F0
7000
6000
6200
C3F8
C1F8
ENDCHAR
STARTCHAR uni3061
ENCODING 12385
SWIDTH 1153 0
DWIDTH 15 0
BBX 11 13 2 0
BITMAP
0C00
0C00
0F80
FF80
F800
1800
3F80
3FC0
70E0
6060
00E0
0FC0
0F80
ENDCHAR
STARTCHAR uni3062
ENCODING 12386
SWIDTH 1153 0
DWIDTH 15 0
BBX 12 13 2 0
BITMAP
0C20
0CB0
0ED0
FF40
F800
1800
3F80
3FC0
70E0
6060
00E0
0FC0
0F80
ENDCHAR
STARTCHAR uni3063
ENCODING 12387
SWIDTH 1153 0
DWIDTH 15 0
BBX 9 8 3 0
BITMAP
3C00
FF00
C380
0180
0180
0380
0F00
0C00
ENDCHAR
STARTCHAR uni3064
ENCODING 12388
SWIDTH 1153 0
DWIDTH 15 0
BBX 13 10 1 1
BITMAP
3FC0
FFF0
E030
0018
0018
0018
0038
0070
07E0
0780
ENDCHAR
STARTCHAR uni3065
ENCODING 12389
SWIDTH 1153 0
DWIDTH 15 0
BBX 13 13 1 1
BITMAP
0030
00D8
0060
3FC0
FFF0
E030
0018
0018
0018
0038
0070
07E0
0780
ENDCHAR
STARTCHAR uni3066
ENCODING 12390
SWIDTH 1153 0
DWIDTH 15 0
BBX 13 12 1 0
BITMAP
07F8
FFF8
F980
0300
0600
0600
0600
0600
0600
0700
03E0
01E0
ENDCHAR
STARTCHAR uni3067
ENCODING 12391
SWIDTH 1153 0
DWIDTH 15 0
BBX 13 12 1 0
BITMAP
07F8
FFF8
F980
0330
0618
0660
0630
0600
0600
0700
03E0
01E0
ENDCHAR
STARTCHAR uni3068
ENCODING 12392
SWIDTH 1153 0
DWIDTH 15 0
BBX 11 13 2 0
BITMAP
C000
C000
E060
61E0
3780
3E00
3800
6000
C000
C000
E000
7FC0
3FC0
ENDCHAR
STARTCHAR uni3069
ENCODING 12393
SWIDTH 1153 0
DWIDTH 15 0
BBX 12 14 2 0
BITMAP
0060
C030
C0C0
E060
6180
3780
3E00
3800
6000
C000
C000
E000
7FC0
3FC0
ENDCHAR
STARTCHAR uni306A
ENCODING 12394
SWIDTH 1153 0
DWIDTH 15 0
BBX 13 13 1 0
BITMAP
1800
1860
FE70
FE38
3018
6198
6180
CF80
DFE0
19F0
19B0
1F80
0F00
ENDCHAR
STARTCHAR uni306B
ENCODING 12395
SWIDTH 1153 0
DWIDTH 15 0
BBX 13 12 1 0
BITMAP
6000
63F0
E3F0
C000
C000
C000
C000
C000
C600
C7F8
E3F8
6000
ENDCHAR
STARTCHAR uni306C
ENCODING 12396
SWIDTH 1153 0
DWIDTH 15 0
BBX 13 13 1 0
BITMAP
00C0
30C0
30C0
37E0
3FF0
79B8
F998
DB18
CF18
CEF8
FDB0
79F8
00D8
ENDCHAR
STARTCHAR uni306D
ENCODING 12397
SWIDTH 1153 0
DWIDTH 15 0
BBX 13 13 1 0
BITMAP
3000
3000
39C0
FBE0
F770
3E30
3C30
7830
71B0
F7F0
F670
37F8
33D8
ENDCHAR
STARTCHAR uni306E
ENCODING 12398
SWIDTH 1153 0
DWIDTH 15 0
BBX 13 12 1 0
BITMAP
0F80
3FE0
7370
6330
E318
C318
C618
C618
EE38
7C30
3870
0060
ENDCHAR
STARTCHAR uni306F
ENCODING 12399
SWIDTH 1153 0
DWIDTH 15 0
BBX 13 13 1 0
BITMAP
00C0
60C0
60C0
EFF0
CFF0
C0C0
C0C0
C0C0
C7C0
CFF0
ECF8
6FD8
6780
ENDCHAR
STARTCHAR uni3070
ENCODING 12400
SWIDTH 1153 0
DWIDTH 15 0
BBX 13 14 1 0
BITMAP
0010
0018
61A8
61B0
EFD0
CFE0
C0C0
C0C0
C0C0
C7C0
CFF0
ECF8
6FD8
6780
ENDCHAR
STARTCHAR uni3071
ENCODING 12401
SWIDTH 1153 0
DWIDTH 15 0
BBX 13 14 1 0
BITMAP
0030
0048
60C8
60F0
EFF0
CFC0
C0C0
C0C0
C0C0
C7C0
CFF0
ECF8
6FD8
6780
ENDCHAR
STARTCHAR uni3072
ENCODING 12402
SWIDTH 1153 0
DWIDTH 15 0
BBX 13 12 1 0
BITMAP
3800
F860
D878
1878
3060
3060
3060
3060
30E0
38C0
1FC0
0F80
ENDCHAR
STARTCHAR uni3073
ENCODING 12403
SWIDTH 1153 0
DWIDTH 15 0
BBX 13 14 1 0
BITMAP
0030
00D8
3860
F800
D860
1878
3078
3060
3060
3060
30E0
38C0
1FC0
0F80
ENDCHAR
STARTCHAR uni3074
ENCODING 12404
SWIDTH 1153 0
DWIDTH 15 0
BBX 13 14 1 0
BITMAP
0030
0048
3848
F830
D800
1878
3078
3060
3060
3060
30E0
38C0
1FC0
0F80
ENDCHAR
STARTCHAR uni3075
ENCODING 12405
SWIDTH 1153 0
DWIDTH 15 0
BBX 13 13 1 0
BITMAP
0E00
0F80
0380
0000
0C00
0E00
0630
6330
63B8
E198
C198
0F80
0F00
ENDCHAR
STARTCHAR uni3076
ENCODING 12406
SWIDTH 1153 0
DWIDTH 15 0
BBX 13 14 1 0
BITMAP
0010
0E58
0F68
03A0
0080
0C00
0E00
0630
6330
63B8
E198
C198
0F80
0F00
ENDCHAR
STARTCHAR uni3077
ENCODING 12407
SWIDTH 1153 0
DWIDTH 15 0
BBX 13 14 1 0
BITMAP
0030
0E48
0F48
03B0
0180
0C00
0E00
0630
6330
63B8
E198
C198
0F80
0F00
ENDCHAR
STARTCHAR uni3078
ENCODING 12408
SWIDTH 1153 0
DWIDTH 15 0
BBX 13 8 1 2
BITMAP
0E00
1F00
3B80
F1C0
E0E0
0070
0038
0018
ENDCHAR
STARTCHAR uni3079
ENCODING 12409
SWIDTH 1153 0
DWIDTH 15 0
BBX 13 11 1 2
BITMAP
0030
0018
0060
0E30
1F00
3B80
F1C0
E0E0
0070
0038
0018
ENDCHAR
STARTCHAR uni307A
ENCODING 12410
SWIDTH 1153 0
DWIDTH 15 0
BBX 13 11 1 2
BITMAP
0030
0048
0048
0E30
1F00
3B80
F1C0
E0E0
0070
0038
0018
ENDCHAR
STARTCHAR uni307B
ENCODING 12411
SWIDTH 1153 0
DWIDTH 15 0
BBX 13 12 1 0
BITMAP
67F0
67F0
E0C0
C7F0
C7F0
C0C0
C0C0
C7C0
CFF0
ECF8
6FD8
6780
ENDCHAR
STARTCHAR uni307C
ENCODING 12412
SWIDTH 1153 0
DWIDTH 15 0
BBX 13 14 1 0
BITMAP
0030
00D8
6060
67C0
E7F0
C0C0
C7F0
C7F0
C0C0
C7C0
CFF0
ECF8
6FD8
6780
ENDCHAR
STARTCHAR uni307D
ENCODING 12413
SWIDTH 1153 0
DWIDTH 15 0
BBX 13 14 1 0
BITMAP
0030
0048
6048
67F0
E7C0
C0C0
C7F0
C7F0
C0C0
C7C0
CFF0
ECF8
6FD8
6780
ENDCHAR
STARTCHAR uni307E
ENCODING 12414
SWIDTH 1153 0
DWIDTH 15 0
BBX 11 13 2 0
BITMAP
0600
0600
7FC0
7FC0
0600
3F80
3F80
0600
3E00
FF80
C7C0
FEE0
7C60
ENDCHAR
STARTCHAR uni307F
ENCODING 12415
SWIDTH 1153 0
DWIDTH 15 0
BBX 13 12 1 0
BITMAP
7E00
7E60
0660
0660
3E60
7FE0
EFF8
CC78
DC60
F8E0
71C0
0180
ENDCHAR
STARTCHAR uni3080
ENCODING 12416
SWIDTH 1153 0
DWIDTH 15 0
BBX 13 13 1 0
BITMAP
1800
1860
1E70
FE38
F818
1800
7800
D800
D830
D830
FC70
6FE0
07C0
ENDCHAR
STARTCHAR uni3081
ENCODING 12417
SWIDTH 1153 0
DWIDTH 15 0
BBX 13 13 1 0
BITMAP
00C0
30C0
30C0
37E0
3FF0
79B8
F998
DB18
CF18
CE18
FF38
7B70
0060
ENDCHAR
STARTCHAR uni3082
ENCODING 12418
SWIDTH 1153 0
DWIDTH 15 0
BBX 13 13 1 0
BITMAP
0C00
0C00
0F00
7F00
7C00
0C00
3F80
FF80
D818
1818
1C38
0FF0
07E0
ENDCHAR
STARTCHAR uni3083
ENCODING 12419
SWIDTH 1153 0
DWIDTH 15 0
BBX 11 11 2 0
BITMAP
0300
3300
3FC0
3FE0
7B60
F860
D9E0
1DC0
0C00
0C00
0C00
ENDCHAR
STARTCHAR uni3084
ENCODING 12420
SWIDTH 1153 0
DWIDTH 15 0
BBX 13 13 1 0
BITMAP
0180
3180
37E0
3FF0
3DB8
7998
F818
DC38
0CF0
0CE0
0E00
0600
0600
ENDCHAR
STARTCHAR uni3085
ENCODING 12421
SWIDTH 1153 0
DWIDTH 15 0
BBX 11 11 2 0
BITMAP
0600
0600
CF80
DFC0
FEE0
E660
C6E0
CFC0
0780
0E00
0C00
ENDCHAR
STARTCHAR uni3086
ENCODING 12422
SWIDTH 1153 0
DWIDTH 15 0
BBX 13 13 1 0
BITMAP
0180
0180
C7E0
CFF0
DDB8
F998
F198
E5B8
67F0
63E0
0180
0300
0600
ENDCHAR
STARTCHAR uni3087
ENCODING 12423
SWIDTH 1153 0
DWIDTH 15 0
BBX 11 11 2 0
BITMAP
0600
0600
07C0
07C0
0600
3E00
7F80
C7C0
C6E0
FE60
7C00
ENDCHAR
STARTCHAR uni3088
ENCODING 12424
SWIDTH 1153 0
DWIDTH 15 0
BBX 13 13 1 0
BITMAP
0300
0300
0300
03F0
03F0
0300
3F00
7FC0
E3E0
C370
E738
7F18
3E00
ENDCHAR
STARTCHAR uni3089
ENCODING 12425
SWIDTH 1153 0
DWIDTH 15 0
BBX 11 14 2 0
BITMAP
0C00
0E00
0700
0300
6000
6000
6F80
FFC0
F0E0
C060
0060
00E0
3FC0
3F80
ENDCHAR
STARTCHAR uni308A
ENCODING 12426
SWIDTH 1153 0
DWIDTH 15 0
BBX 9 13 3 0
BITMAP
4E00
DF00
DB80
F180
E180
E180
C180
4180
0380
0300
0700
1E00
1C00
ENDCHAR
STARTCHAR uni308B
ENCODING 12427
SWIDTH 1153 0
DWIDTH 15 0
BBX 11 13 2 0
BITMAP
3F80
3F80
0700
0E00
1F80
7FC0
F0E0
C060
1E60
3F60
31E0
3FC0
1F80
ENDCHAR
STARTCHAR uni308C
ENCODING 12428
SWIDTH 1153 0
DWIDTH 15 0
BBX 13 13 1 0
BITMAP
1800
1800
19C0
FBE0
FF60
1E60
3C60
3860
7860
F860
D860
1878
1838
ENDCHAR
STARTCHAR uni308D
ENCODING 12429
SWIDTH 1153 0
DWIDTH 15 0
BBX 11 13 2 0
BITMAP
3F80
3F80
0700
0E00
1C00
3F80
FFC0
E0E0
0060
0060
30E0
3FC0
1F80
ENDCHAR
STARTCHAR uni308E
ENCODING 12430
SWIDTH 1153 0
DWIDTH 15 0
BBX 11 11 2 0
BITMAP
3000
3800
F800
F780
3FC0
3CE0
7860
F060
F0E0
33C0
3380
ENDCHAR
STARTCHAR uni308F
ENCODING 12431
SWIDTH 1153 0
DWIDTH 15 0
BBX 13 13 1 0
BITMAP
1800
1800
1800
FBE0
FFF0
1E38
3C18
3818
7818
F818
D838
18F0
18E0
ENDCHAR
STARTCHAR uni3090
ENCODING 12432
SWIDTH 1153 0
DWIDTH 15 0
BBX 13 13 1 0
BITMAP
3F80
3F80
0300
0300
0FE0
3FF0
7638
6618
CC18
CDD8
DB38
FBF0
71E0
ENDCHAR
STARTCHAR uni3091
ENCODING 12433
SWIDTH 1153 0
DWIDTH 15 0
BBX 13 13 1 0
BITMAP
1F80
1FC0
0380
0E00
3FC0
30E0
0F60
1F60
19C0
0F80
3860
FFF8
C718
ENDCHAR
STARTCHAR uni3092
ENCODING 12434
SWIDTH 1153 0
DWIDTH 15 0
BBX 11 13 2 0
BITMAP
0C00
0F80
7F80
7C00
1800
FC00
E7E0
1FE0
3E00
7600
6000
7FC0
3FC0
ENDCHAR
STARTCHAR uni3093
ENCODING 12435
SWIDTH 1153 0
DWIDTH 15 0
BBX 13 13 1 0
BITMAP
0600
0600
0C00
0C00
1800
1800
3E00
3E00
7F18
7318
E1B8
C1F0
C0E0
ENDCHAR
STARTCHAR uni3094
ENCODING 12436
SWIDTH 1153 0
DWIDTH 15 0
BBX 12 14 2 0
BITMAP
1820
1EB0
06D0
0040
1F80
7FC0
F0E0
C060
0060
0060
00E0
03C0
1F80
1E00
ENDCHAR
STARTCHAR uni3095
ENCODING 12437
SWIDTH 1153 0
DWIDTH 15 0
BBX 11 11 2 0
BITMAP
1800
18C0
FEC0
FF60
3360
3360
6300
E300
C700
0E00
0C00
ENDCHAR
STARTCHAR uni3096
ENCODING 12438
SWIDTH 1153 0
DWIDTH 15 0
BBX 11 11 2 0
BITMAP
0180
C180
C180
CFE0
CFE0
C180
C180
C180
E180
6380
0300
ENDCHAR
STARTCHAR uni3099
ENCODING 12441
SWIDTH 1153 0
DWIDTH 15 0
BBX 4 4 1 10
BITMAP
60
30
C0
60
ENDCHAR
STARTCHAR uni309A
ENCODING 12442
SWIDTH 1153 0
DWIDTH 15 0
BBX 4 4 1 10
BITMAP
60
90
90
60
ENDCHAR
STARTCHAR uni309B
ENCODING 12443
SWIDTH 1153 0
DWIDTH 15 0
BBX 4 4 1 10
BITMAP
60
30
C0
60
ENDCHAR
STARTCHAR uni309C
ENCODING 12444
SWIDTH 1153 0
DWIDTH 15 0
BBX 4 4 1 10
BITMAP
60
90
90
60
ENDCHAR
STARTCHAR uni309D
ENCODING 12445
SWIDTH 1153 0
DWIDTH 15 0
BBX 7 9 4 2
BITMAP
C0
C0
E0
70
3C
0E
0E
3E
30
ENDCHAR
STARTCHAR uni309E
ENCODING 12446
SWIDTH 1153 0
DWIDTH 15 0
BBX 9 10 4 2
BITMAP
0200
CB00
CD80
E600
7000
3C00
0E00
0E00
3E00
3000
ENDCHAR
STARTCHAR uni309F
ENCODING 12447
SWIDTH 1153 0
DWIDTH 15 0
BBX 11 13 2 0
BITMAP
0C00
0C00
1C60
18E0
1880
3300
3F80
3BC0
74C0
6CC0
CCC0
CF80
C700
ENDCHAR
STARTCHAR uni30A0
ENCODING 12448
SWIDTH 1153 0
DWIDTH 15 0
BBX 9 7 3 3
BITMAP
FF80
FF80
0000
0000
0000
FF80
FF80
ENDCHAR
STARTCHAR uni30A1
ENCODING 12449
SWIDTH 1153 0
DWIDTH 15 0
BBX 11 10 2 0
BITMAP
3FC0
FFE0
E0E0
0DC0
0D80
0C00
1C00
1800
3800
3000
ENDCHAR
STARTCHAR uni30A2
ENCODING 12450
SWIDTH 1153 0
DWIDTH 15 0
BBX 13 12 1 0
BITMAP
1FF0
FFF8
F038
0070
06E0
06C0
0600
0600
0E00
0C00
1C00
1800
ENDCHAR
STARTCHAR uni30A3
ENCODING 12451
SWIDTH 1153 0
DWIDTH 15 0
BBX 10 11 2 0
BITMAP
00C0
00C0
01C0
0780
1F00
FE00
F600
0600
0600
0600
0600
ENDCHAR
STARTCHAR uni30A4
ENCODING 12452
SWIDTH 1153 0
DWIDTH 15 0
BBX 12 13 1 0
BITMAP
0030
0030
0070
00E0
03C0
1F80
FF00
F300
0300
0300
0300
0300
0300
ENDCHAR
STARTCHAR uni30A5
ENCODING 12453
SWIDTH 1153 0
DWIDTH 15 0
BBX 10 11 2 0
BITMAP
0C00
0C00
7F80
FFC0
C0C0
C0C0
00C0
0180
0780
1F00
1C00
ENDCHAR
STARTCHAR uni30A6
ENCODING 12454
SWIDTH 1153 0
DWIDTH 15 0
BBX 12 13 1 0
BITMAP
0600
0600
0600
7FE0
FFF0
C030
C030
C030
0070
0060
01E0
0FC0
0F00
ENDCHAR
STARTCHAR uni30A7
ENCODING 12455
SWIDTH 1153 0
DWIDTH 15 0
BBX 11 8 2 1
BITMAP
7F80
7F80
0C00
0C00
0E00
0600
FFE0
FFE0
ENDCHAR
STARTCHAR uni30A8
ENCODING 12456
SWIDTH 1153 0
DWIDTH 15 0
BBX 13 10 1 1
BITMAP
7FE0
7FE0
0600
0600
0600
0700
0300
0300
FFF8
FFF8
ENDCHAR
STARTCHAR uni30A9
ENCODING 12457
SWIDTH 1153 0
DWIDTH 15 0
BBX 9 10 3 0
BITMAP
0600
0600
FF80
FF80
0E00
3E00
F600
E600
0E00
0C00
ENDCHAR
STARTCHAR uni30AA
ENCODING 12458
SWIDTH 1153 0
DWIDTH 15 0
BBX 12 13 2 0
BITMAP
0180
0180
0180
FFF0
FFF0
0380
0780
0F80
3D80
F980
E180
0780
0700
ENDCHAR
STARTCHAR uni30AB
ENCODING 12459
SWIDTH 1153 0
DWIDTH 15 0
BBX 11 13 2 0
BITMAP
0C00
0C00
0C00
0FC0
FFE0
FC60
1C60
1860
3860
30E0
70C0
E3C0
C380
ENDCHAR
STARTCHAR uni30AC
ENCODING 12460
SWIDTH 1153 0
DWIDTH 15 0
BBX 12 14 2 0
BITMAP
0060
0DB0
0CC0
0C00
0FC0
FFE0
FC60
1C60
1860
3860
30E0
70C0
E3C0
C380
ENDCHAR
STARTCHAR uni30AD
ENCODING 12461
SWIDTH 1153 0
DWIDTH 15 0
BBX 13 13 1 0
BITMAP
0C00
0C00
0F80
3F80
3E00
0678
07F8
1FC0
FF00
F300
0380
0180
0180
ENDCHAR
STARTCHAR uni30AE
ENCODING 12462
SWIDTH 1153 0
DWIDTH 15 0
BBX 13 14 1 0
BITMAP
0030
0C18
0C60
0FB0
3F80
3E00
0678
07F8
1FC0
FF00
F300
0380
0180
0180
ENDCHAR
STARTCHAR uni30AF
ENCODING 12463
SWIDTH 1153 0
DWIDTH 15 0
BBX 11 12 2 0
BITMAP
0FC0
1FE0
3860
7060
E060
C0E0
00C0
01C0
0380
0F00
3E00
3800
ENDCHAR
STARTCHAR uni30B0
ENCODING 12464
SWIDTH 1153 0
DWIDTH 15 0
BBX 13 14 1 0
BITMAP
0010
0058
0F68
1FA0
3840
7060
E060
C0E0
00C0
01C0
0380
0F00
3E00
3800
ENDCHAR
STARTCHAR uni30B1
ENCODING 12465
SWIDTH 1153 0
DWIDTH 15 0
BBX 13 13 1 0
BITMAP
0C00
0C00
1C00
1800
3FF8
7FF8
E0C0
C1C0
0180
0380
0700
0E00
0C00
ENDCHAR
STARTCHAR uni30B2
ENCODING 12466
SWIDTH 1153 0
DWIDTH 15 0
BBX 13 14 1 0
BITMAP
0030
0CD8
0C60
1C00
1800
3FF8
7FF8
E0C0
C1C0
0180
0380
0700
0E00
0C00
ENDCHAR
STARTCHAR uni30B3
ENCODING 12467
SWIDTH 1153 0
DWIDTH 15 0
BBX 11 11 2 1
BITMAP
7C00
7FC0
07E0
0060
0060
0060
0060
00E0
00C0
FFC0
FFC0
ENDCHAR
STARTCHAR uni30B4
ENCODING 12468
SWIDTH 1153 0
DWIDTH 15 0
BBX 12 13 2 1
BITMAP
0020
00B0
7CD0
7F40
0780
0060
0060
0060
0060
00E0
00C0
FFC0
FFC0
ENDCHAR
STARTCHAR uni30B5
ENCODING 12469
SWIDTH 1153 0
DWIDTH 15 0
BBX 13 13 1 0
BITMAP
00C0
18C0
18C0
18C0
FFF8
FFF8
18C0
18C0
19C0
0180
0380
0F00
0E00
ENDCHAR
STARTCHAR uni30B6
ENCODING 12470
SWIDTH 1153 0
DWIDTH 15 0
BBX 13 14 1 0
BITMAP
0030
00D8
1860
18C0
18C0
FFF8
FFF8
18C0
18C0
19C0
0180
0380
0F00
0E00
ENDCHAR
STARTCHAR uni30B7
ENCODING 12471
SWIDTH 1153 0
DWIDTH 15 0
BBX 12 12 2 0
BITMAP
7000
7C00
1C30
0030
E070
F860
38E0
01C0
0380
0F00
7E00
7800
ENDCHAR
STARTCHAR uni30B8
ENCODING 12472
SWIDTH 1153 0
DWIDTH 15 0
BBX 12 14 2 0
BITMAP
0060
0030
70C0
7C60
1C00
0030
E070
F860
38E0
01C0
0380
0F00
7E00
7800
ENDCHAR
STARTCHAR uni30B9
ENCODING 12473
SWIDTH 1153 0
DWIDTH 15 0
BBX 13 12 1 0
BITMAP
0FC0
7FE0
78E0
00C0
01C0
0380
0700
0F80
1DC0
38E0
F078
E038
ENDCHAR
STARTCHAR uni30BA
ENCODING 12474
SWIDTH 1153 0
DWIDTH 15 0
BBX 13 14 1 0
BITMAP
0010
0018
0FA8
7FB0
78D0
00C0
01C0
0380
0700
0F80
1DC0
78E0
F078
C038
ENDCHAR
STARTCHAR uni30BB
ENCODING 12475
SWIDTH 1153 0
DWIDTH 15 0
BBX 13 13 1 0
BITMAP
1800
1800
1800
19F0
1FF8
FF38
F870
1860
1800
1800
1830
1FF0
0FE0
ENDCHAR
STARTCHAR uni30BC
ENCODING 12476
SWIDTH 1153 0
DWIDTH 15 0
BBX 13 14 1 0
BITMAP
0030
18D8
1860
1800
19F0
1FF8
FF38
F870
1860
1800
1800
1830
1FF0
0FE0
ENDCHAR
STARTCHAR uni30BD
ENCODING 12477
SWIDTH 1153 0
DWIDTH 15 0
BBX 12 11 2 0
BITMAP
C030
E030
6030
7070
3060
00E0
00C0
01C0
0780
1F00
1C00
ENDCHAR
STARTCHAR uni30BE
ENCODING 12478
SWIDTH 1153 0
DWIDTH 15 0
BBX 12 14 2 0
BITMAP
0060
01B0
00C0
C030
E030
6030
7070
3060
00E0
00C0
01C0
0780
1F00
1C00
ENDCHAR
STARTCHAR uni30BF
ENCODING 12479
SWIDTH 1153 0
DWIDTH 15 0
BBX 11 12 2 0
BITMAP
0FC0
1FE0
3860
7060
FCE0
CEC0
07C0
0380
0700
1E00
7C00
7000
ENDCHAR
STARTCHAR uni30C0
ENCODING 12480
SWIDTH 1153 0
DWIDTH 15 0
BBX 12 14 2 0
BITMAP
0060
01B0
0EC0
1F20
38E0
7060
FCE0
CEC0
07C0
0380
0700
1E00
7C00
7000
ENDCHAR
STARTCHAR uni30C1
ENCODING 12481
SWIDTH 1153 0
DWIDTH 15 0
BBX 13 13 1 0
BITMAP
00C0
03C0
1F80
1F00
0300
03F8
FFF8
FF00
0300
0700
0600
0E00
0C00
ENDCHAR
STARTCHAR uni30C2
ENCODING 12482
SWIDTH 1153 0
DWIDTH 15 0
BBX 13 14 1 0
BITMAP
0010
0198
03A8
1F30
1F10
0300
03F8
FFF8
FF00
0300
0700
0600
0E00
0C00
ENDCHAR
STARTCHAR uni30C3
ENCODING 12483
SWIDTH 1153 0
DWIDTH 15 0
BBX 10 10 2 0
BITMAP
1800
D8C0
CCC0
6CC0
61C0
0180
0380
0700
1E00
1C00
ENDCHAR
STARTCHAR uni30C4
ENCODING 12484
SWIDTH 1153 0
DWIDTH 15 0
BBX 12 12 2 0
BITMAP
0C00
CC30
CE30
E630
6670
6060
00E0
00C0
01C0
0780
1F00
1C00
ENDCHAR
STARTCHAR uni30C5
ENCODING 12485
SWIDTH 1153 0
DWIDTH 15 0
BBX 12 14 2 0
BITMAP
0060
01B0
0CC0
CC30
CE30
E630
6670
6060
00E0
00C0
01C0
0780
1F00
1E00
ENDCHAR
STARTCHAR uni30C6
ENCODING 12486
SWIDTH 1153 0
DWIDTH 15 0
BBX 13 12 1 0
BITMAP
3FE0
3FE0
0000
0000
FFF8
FFF8
0300
0300
0700
0600
0E00
0C00
ENDCHAR
STARTCHAR uni30C7
ENCODING 12487
SWIDTH 1153 0
DWIDTH 15 0
BBX 13 14 1 0
BITMAP
0030
0018
3F60
3FB0
0000
0000
FFF8
FFF8
0300
0300
0700
0600
0E00
0C00
ENDCHAR
STARTCHAR uni30C8
ENCODING 12488
SWIDTH 1153 0
DWIDTH 15 0
BBX 9 13 4 0
BITMAP
C000
C000
C000
C000
E000
FC00
7F00
6780
6180
6000
6000
6000
6000
ENDCHAR
STARTCHAR uni30C9
ENCODING 12489
SWIDTH 1153 0
DWIDTH 15 0
BBX 9 13 4 0
BITMAP
C300
C180
C600
C300
E000
F800
7F00
6780
6180
6000
6000
6000
6000
ENDCHAR
STARTCHAR uni30CA
ENCODING 12490
SWIDTH 1153 0
DWIDTH 15 0
BBX 13 13 1 0
BITMAP
0300
0300
0300
0300
FFF8
FFF8
0300
0300
0700
0600
0E00
3C00
3800
ENDCHAR
STARTCHAR uni30CB
ENCODING 12491
SWIDTH 1153 0
DWIDTH 15 0
BBX 13 10 1 1
BITMAP
0FC0
3FC0
3800
0000
0000
0000
0000
3FE0
FFF8
E038
ENDCHAR
STARTCHAR uni30CC
ENCODING 12492
SWIDTH 1153 0
DWIDTH 15 0
BBX 12 12 1 0
BITMAP
0FC0
7FE0
7860
0060
00E0
1DC0
1F80
07C0
0FE0
3C70
F830
E000
ENDCHAR
STARTCHAR uni30CD
ENCODING 12493
SWIDTH 1153 0
DWIDTH 15 0
BBX 13 13 1 0
BITMAP
0600
0700
0300
0FC0
3FE0
3860
00E0
03C0
1FF0
FF78
F318
0300
0300
ENDCHAR
STARTCHAR uni30CE
ENCODING 12494
SWIDTH 1153 0
DWIDTH 15 0
BBX 10 12 2 0
BITMAP
00C0
00C0
00C0
00C0
00C0
01C0
0180
0380
0700
1E00
FC00
F000
ENDCHAR
STARTCHAR uni30CF
ENCODING 12495
SWIDTH 1153 0
DWIDTH 15 0
BBX 13 11 1 1
BITMAP
0180
1980
19C0
18C0
38E0
3060
7070
6030
E038
C018
C018
ENDCHAR
STARTCHAR uni30D0
ENCODING 12496
SWIDTH 1153 0
DWIDTH 15 0
BBX 13 13 1 1
BITMAP
0030
0018
0060
19B0
1980
19C0
38C0
30E0
7060
6070
E030
C038
C018
ENDCHAR
STARTCHAR uni30D1
ENCODING 12497
SWIDTH 1153 0
DWIDTH 15 0
BBX 13 13 1 1
BITMAP
0030
0048
0048
19B0
19C0
18C0
38E0
3060
7070
6030
E038
C018
C018
ENDCHAR
STARTCHAR uni30D2
ENCODING 12498
SWIDTH 1153 0
DWIDTH 15 0
BBX 11 12 2 0
BITMAP
6000
6000
60E0
67E0
7F80
FC00
C000
C000
C000
E000
7FE0
3FE0
ENDCHAR
STARTCHAR uni30D3
ENCODING 12499
SWIDTH 1153 0
DWIDTH 15 0
BBX 12 14 2 0
BITMAP
0060
01B0
60C0
6000
60E0
67E0
7F80
FC00
C000
C000
C000
E000
7FE0
3FE0
ENDCHAR
STARTCHAR uni30D4
ENCODING 12500
SWIDTH 1153 0
DWIDTH 15 0
BBX 12 14 2 0
BITMAP
0060
0090
6090
6060
6180
67C0
7F00
FC00
C000
C000
C000
E000
7FE0
3FE0
ENDCHAR
STARTCHAR uni30D5
ENCODING 12501
SWIDTH 1153 0
DWIDTH 15 0
BBX 12 12 1 0
BITMAP
07E0
FFF0
FC30
0030
0030
0070
0060
00E0
01C0
0780
1F00
1C00
ENDCHAR
STARTCHAR uni30D6
ENCODING 12502
SWIDTH 1153 0
DWIDTH 15 0
BBX 13 14 1 0
BITMAP
0030
00D8
0760
FF80
FC30
0030
0030
0070
0060
00E0
01C0
0780
1F00
1C00
ENDCHAR
STARTCHAR uni30D7
ENCODING 12503
SWIDTH 1153 0
DWIDTH 15 0
BBX 13 14 1 0
BITMAP
0030
0048
0F48
FFB0
F800
0030
0030
0070
0060
00E0
01C0
0780
1F00
1C00
ENDCHAR
STARTCHAR uni30D8
ENCODING 12504
SWIDTH 1153 0
DWIDTH 15 0
BBX 13 9 1 2
BITMAP
0C00
1E00
3F00
7380
E1C0
C0E0
0070
0038
0018
ENDCHAR
STARTCHAR uni30D9
ENCODING 12505
SWIDTH 1153 0
DWIDTH 15 0
BBX 13 11 1 2
BITMAP
0060
0030
0CC0
1E60
3F00
7380
E1C0
C0E0
0070
0038
0018
ENDCHAR
STARTCHAR uni30DA
ENCODING 12506
SWIDTH 1153 0
DWIDTH 15 0
BBX 13 11 1 2
BITMAP
0030
0048
0C48
1E30
3F00
7380
E1C0
C0E0
0070
0038
0018
ENDCHAR
STARTCHAR uni30DB
ENCODING 12507
SWIDTH 1153 0
DWIDTH 15 0
BBX 13 13 1 0
BITMAP
0300
0300
0300
7FF0
7FF0
0300
0300
3360
7770
E638
C618
0600
0600
ENDCHAR
STARTCHAR uni30DC
ENCODING 12508
SWIDTH 1153 0
DWIDTH 15 0
BBX 13 14 1 0
BITMAP
0030
02D8
0360
0300
7FF0
7FF0
0300
0300
3360
7770
E638
C618
0600
0600
ENDCHAR
STARTCHAR uni30DD
ENCODING 12509
SWIDTH 1153 0
DWIDTH 15 0
BBX 13 14 1 0
BITMAP
0030
0348
0348
0330
7FC0
7FF0
0300
0300
3360
7770
E638
C618
0600
0600
ENDCHAR
STARTCHAR uni30DE
ENCODING 12510
SWIDTH 1153 0
DWIDTH 15 0
BBX 13 11 1 0
BITMAP
1FF0
FFF8
F018
0038
0070
19E0
1FC0
0F00
0380
01C0
00C0
ENDCHAR
STARTCHAR uni30DF
ENCODING 12511
SWIDTH 1153 0
DWIDTH 15 0
BBX 9 12 3 0
BITMAP
7C00
7F80
0780
0000
7800
7F00
0700
0000
F000
FE00
1F80
0380
ENDCHAR
STARTCHAR uni30E0
ENCODING 12512
SWIDTH 1153 0
DWIDTH 15 0
BBX 13 12 1 0
BITMAP
0600
0E00
0C00
1C00
1800
38C0
30E0
7060
61F0
E7F0
FF38
7C18
ENDCHAR
STARTCHAR uni30E1
ENCODING 12513
SWIDTH 1153 0
DWIDTH 15 0
BBX 12 12 1 0
BITMAP
0030
0030
1870
1C60
0EE0
07C0
0380
07C0
0EE0
3C70
F830
E000
ENDCHAR
STARTCHAR uni30E2
ENCODING 12514
SWIDTH 1153 0
DWIDTH 15 0
BBX 13 12 1 0
BITMAP
03E0
7FE0
7E00
0600
0600
07F8
FFF8
FE00
0600
0600
07F0
03F0
ENDCHAR
STARTCHAR uni30E3
ENCODING 12515
SWIDTH 1153 0
DWIDTH 15 0
BBX 11 11 2 0
BITMAP
3000
3080
3FC0
FFE0
F8E0
19C0
1980
1C00
0C00
0C00
0C00
ENDCHAR
STARTCHAR uni30E4
ENCODING 12516
SWIDTH 1153 0
DWIDTH 15 0
BBX 13 13 1 0
BITMAP
3000
3000
39F0
1FF8
FF38
FC70
0CE0
0EC0
0600
0600
0700
0300
0300
ENDCHAR
STARTCHAR uni30E5
ENCODING 12517
SWIDTH 1153 0
DWIDTH 15 0
BBX 11 8 2 1
BITMAP
3F80
3F80
0180
0180
0300
0300
FFE0
FFE0
ENDCHAR
STARTCHAR uni30E6
ENCODING 12518
SWIDTH 1153 0
DWIDTH 15 0
BBX 13 10 1 1
BITMAP
0FC0
3FE0
3860
0060
00E0
00C0
00C0
1FE0
FFF8
F038
ENDCHAR
STARTCHAR uni30E7
ENCODING 12519
SWIDTH 1153 0
DWIDTH 15 0
BBX 8 10 3 0
BITMAP
7F
7F
03
03
7F
7F
03
03
FF
FE
ENDCHAR
STARTCHAR uni30E8
ENCODING 12520
SWIDTH 1153 0
DWIDTH 15 0
BBX 10 12 2 0
BITMAP
7E00
7FC0
03C0
00C0
00C0
7FC0
7FC0
00C0
00C0
01C0
FF80
FF80
ENDCHAR
STARTCHAR uni30E9
ENCODING 12521
SWIDTH 1153 0
DWIDTH 15 0
BBX 12 12 1 0
BITMAP
3FC0
3FC0
0000
0FE0
FFF0
F830
0070
0060
00E0
03C0
0F80
0E00
ENDCHAR
STARTCHAR uni30EA
ENCODING 12522
SWIDTH 1153 0
DWIDTH 15 0
BBX 9 13 3 0
BITMAP
0180
C180
C180
C180
C180
C180
C180
0180
0380
0300
0700
1E00
1C00
ENDCHAR
STARTCHAR uni30EB
ENCODING 12523
SWIDTH 1153 0
DWIDTH 15 0
BBX 13 12 1 0
BITMAP
0300
0300
3300
3300
3300
3300
3300
7318
6338
E3F0
C3E0
0380
ENDCHAR
STARTCHAR uni30EC
ENCODING 12524
SWIDTH 1153 0
DWIDTH 15 0
BBX 10 12 3 0
BITMAP
C000
C000
C000
C000
C000
C0C0
C1C0
C380
CF00
FE00
F800
E000
ENDCHAR
STARTCHAR uni30ED
ENCODING 12525
SWIDTH 1153 0
DWIDTH 15 0
BBX 13 11 1 1
BITMAP
07F0
7FF8
FC18
C018
C018
C038
C030
E030
6070
7FE0
3FE0
ENDCHAR
STARTCHAR uni30EE
ENCODING 12526
SWIDTH 1153 0
DWIDTH 15 0
BBX 10 10 2 0
BITMAP
7F80
FFC0
C0C0
C0C0
C0C0
01C0
0180
0380
0F00
0E00
ENDCHAR
STARTCHAR uni30EF
ENCODING 12527
SWIDTH 1153 0
DWIDTH 15 0
BBX 11 12 2 0
BITMAP
0FC0
FFE0
F860
C060
C060
C060
00E0
00C0
01C0
0380
0F00
0E00
ENDCHAR
STARTCHAR uni30F0
ENCODING 12528
SWIDTH 1153 0
DWIDTH 15 0
BBX 13 13 1 0
BITMAP
0180
0180
0180
3FE0
3FE0
1980
1980
1FF8
FFF8
F180
01C0
00C0
00C0
ENDCHAR
STARTCHAR uni30F1
ENCODING 12529
SWIDTH 1153 0
DWIDTH 15 0
BBX 13 11 1 1
BITMAP
07E0
7FF0
7C70
00E0
06C0
0600
0700
0300
0300
FFF8
FFF8
ENDCHAR
STARTCHAR uni30F2
ENCODING 12530
SWIDTH 1153 0
DWIDTH 15 0
BBX 11 12 2 0
BITMAP
0FE0
FFE0
F860
0060
07E0
7FE0
7CE0
00C0
01C0
0780
1F00
1C00
ENDCHAR
STARTCHAR uni30F3
ENCODING 12531
SWIDTH 1153 0
DWIDTH 15 0
BBX 12 11 2 0
BITMAP
C000
F030
7830
1870
0060
00E0
01C0
0380
0F00
7E00
7800
ENDCHAR
STARTCHAR uni30F4
ENCODING 12532
SWIDTH 1153 0
DWIDTH 15 0
BBX 12 14 1 0
BITMAP
0060
05B0
06C0
0600
7FE0
FFF0
C030
C030
C030
0070
0060
01E0
0FC0
0F00
ENDCHAR
STARTCHAR uni30F5
ENCODING 12533
SWIDTH 1153 0
DWIDTH 15 0
BBX 9 10 3 0
BITMAP
1800
1800
1F00
FF80
F980
1980
3180
7180
E780
C700
ENDCHAR
STARTCHAR uni30F6
ENCODING 12534
SWIDTH 1153 0
DWIDTH 15 0
BBX 10 10 2 0
BITMAP
1800
1800
3000
3FC0
7FC0
E300
C300
0700
1E00
1C00
ENDCHAR
STARTCHAR uni30F7
ENCODING 12535
SWIDTH 1153 0
DWIDTH 15 0
BBX 12 14 2 0
BITMAP
0060
01B0
00C0
7F00
FFE0
C060
C060
C060
00E0
00C0
01C0
0380
0F00
0E00
ENDCHAR
STARTCHAR uni30F8
ENCODING 12536
SWIDTH 1153 0
DWIDTH 15 0
BBX 13 14 1 0
BITMAP
0010
0198
01A8
01B0
3FD0
3FE0
1980
1980
1FF8
FFF8
F180
01C0
00C0
00C0
ENDCHAR
STARTCHAR uni30F9
ENCODING 12537
SWIDTH 1153 0
DWIDTH 15 0
BBX 13 13 1 1
BITMAP
0010
0018
07A8
7FB0
7CD0
01C0
0780
0600
0700
0300
0300
FFF8
FFF8
ENDCHAR
STARTCHAR uni30FA
ENCODING 12538
SWIDTH 1153 0
DWIDTH 15 0
BBX 12 14 2 0
BITMAP
0060
01B0
00C0
FF00
FFE0
0060
0060
7FE0
7FC0
00C0
01C0
0780
1F00
1C00
ENDCHAR
STARTCHAR uni30FB
ENCODING 12539
SWIDTH 1153 0
DWIDTH 15 0
BBX 5 5 5 4
BITMAP
60
F8
F8
78
30
ENDCHAR
STARTCHAR uni30FC
ENCODING 12540
SWIDTH 1153 0
DWIDTH 15 0
BBX 13 3 1 5
BITMAP
0FF0
FFF8
F838
ENDCHAR
STARTCHAR uni30FD
ENCODING 12541
SWIDTH 1153 0
DWIDTH 15 0
BBX 6 6 5 4
BITMAP
C0
E0
70
38
1C
0C
ENDCHAR
STARTCHAR uni30FE
ENCODING 12542
SWIDTH 1153 0
DWIDTH 15 0
BBX 7 9 5 4
BITMAP
0C
06
18
CC
E0
70
38
1C
0C
ENDCHAR
STARTCHAR uni30FF
ENCODING 12543
SWIDTH 1153 0
DWIDTH 15 0
BBX 9 10 3 1
BITMAP
3F00
FF00
C300
0300
0300
0180
0180
0180
0180
0180
ENDCHAR
STARTCHAR uni4927
ENCODING 18727
SWIDTH 1153 0
DWIDTH 15 0
BBX 13 13 1 0
BITMAP
71F8
7BF8
FA08
C2E8
FAE8
FAA8
32A8
FAA8
FAE8
32E8
BA08
FBF8
E3F0
ENDCHAR
STARTCHAR uni4E00
ENCODING 19968
SWIDTH 1153 0
DWIDTH 15 0
BBX 13 3 1 5
BITMAP
C070
FFF8
7F98
ENDCHAR
STARTCHAR uni4E01
ENCODING 19969
SWIDTH 1153 0
DWIDTH 15 0
BBX 13 12 1 0
BITMAP
1FF8
FFF8
F300
0300
0300
0300
0300
0300
0300
0300
0F00
0F00
ENDCHAR
STARTCHAR uni4E03
ENCODING 19971
SWIDTH 1153 0
DWIDTH 15 0
BBX 13 11 1 1
BITMAP
0C00
0C00
0C78
0FF8
FF80
FC00
0C00
0C00
0C00
0FF0
07F0
ENDCHAR
STARTCHAR uni4E07
ENCODING 19975
SWIDTH 1153 0
DWIDTH 15 0
BBX 13 13 1 0
BITMAP
FFF8
FFF8
0600
0600
07E0
0FF0
0C30
0C30
1830
3870
7060
63E0
01C0
ENDCHAR
STARTCHAR uni4E08
ENCODING 19976
SWIDTH 1153 0
DWIDTH 15 0
BBX 13 13 1 0
BITMAP
0300
0300
0300
FFF8
FFF8
0300
3300
3300
1B00
1F00
0FC0
FDF8
F878
ENDCHAR
STARTCHAR uni4E09
ENCODING 19977
SWIDTH 1153 0
DWIDTH 15 0
BBX 13 12 1 1
BITMAP
01E0
3FE0
3F00
0000
00C0
1FC0
1F80
0000
0000
3FC0
FFF8
E038
ENDCHAR
STARTCHAR uni4E0A
ENCODING 19978
SWIDTH 1153 0
DWIDTH 15 0
BBX 13 13 1 0
BITMAP
0600
0600
0600
0600
0670
07F0
07C0
0300
0300
0300
0300
FFF8
FFF8
ENDCHAR
STARTCHAR uni4E0B
ENCODING 19979
SWIDTH 1153 0
DWIDTH 15 0
BBX 13 13 1 0
BITMAP
FFF8
FFF8
0600
0600
0780
07E0
0670
0630
0600
0600
0E00
0C00
0C00
ENDCHAR
STARTCHAR uni4E0D
ENCODING 19981
SWIDTH 1153 0
DWIDTH 15 0
BBX 13 13 1 0
BITMAP
1FF8
FFF8
F300
0700
0F60
1F70
3B38
F318
C318
0300
0300
0300
0300
ENDCHAR
STARTCHAR uni4E0E
ENCODING 19982
SWIDTH 1153 0
DWIDTH 15 0
BBX 13 13 1 0
BITMAP
0C00
0C00
0FE0
1FE0
1800
1F80
1FC0
00C0
FFF8
FFF8
0180
0780
0700
ENDCHAR
STARTCHAR uni4E14
ENCODING 19988
SWIDTH 1153 0
DWIDTH 15 0
BBX 13 12 1 0
BITMAP
1FE0
3FE0
3060
3060
3FE0
3060
3060
3FE0
3060
3060
FFF8
FFF8
ENDCHAR
STARTCHAR uni4E16
ENCODING 19990
SWIDTH 1153 0
DWIDTH 15 0
BBX 13 12 1 0
BITMAP
0330
3330
33F8
FFF8
FF30
3330
33F0
33E0
3000
3000
3FF0
1FF0
ENDCHAR
STARTCHAR uni4E18
ENCODING 19992
SWIDTH 1153 0
DWIDTH 15 0
BBX 13 13 1 0
BITMAP
01C0
07C0
1F00
3C00
3000
3FF0
3FF0
30C0
30C0
30C0
30C0
FFF8
FFF8
ENDCHAR
STARTCHAR uni4E19
ENCODING 19993
SWIDTH 1153 0
DWIDTH 15 0
BBX 13 13 1 0
BITMAP
7FF0
7FF0
0300
7FF0
FFF8
C318
C718
CF98
DDD8
D8D8
E018
6078
6070
ENDCHAR
STARTCHAR uni4E21
ENCODING 20001
SWIDTH 1153 0
DWIDTH 15 0
BBX 13 13 1 0
BITMAP
7FF0
7FF0
0600
FFF8
FFF8
C618
D6D8
D6D8
D6D8
DFD8
E018
6078
6070
ENDCHAR
STARTCHAR uni4E26
ENCODING 20006
SWIDTH 1153 0
DWIDTH 15 0
BBX 13 13 1 0
BITMAP
3060
38E0
18C0
7FF0
7FF0
0D80
CD98
ED98
6DB8
6DB0
0D80
FFF8
FFF8
ENDCHAR
STARTCHAR uni4E2D
ENCODING 20013
SWIDTH 1153 0
DWIDTH 15 0
BBX 12 13 2 0
BITMAP
0C00
0C00
0C00
FFF0
FFF0
C630
C630
FFF0
7FE0
0600
0600
0600
0600
ENDCHAR
STARTCHAR uni4E32
ENCODING 20018
SWIDTH 1153 0
DWIDTH 15 0
BBX 12 13 2 0
BITMAP
0600
0600
7FE0
6660
6660
7FE0
0600
FFF0
C630
C630
FFF0
0600
0600
ENDCHAR
STARTCHAR uni4E38
ENCODING 20024
SWIDTH 1153 0
DWIDTH 15 0
BBX 13 13 1 0
BITMAP
0C00
0C00
0C00
FFC0
FFC0
0CC0
6CC0
7CC0
1EC0
36D8
70D8
E0F8
C070
ENDCHAR
STARTCHAR uni4E3B
ENCODING 20027
SWIDTH 1153 0
DWIDTH 15 0
BBX 13 13 1 0
BITMAP
0E00
0700
0000
7FF0
7FF0
0600
0600
3FE0
3FE0
0300
0300
FFF8
FFF8
ENDCHAR
STARTCHAR uni4E3C
ENCODING 20028
SWIDTH 1000 0
DWIDTH 15 0
BBX 13 13 1 0
BITMAP
1860
1860
FFF8
FFF8
3060
3660
3760
3360
3060
FFF8
FFF8
3060
3060
ENDCHAR
STARTCHAR uni4E43
ENCODING 20035
SWIDTH 1153 0
DWIDTH 15 0
BBX 13 12 1 0
BITMAP
7FE0
7FE0
0C60
0C60
0CC0
1CF8
18F8
3818
3018
7018
E1F8
C0F0
ENDCHAR
STARTCHAR uni4E45
ENCODING 20037
SWIDTH 1153 0
DWIDTH 15 0
BBX 13 13 1 0
BITMAP
1800
1F80
1FC0
38C0
70C0
61C0
0180
0380
0780
0FC0
3CE0
F878
E038
ENDCHAR
STARTCHAR uni4E57
ENCODING 20055
SWIDTH 1153 0
DWIDTH 15 0
BBX 13 13 1 0
BITMAP
1FE0
1FE0
0300
7FF8
7FF8
3330
FFF8
FFF8
3330
3FF0
1FE0
FB78
F338
ENDCHAR
STARTCHAR uni4E59
ENCODING 20057
SWIDTH 1153 0
DWIDTH 15 0
BBX 12 12 2 0
BITMAP
FFC0
FFC0
0380
0700
1E00
3800
7000
E000
C030
C030
FFF0
7FE0
ENDCHAR
STARTCHAR uni4E5D
ENCODING 20061
SWIDTH 1153 0
DWIDTH 15 0
BBX 13 13 1 0
BITMAP
0C00
0C00
0C00
FFC0
FFC0
0CC0
1CC0
18C0
18C0
38D8
70D8
E0F8
C070
ENDCHAR
STARTCHAR uni4E5E
ENCODING 20062
SWIDTH 1153 0
DWIDTH 15 0
BBX 13 13 1 0
BITMAP
1800
1800
3FF0
7FF0
E000
DF80
1FC0
01C0
0F80
1E00
3818
3FF8
1FF8
ENDCHAR
STARTCHAR uni4E71
ENCODING 20081
SWIDTH 1153 0
DWIDTH 15 0
BBX 13 13 1 0
BITMAP
1980
7980
7180
3180
FD80
FD80
3180
3180
FD80
CD98
CD98
FDF8
78F0
ENDCHAR
STARTCHAR uni4E73
ENCODING 20083
SWIDTH 1153 0
DWIDTH 15 0
BBX 13 13 1 0
BITMAP
3CC0
7CC0
00C0
B6C0
D6C0
00C0
7CC0
78C0
3EC0
FED8
FCD8
1CF8
3878
ENDCHAR
STARTCHAR uni4E7E
ENCODING 20094
SWIDTH 1153 0
DWIDTH 15 0
BBX 13 13 1 0
BITMAP
3180
FD80
FDF8
33F8
FB00
CCF0
FCF0
CC30
FCE0
31C0
FD98
FDF8
30F8
ENDCHAR
STARTCHAR uni4E80
ENCODING 20096
SWIDTH 1153 0
DWIDTH 15 0
BBX 13 13 1 0
BITMAP
3F80
F180
DFE0
3330
3FF0
3330
3FF0
6318
7FF8
6318
3FF0
0318
01F8
ENDCHAR
STARTCHAR uni4E86
ENCODING 20102
SWIDTH 1153 0
DWIDTH 15 0
BBX 11 13 2 0
BITMAP
0F80
FFE0
F0E0
03C0
0F80
0C00
0600
0700
0300
3300
3B00
1F00
0E00
ENDCHAR
STARTCHAR uni4E88
ENCODING 20104
SWIDTH 1153 0
DWIDTH 15 0
BBX 13 13 1 0
BITMAP
3FE0
3FE0
00C0
0F80
0700
FFF8
FFF8
0318
0330
0300
0300
0F00
0E00
ENDCHAR
STARTCHAR uni4E89
ENCODING 20105
SWIDTH 1153 0
DWIDTH 15 0
BBX 13 13 1 0
BITMAP
1F80
3F80
7300
6FC0
1FE0
0660
FFF8
FFF8
0660
3FE0
3FC0
0600
0E00
ENDCHAR
STARTCHAR uni4E8B
ENCODING 20107
SWIDTH 1153 0
DWIDTH 15 0
BBX 13 13 1 0
BITMAP
0300
7FF8
7FF8
3330
3FF0
3FE0
0330
FFF8
FFF8
0330
3FF0
3FE0
0300
ENDCHAR
STARTCHAR uni4E8C
ENCODING 20108
SWIDTH 1153 0
DWIDTH 15 0
BBX 13 10 1 1
BITMAP
07C0
3FE0
3C00
0000
0000
0000
0000
1FF0
FFF8
E018
ENDCHAR
STARTCHAR uni4E92
ENCODING 20114
SWIDTH 1153 0
DWIDTH 15 0
BBX 13 13 1 0
BITMAP
7FF0
7FF0
0C00
0FC0
1FE0
1860
3060
30E0
3FC0
1FC0
0180
FFF8
FFF8
ENDCHAR
STARTCHAR uni4E94
ENCODING 20116
SWIDTH 1153 0
DWIDTH 15 0
BBX 13 12 1 0
BITMAP
7FF0
7FF0
0300
0700
0600
7FE0
7FE0
0C60
1C60
1860
FFF8
FFF8
ENDCHAR
STARTCHAR uni4E95
ENCODING 20117
SWIDTH 1153 0
DWIDTH 15 0
BBX 13 13 1 0
BITMAP
18C0
18C0
18C0
FFF8
FFF8
18C0
18C0
18C0
FFF8
FFF8
18C0
38C0
30C0
ENDCHAR
STARTCHAR uni4E9B
ENCODING 20123
SWIDTH 1153 0
DWIDTH 15 0
BBX 13 13 1 0
BITMAP
0CC0
6CD8
6EF8
6EE0
6CC8
7EF8
FE78
E000
1FE0
1FE0
0000
FFF8
FFF8
ENDCHAR
STARTCHAR uni4E9C
ENCODING 20124
SWIDTH 1153 0
DWIDTH 15 0
BBX 13 13 1 0
BITMAP
7FF0
7FF0
0D80
0D80
7FF0
7FF0
6DB0
7FF0
3FE0
0D80
0D80
FFF8
FFF8
ENDCHAR
STARTCHAR uni4EA1
ENCODING 20129
SWIDTH 1153 0
DWIDTH 15 0
BBX 13 12 1 1
BITMAP
0300
0300
0300
FFF8
FFF8
3000
3000
3000
3000
3000
3FF0
1FF0
ENDCHAR
STARTCHAR uni4EA4
ENCODING 20132
SWIDTH 1153 0
DWIDTH 15 0
BBX 13 13 1 0
BITMAP
0300
FFF8
FFF8
0000
18C0
38F0
F078
DDD8
0F80
0700
0F80
FDF8
F078
ENDCHAR
STARTCHAR uni4EAB
ENCODING 20139
SWIDTH 1153 0
DWIDTH 15 0
BBX 13 13 1 0
BITMAP
0300
FFF8
FFF8
0000
3FE0
3060
1FC0
0380
FFF8
FFF8
0300
0F00
0F00
ENDCHAR
STARTCHAR uni4EAC
ENCODING 20140
SWIDTH 1153 0
DWIDTH 15 0
BBX 13 13 1 0
BITMAP
0300
0300
FFF8
FFF8
0000
3FE0
3060
3060
1FC0
0300
3330
F338
C718
ENDCHAR
STARTCHAR uni4EBA
ENCODING 20154
SWIDTH 1153 0
DWIDTH 15 0
BBX 13 13 1 0
BITMAP
0300
0300
0300
0300
0700
0600
0E00
0F00
1F80
39C0
70E0
E078
C038
ENDCHAR
STARTCHAR uni4EC1
ENCODING 20161
SWIDTH 1153 0
DWIDTH 15 0
BBX 13 13 1 0
BITMAP
3000
3000
37F0
77F0
6000
E000
E000
6000
6000
6000
6FF8
6FF8
6000
ENDCHAR
STARTCHAR uni4ECA
ENCODING 20170
SWIDTH 1153 0
DWIDTH 15 0
BBX 13 13 1 0
BITMAP
0700
0F80
1DC0
38E0
7070
EFB8
CF98
0000
3FE0
3FE0
00E0
07C0
0780
ENDCHAR
STARTCHAR uni4ECB
ENCODING 20171
SWIDTH 1153 0
DWIDTH 15 0
BBX 13 13 1 0
BITMAP
0700
0F80
1DC0
38E0
7070
E038
D8D8
18C0
18C0
18C0
30C0
70C0
60C0
ENDCHAR
STARTCHAR uni4ECF
ENCODING 20175
SWIDTH 1153 0
DWIDTH 15 0
BBX 13 13 1 0
BITMAP
18C0
18C0
38C0
30C0
7180
F180
F180
3330
3330
3330
3678
37F8
3798
ENDCHAR
STARTCHAR uni4ED5
ENCODING 20181
SWIDTH 1153 0
DWIDTH 15 0
BBX 13 13 1 0
BITMAP
18C0
18C0
38C0
30C0
70C0
F7F8
F7F8
30C0
30C0
30C0
30C0
33F0
33F0
ENDCHAR
STARTCHAR uni4ED6
ENCODING 20182
SWIDTH 1153 0
DWIDTH 15 0
BBX 13 13 1 0
BITMAP
18C0
18C0
36C0
36F8
77F8
7FD8
FED8
F6D8
36D8
3600
3618
37F8
33F0
ENDCHAR
STARTCHAR uni4ED8
ENCODING 20184
SWIDTH 1153 0
DWIDTH 15 0
BBX 13 13 1 0
BITMAP
1860
1860
3860
37F8
77F8
F060
F660
3760
3360
3060
3060
30E0
30E0
ENDCHAR
STARTCHAR uni4EDD
ENCODING 20189
SWIDTH 1153 0
DWIDTH 15 0
BBX 13 13 1 0
BITMAP
0700
0F80
1DC0
38E0
F078
E018
1FC0
1FC0
0300
0300
0300
7FF0
7FF0
ENDCHAR
STARTCHAR uni4EE3
ENCODING 20195
SWIDTH 1153 0
DWIDTH 15 0
BBX 13 13 1 0
BITMAP
19B0
19B8
3998
3180
71F8
F7F8
F7C0
30C0
30C0
30E0
3068
3078
3038
ENDCHAR
STARTCHAR uni4EE4
ENCODING 20196
SWIDTH 1153 0
DWIDTH 15 0
BBX 13 13 1 0
BITMAP
0700
0F80
1DC0
38E0
7770
E738
C018
3FE0
3FE0
00C0
1D80
1FC0
03C0
ENDCHAR
STARTCHAR uni4EE5
ENCODING 20197
SWIDTH 1153 0
DWIDTH 15 0
BBX 13 12 1 0
BITMAP
6018
6618
6718
6318
7330
7030
3070
3C60
3CF0
F1F8
C798
0718
ENDCHAR
STARTCHAR uni4EEE
ENCODING 20206
SWIDTH 1153 0
DWIDTH 15 0
BBX 13 13 1 0
BITMAP
33F8
37F8
3600
7600
67F0
E7F8
E718
E7B8
6EF0
6CE0
6DF0
6BB8
6318
ENDCHAR
STARTCHAR uni4EF0
ENCODING 20208
SWIDTH 1153 0
DWIDTH 15 0
BBX 13 13 1 0
BITMAP
3300
3378
66F8
6ED8
ECD8
ECD8
6CD8
6CD8
6CD8
6EF8
6EF8
60C0
60C0
ENDCHAR
STARTCHAR uni4EF2
ENCODING 20210
SWIDTH 1153 0
DWIDTH 15 0
BBX 13 13 1 0
BITMAP
18C0
18C0
38C0
33F8
77F8
F4C8
F4C8
37F8
37F0
30C0
30C0
30C0
30C0
ENDCHAR
STARTCHAR uni4EF6
ENCODING 20214
SWIDTH 1153 0
DWIDTH 15 0
BBX 13 13 1 0
BITMAP
18C0
18C0
3AC0
33F0
77F0
F6C0
F0C0
37F8
37F8
30C0
30C0
30C0
30C0
ENDCHAR
STARTCHAR uni4EFB
ENCODING 20219
SWIDTH 1153 0
DWIDTH 15 0
BBX 13 13 1 0
BITMAP
1830
18F0
3BE0
33C0
70C0
F0C0
F7F8
37F8
30C0
30C0
30C0
37F8
37F8
ENDCHAR
STARTCHAR uni4F01
ENCODING 20225
SWIDTH 1153 0
DWIDTH 15 0
BBX 13 13 1 0
BITMAP
0700
0F80
1DC0
38E0
7370
E338
C318
1BE0
1BE0
1B00
1B00
FFF8
FFF8
ENDCHAR
STARTCHAR uni4F0A
ENCODING 20234
SWIDTH 1153 0
DWIDTH 15 0
BBX 13 13 1 0
BITMAP
3000
37F0
77F0
61B0
EFF8
EFF8
E1B0
6FF0
6FE0
6180
6180
6380
6300
ENDCHAR
STARTCHAR uni4F0E
ENCODING 20238
SWIDTH 1153 0
DWIDTH 15 0
BBX 13 13 1 0
BITMAP
18C0
18C0
37F8
37F8
70C0
F3F0
F7F8
3618
3738
33F0
31E0
37F8
3738
ENDCHAR
STARTCHAR uni4F0F
ENCODING 20239
SWIDTH 1000 0
DWIDTH 15 0
BBX 13 13 1 0
BITMAP
18D8
18D8
38D8
30C0
77F8
F7F8
F0C0
31C0
31E0
33F0
3330
3738
3618
ENDCHAR
STARTCHAR uni4F10
ENCODING 20240
SWIDTH 1153 0
DWIDTH 15 0
BBX 13 13 1 0
BITMAP
19B0
19B8
3998
3180
71F8
F7F8
F7C0
30D8
30F8
3060
31F0
37B8
3618
ENDCHAR
STARTCHAR uni4F11
ENCODING 20241
SWIDTH 1153 0
DWIDTH 15 0
BBX 13 13 1 0
BITMAP
18C0
18C0
38C0
37F8
77F8
F0C0
F1E0
33F0
33F0
36D8
36D8
30C0
30C0
ENDCHAR
STARTCHAR uni4F1A
ENCODING 20250
SWIDTH 1153 0
DWIDTH 15 0
BBX 13 13 1 0
BITMAP
0700
0F80
1DC0
38E0
7FF0
EFB8
C018
7FF0
7FF0
0CC0
18E0
3FF0
3F30
ENDCHAR
STARTCHAR uni4F1D
ENCODING 20253
SWIDTH 1153 0
DWIDTH 15 0
BBX 13 13 1 0
BITMAP
1800
1BF0
3BF0
3000
7000
F7F8
F7F8
3180
3180
3330
3370
37F8
3798
ENDCHAR
STARTCHAR uni4F38
ENCODING 20280
SWIDTH 1153 0
DWIDTH 15 0
BBX 13 13 1 0
BITMAP
18C0
18C0
38C0
37F8
76D8
F6D8
F7F8
36D8
36D8
33F0
30C0
30C0
30C0
ENDCHAR
STARTCHAR uni4F3A
ENCODING 20282
SWIDTH 1153 0
DWIDTH 15 0
BBX 13 13 1 0
BITMAP
37F8
37F8
7018
67D8
E7D8
E018
E7D8
67D8
6458
67D8
6798
6038
6030
ENDCHAR
STARTCHAR uni4F3C
ENCODING 20284
SWIDTH 1153 0
DWIDTH 15 0
BBX 13 13 1 0
BITMAP
3030
3030
31B0
6DB0
6DB0
EDB0
EC30
6F60
6F60
6CE0
6DF0
63B8
6318
ENDCHAR
STARTCHAR uni4F46
ENCODING 20294
SWIDTH 1000 0
DWIDTH 15 0
BBX 13 13 1 0
BITMAP
1BF0
1BF8
3B18
3618
77F8
F7F8
F618
3618
37F8
37F8
3000
37F8
37F8
ENDCHAR
STARTCHAR uni4F4D
ENCODING 20301
SWIDTH 1153 0
DWIDTH 15 0
BBX 13 13 1 0
BITMAP
30C0
30C0
6FF8
6FF8
6000
E630
E630
6630
6630
6360
6360
6FF8
6FF8
ENDCHAR
STARTCHAR uni4F4E
ENCODING 20302
SWIDTH 1153 0
DWIDTH 15 0
BBX 13 13 1 0
BITMAP
3060
31E0
37C0
6EC0
6CC0
EFF0
EFF0
ECC0
6EC0
6E68
6078
6FB8
6F98
ENDCHAR
STARTCHAR uni4F4F
ENCODING 20303
SWIDTH 1153 0
DWIDTH 15 0
BBX 13 13 1 0
BITMAP
19C0
18E0
3800
37F8
77F8
F0C0
F0C0
33F0
33F0
30C0
30C0
37F8
37F8
ENDCHAR
STARTCHAR uni4F50
ENCODING 20304
SWIDTH 1153 0
DWIDTH 15 0
BBX 13 13 1 0
BITMAP
3180
3180
31F8
7FF8
6F80
E300
E3F8
67F8
6E60
6C60
6860
67F8
67F8
ENDCHAR
STARTCHAR uni4F53
ENCODING 20307
SWIDTH 1153 0
DWIDTH 15 0
BBX 13 13 1 0
BITMAP
3180
3180
3180
6FF0
6FF0
E180
E7E0
EFF0
7DB8
7BD8
67E0
6180
6180
ENDCHAR
STARTCHAR uni4F55
ENCODING 20309
SWIDTH 1153 0
DWIDTH 15 0
BBX 13 13 1 0
BITMAP
1800
1BF8
3BF8
3030
77B0
F7B0
F4B0
34B0
37B0
37B0
3030
30F0
30E0
ENDCHAR
STARTCHAR uni4F59
ENCODING 20313
SWIDTH 1153 0
DWIDTH 15 0
BBX 13 13 1 0
BITMAP
0F00
1F80
39E0
7070
EFB8
CF98
0300
7FF0
7FF0
0300
3360
7770
6730
ENDCHAR
STARTCHAR uni4F5C
ENCODING 20316
SWIDTH 1153 0
DWIDTH 15 0
BBX 13 13 1 0
BITMAP
1980
1980
39F8
33F8
73C0
F6F8
F6F8
30C0
30F8
30F8
30C0
30C0
30C0
ENDCHAR
STARTCHAR uni4F73
ENCODING 20339
SWIDTH 1153 0
DWIDTH 15 0
BBX 13 13 1 0
BITMAP
18C0
18C0
3BF0
33F0
70C0
F7F8
F7F8
30C0
37F0
37F0
30C0
37F8
37F8
ENDCHAR
STARTCHAR uni4F7F
ENCODING 20351
SWIDTH 1153 0
DWIDTH 15 0
BBX 13 13 1 0
BITMAP
18C0
1BF8
3BF8
30C0
73F8
F6D8
F6D8
37F0
30C0
33C0
31E0
3778
3618
ENDCHAR
STARTCHAR uni4F8B
ENCODING 20363
SWIDTH 1153 0
DWIDTH 15 0
BBX 13 13 1 0
BITMAP
37D8
37D8
7318
67D8
E7D8
ECD8
EED8
6BD8
6198
6398
6718
6E78
6C70
ENDCHAR
STARTCHAR uni4F8D
ENCODING 20365
SWIDTH 1153 0
DWIDTH 15 0
BBX 13 13 1 0
BITMAP
18C0
1BF0
3BF0
30C0
77F8
F7F8
F060
37F8
37F8
3060
3360
3160
30E0
ENDCHAR
STARTCHAR uni4F9B
ENCODING 20379
SWIDTH 1153 0
DWIDTH 15 0
BBX 13 13 1 0
BITMAP
3330
3330
3330
67F8
67F8
E330
E330
6330
6FF8
6FF8
6000
6738
6618
ENDCHAR
STARTCHAR uni4F9D
ENCODING 20381
SWIDTH 1153 0
DWIDTH 15 0
BBX 13 13 1 0
BITMAP
18C0
18C0
38C0
37F8
77F8
F180
F3D8
37D8
3770
3360
3330
33B8
3398
ENDCHAR
STARTCHAR uni4FA1
ENCODING 20385
SWIDTH 1153 0
DWIDTH 15 0
BBX 13 13 1 0
BITMAP
3000
37F8
77F8
7360
E360
EFF8
EFF8
6D58
6D58
6D58
6D58
6FF8
67F0
ENDCHAR
STARTCHAR uni4FAE
ENCODING 20398
SWIDTH 1153 0
DWIDTH 15 0
BBX 13 13 1 0
BITMAP
3300
33F8
77F8
6E00
EDF0
E3F8
E6D8
67F8
6FF8
6DB0
6FF8
67F8
6060
ENDCHAR
STARTCHAR uni4FAF
ENCODING 20399
SWIDTH 1153 0
DWIDTH 15 0
BBX 13 13 1 0
BITMAP
1BE0
1BF0
3830
37F8
77F8
F180
F7F8
37F8
30C0
37F8
31E0
37F8
3738
ENDCHAR
STARTCHAR uni4FB5
ENCODING 20405
SWIDTH 1153 0
DWIDTH 15 0
BBX 13 13 1 0
BITMAP
1BE0
1830
3BF0
3030
73F0
7000
F7F8
B408
31F0
3230
31E0
37F8
3738
ENDCHAR
STARTCHAR uni4FBF
ENCODING 20415
SWIDTH 1153 0
DWIDTH 15 0
BBX 13 13 1 0
BITMAP
1BF8
1BF8
38C0
37F8
76D8
F7F8
F6D8
37F8
30C0
33C0
31E0
3778
3638
ENDCHAR
STARTCHAR uni4FC2
ENCODING 20418
SWIDTH 1153 0
DWIDTH 15 0
BBX 13 13 1 0
BITMAP
1870
1BF0
31C0
3730
76F0
F3C0
F330
37F8
37D8
30C0
32D0
36D8
36D8
ENDCHAR
STARTCHAR uni4FC3
ENCODING 20419
SWIDTH 1153 0
DWIDTH 15 0
BBX 13 13 1 0
BITMAP
37F8
37F8
3618
6618
6618
E7F8
E3F0
60C0
66F8
66F8
67C0
6FF8
6C78
ENDCHAR
STARTCHAR uni4FCA
ENCODING 20426
SWIDTH 1000 0
DWIDTH 15 0
BBX 13 13 1 0
BITMAP
1980
1BB0
3738
37F8
7160
F778
F618
31E0
37F0
3730
31E0
37F8
3738
ENDCHAR
STARTCHAR uni4FDD
ENCODING 20445
SWIDTH 1153 0
DWIDTH 15 0
BBX 13 13 1 0
BITMAP
19F0
1BF0
3B30
3330
73F0
F0C0
F7F8
37F8
30C0
33F0
36D8
36D8
30C0
ENDCHAR
STARTCHAR uni4FE1
ENCODING 20449
SWIDTH 1153 0
DWIDTH 15 0
BBX 13 13 1 0
BITMAP
18C0
18E0
3800
33F8
73F8
F000
F1F0
3000
31F0
3000
33F8
3318
33F0
ENDCHAR
STARTCHAR uni4FEE
ENCODING 20462
SWIDTH 1153 0
DWIDTH 15 0
BBX 13 13 1 0
BITMAP
3180
31F8
73F8
6318
ECF0
EDF8
ED98
6C60
6DE0
6DD8
6C38
61F0
61E0
ENDCHAR
STARTCHAR uni4FF3
ENCODING 20467
SWIDTH 1153 0
DWIDTH 15 0
BBX 13 13 1 0
BITMAP
3360
3360
6F78
6F78
E360
EF78
EF78
6360
6F78
6F78
6360
6760
6660
ENDCHAR
STARTCHAR uni4FF5
ENCODING 20469
SWIDTH 1153 0
DWIDTH 15 0
BBX 13 13 1 0
BITMAP
30C0
37F8
37F8
70C0
77F8
E7F8
E0C0
EFF8
6FF8
6360
6F78
6FB8
6398
ENDCHAR
STARTCHAR uni4FFA
ENCODING 20474
SWIDTH 1153 0
DWIDTH 15 0
BBX 13 13 1 0
BITMAP
3180
3180
6FF8
6FF8
E660
ED30
7FF8
6DB0
6FF0
6DB0
67E0
6198
60F8
ENDCHAR
STARTCHAR uni5009
ENCODING 20489
SWIDTH 1153 0
DWIDTH 15 0
BBX 13 13 1 0
BITMAP
0F00
1FC0
38E0
7FF8
F078
FFE0
3060
3FE0
7000
7FF0
F830
DFF0
1FF0
ENDCHAR
STARTCHAR uni500B
ENCODING 20491
SWIDTH 1153 0
DWIDTH 15 0
BBX 13 13 1 0
BITMAP
37F8
37F8
3618
6C98
6CF8
EFD8
EC98
EDD8
6D58
6DD8
6C18
6FF8
6FF8
ENDCHAR
STARTCHAR uni500D
ENCODING 20493
SWIDTH 1153 0
DWIDTH 15 0
BBX 13 13 1 0
BITMAP
18C0
1FF8
37F8
3330
7330
F7F8
F7F8
3000
37F8
3618
3618
37F8
33F0
ENDCHAR
STARTCHAR uni5012
ENCODING 20498
SWIDTH 1153 0
DWIDTH 15 0
BBX 13 13 1 0
BITMAP
3018
37D8
7FD8
6618
ECD8
EFD8
E318
6FD8
6FD8
6318
6FD8
6F38
6030
ENDCHAR
STARTCHAR uni5019
ENCODING 20505
SWIDTH 1153 0
DWIDTH 15 0
BBX 13 13 1 0
BITMAP
31F0
31F0
7030
6DF8
EDF8
EC80
EDF8
6DF8
6C60
6DF8
6C60
6DF8
6198
ENDCHAR
STARTCHAR uni501F
ENCODING 20511
SWIDTH 1153 0
DWIDTH 15 0
BBX 13 13 1 0
BITMAP
3360
3360
77F0
67F0
E360
EFF8
EFF8
6000
67F0
6630
67F0
6630
67F0
ENDCHAR
STARTCHAR uni5024
ENCODING 20516
SWIDTH 1153 0
DWIDTH 15 0
BBX 13 13 1 0
BITMAP
30C0
30C0
77F8
67F8
E0C0
EDF0
ED30
6DF0
6D30
6DF0
6D30
6FF8
6FF8
ENDCHAR
STARTCHAR uni5039
ENCODING 20537
SWIDTH 1153 0
DWIDTH 15 0
BBX 13 13 1 0
BITMAP
18C0
19E0
3BF0
3738
77F8
F0C0
F3F0
32D0
33F0
30C0
31E0
3738
3618
ENDCHAR
STARTCHAR uni5049
ENCODING 20553
SWIDTH 1153 0
DWIDTH 15 0
BBX 13 13 1 0
BITMAP
3180
37F0
3330
6FF8
6000
E7F0
E630
67F0
60C0
67F8
6CC0
6FF8
60C0
ENDCHAR
STARTCHAR uni505C
ENCODING 20572
SWIDTH 1153 0
DWIDTH 15 0
BBX 13 13 1 0
BITMAP
30C0
37F8
77F8
6000
E7F8
E618
E7F8
6000
67F8
6FF8
6CD8
61C0
61C0
ENDCHAR
STARTCHAR uni5065
ENCODING 20581
SWIDTH 1153 0
DWIDTH 15 0
BBX 13 13 1 0
BITMAP
3060
31F8
7C68
6FF8
E468
EDF8
EE60
66F8
6C60
6DF8
6660
6FF8
6DF8
ENDCHAR
STARTCHAR uni5074
ENCODING 20596
SWIDTH 1153 0
DWIDTH 15 0
BBX 13 13 1 0
BITMAP
3798
3798
6DB8
6DB8
EFB8
EDB8
EDB8
6FB8
6DB8
6D98
6718
6FB8
6DB8
ENDCHAR
STARTCHAR uni5075
ENCODING 20597
SWIDTH 1000 0
DWIDTH 15 0
BBX 13 13 1 0
BITMAP
18C0
18F8
38C0
33F8
7618
F7F8
F618
37F8
3618
33F8
3000
3738
3738
ENDCHAR
STARTCHAR uni5076
ENCODING 20598
SWIDTH 1153 0
DWIDTH 15 0
BBX 13 13 1 0
BITMAP
37F0
37F0
76B0
77F0
E6B0
E7F0
E180
6FF0
6FF8
6D98
6DD8
6FB8
6C38
ENDCHAR
STARTCHAR uni507D
ENCODING 20605
SWIDTH 1153 0
DWIDTH 15 0
BBX 13 13 1 0
BITMAP
3660
3260
30C0
67F0
6730
E3F0
E638
6FF8
6C18
60D8
6B58
6D38
6C30
ENDCHAR
STARTCHAR uni5091
ENCODING 20625
SWIDTH 1153 0
DWIDTH 15 0
BBX 13 13 1 0
BITMAP
3730
3778
7550
6D50
E378
EF78
EE30
60C0
6FF8
6FF8
63E0
6FF8
6CD8
ENDCHAR
STARTCHAR uni5098
ENCODING 20632
SWIDTH 1153 0
DWIDTH 15 0
BBX 13 13 1 0
BITMAP
0700
1FC0
F8F8
E338
3B60
6B58
1320
7B78
0300
FFF8
FFF8
0300
0300
ENDCHAR
STARTCHAR uni5099
ENCODING 20633
SWIDTH 1153 0
DWIDTH 15 0
BBX 13 13 1 0
BITMAP
3360
37F0
7360
6FF8
EFF8
E600
EFF0
6EB0
7FF0
76B0
67F0
66B0
66B0
ENDCHAR
STARTCHAR uni50AC
ENCODING 20652
SWIDTH 1153 0
DWIDTH 15 0
BBX 13 13 1 0
BITMAP
30C0
36D8
76D8
67F8
E000
E660
EFF8
7E60
67F8
6660
67F8
6660
67F8
ENDCHAR
STARTCHAR uni50B2
ENCODING 20658
SWIDTH 1153 0
DWIDTH 15 0
BBX 13 13 1 0
BITMAP
3260
3760
7760
6278
EFF8
EFD0
E0D0
6650
6F70
6670
6778
6D58
6B58
ENDCHAR
STARTCHAR uni50B5
ENCODING 20661
SWIDTH 1153 0
DWIDTH 15 0
BBX 13 13 1 0
BITMAP
18C0
1BF0
38C0
33F0
70C0
F7F8
F330
33F0
3330
33F0
31E0
3738
3618
ENDCHAR
STARTCHAR uni50B7
ENCODING 20663
SWIDTH 1153 0
DWIDTH 15 0
BBX 13 13 1 0
BITMAP
1B00
1BF8
33F8
3610
77F0
F210
F3F0
3000
37F8
33F8
3558
3558
32B0
ENDCHAR
STARTCHAR uni50BE
ENCODING 20670
SWIDTH 1153 0
DWIDTH 15 0
BBX 13 13 1 0
BITMAP
31F8
31F8
7060
6DF8
ED98
EFF8
ED98
6DF8
6D98
6DF8
6EF0
6DB8
6198
ENDCHAR
STARTCHAR uni50C5
ENCODING 20677
SWIDTH 1153 0
DWIDTH 15 0
BBX 13 13 1 0
BITMAP
3330
37F8
3330
73F0
60C0
E7F8
E4C8
E7F8
60C0
67F8
60C0
67F8
67F8
ENDCHAR
STARTCHAR uni50CD
ENCODING 20685
SWIDTH 1153 0
DWIDTH 15 0
BBX 13 13 1 0
BITMAP
3330
3730
3230
6F78
6278
EFA8
EAA8
EFA8
6AA8
6F68
6268
6FD8
6CD8
ENDCHAR
STARTCHAR uni50CF
ENCODING 20687
SWIDTH 1153 0
DWIDTH 15 0
BBX 13 13 1 0
BITMAP
3180
37E0
3660
70C0
67F8
E4C8
E7F8
E180
6FD8
60E0
6FF0
62D8
6DC8
ENDCHAR
STARTCHAR uni50D5
ENCODING 20693
SWIDTH 1153 0
DWIDTH 15 0
BBX 13 13 1 0
BITMAP
1AA8
18A0
37F8
37F8
7330
F7F8
F7F8
30C0
37F8
37F8
30E0
37F8
3738
ENDCHAR
STARTCHAR uni5100
ENCODING 20736
SWIDTH 1153 0
DWIDTH 15 0
BBX 13 13 1 0
BITMAP
3330
37F8
70C0
67F8
E0C0
EFF8
E310
6660
6FF8
6660
6F78
6670
6ED8
ENDCHAR
STARTCHAR uni5104
ENCODING 20740
SWIDTH 1153 0
DWIDTH 15 0
BBX 13 13 1 0
BITMAP
31C0
37F0
3220
6FF8
63E0
E630
E7F0
6630
63E0
6CD8
6D18
6BE0
61E0
ENDCHAR
STARTCHAR uni5112
ENCODING 20754
SWIDTH 1153 0
DWIDTH 15 0
BBX 13 13 1 0
BITMAP
37F8
30C0
77F8
6CC8
EDE8
E2D0
E000
6FF8
6180
6FF8
6D58
6D58
6D58
ENDCHAR
STARTCHAR uni511F
ENCODING 20767
SWIDTH 1000 0
DWIDTH 15 0
BBX 13 13 1 0
BITMAP
36D8
32D0
77F8
6D58
EDD8
E000
6FF8
6C18
6FF8
6C18
67F0
6E38
6C18
ENDCHAR
STARTCHAR uni512A
ENCODING 20778
SWIDTH 1153 0
DWIDTH 15 0
BBX 13 13 1 0
BITMAP
37F0
3180
77F0
6630
E7F0
E630
EFF8
6D58
62E0
6FF0
6E30
63E0
6F78
ENDCHAR
STARTCHAR uni5143
ENCODING 20803
SWIDTH 1153 0
DWIDTH 15 0
BBX 13 13 1 0
BITMAP
3FE0
3FE0
0000
0000
FFF8
FFF8
0D80
0D80
1D80
1980
3998
F1F8
E0F8
ENDCHAR
STARTCHAR uni5144
ENCODING 20804
SWIDTH 1153 0
DWIDTH 15 0
BBX 13 13 1 0
BITMAP
3FF0
3FF0
3030
3030
3070
3FE0
3FE0
0D80
0D80
1D98
3998
F1F8
E0F8
ENDCHAR
STARTCHAR uni5145
ENCODING 20805
SWIDTH 1153 0
DWIDTH 15 0
BBX 13 13 1 0
BITMAP
0600
07F8
FFF8
FE00
0C60
3FF0
3FB0
0000
0D80
1D80
3998
F1F8
E0F8
ENDCHAR
STARTCHAR uni5146
ENCODING 20806
SWIDTH 1153 0
DWIDTH 15 0
BBX 13 13 1 0
BITMAP
0D80
CD98
CDB8
6DF0
6DE0
0D80
3DE0
FDF8
CD98
1D80
3980
F1F8
E0F8
ENDCHAR
STARTCHAR uni5148
ENCODING 20808
SWIDTH 1153 0
DWIDTH 15 0
BBX 13 13 1 0
BITMAP
3300
3300
7FF0
FFF0
C300
0300
7FF0
7FF0
0D80
0D80
1998
F9F8
E0F8
ENDCHAR
STARTCHAR uni5149
ENCODING 20809
SWIDTH 1153 0
DWIDTH 15 0
BBX 13 13 1 0
BITMAP
0300
6330
7330
3B60
1B60
0300
FFF8
FFF8
0D80
0D80
1998
F9F8
E0F8
ENDCHAR
STARTCHAR uni514B
ENCODING 20811
SWIDTH 1153 0
DWIDTH 15 0
BBX 13 13 1 0
BITMAP
0300
FFF8
FFF8
0300
3FE0
3FE0
3060
3FE0
1FC0
0D80
1D98
F9F8
F0F8
ENDCHAR
STARTCHAR uni5150
ENCODING 20816
SWIDTH 1153 0
DWIDTH 15 0
BBX 13 13 1 0
BITMAP
63F0
67F0
6630
67F0
6630
67F0
67E0
0000
1980
1980
3998
F1F8
E0F8
ENDCHAR
STARTCHAR uni515A
ENCODING 20826
SWIDTH 1153 0
DWIDTH 15 0
BBX 13 13 1 0
BITMAP
3330
1B60
7FF8
FFF8
C018
DFD8
3FE0
3060
3FE0
3FE0
0D98
FDF8
F8F8
ENDCHAR
STARTCHAR uni5165
ENCODING 20837
SWIDTH 1153 0
DWIDTH 15 0
BBX 13 13 1 0
BITMAP
0C00
0C00
0C00
0E00
0600
0600
0700
0F00
1F80
39C0
70E0
E078
C038
ENDCHAR
STARTCHAR uni5168
ENCODING 20840
SWIDTH 1153 0
DWIDTH 15 0
BBX 13 13 1 0
BITMAP
0F00
1FC0
39F0
7078
E018
FFE0
3FE0
0600
1FC0
1FC0
0300
FFF8
FFF8
ENDCHAR
STARTCHAR uni516B
ENCODING 20843
SWIDTH 1153 0
DWIDTH 15 0
BBX 13 11 1 1
BITMAP
0180
1980
1980
19C0
38C0
30C0
30E0
7060
6070
E038
C018
ENDCHAR
STARTCHAR uni516C
ENCODING 20844
SWIDTH 1153 0
DWIDTH 15 0
BBX 13 13 1 0
BITMAP
0180
0D80
0DC0
18C0
38E0
7070
E338
C718
0E00
1C60
39E0
3FF0
3E30
ENDCHAR
STARTCHAR uni516D
ENCODING 20845
SWIDTH 1153 0
DWIDTH 15 0
BBX 12 12 2 1
BITMAP
0600
0600
0600
07F0
FFF0
FC00
0000
30C0
30E0
7070
E030
C030
ENDCHAR
STARTCHAR uni5171
ENCODING 20849
SWIDTH 1153 0
DWIDTH 15 0
BBX 13 13 1 0
BITMAP
18C0
18C0
7FF0
7FF0
18C0
18C0
18C0
FFF8
FFF8
0000
18E0
78F0
7030
ENDCHAR
STARTCHAR uni5173
ENCODING 20851
SWIDTH 1153 0
DWIDTH 15 0
BBX 13 13 1 0
BITMAP
1860
18E0
0CC0
7FF0
7FF0
0300
0300
FFF8
FFF8
0F80
1DE0
78F8
7038
ENDCHAR
STARTCHAR uni5175
ENCODING 20853
SWIDTH 1153 0
DWIDTH 15 0
BBX 13 13 1 0
BITMAP
0380
0F80
3C00
3FF0
3FF0
18C0
18C0
1FC0
FFF8
E038
18C0
78F0
6030
ENDCHAR
STARTCHAR uni5177
ENCODING 20855
SWIDTH 1153 0
DWIDTH 15 0
BBX 13 13 1 0
BITMAP
1FC0
3FE0
3060
3FE0
3060
3FE0
3060
1FE0
FFF8
E038
18C0
78F0
6030
ENDCHAR
STARTCHAR uni5178
ENCODING 20856
SWIDTH 1153 0
DWIDTH 15 0
BBX 13 13 1 0
BITMAP
0D80
0D80
3FE0
7FF0
6DB0
7FF0
7FF0
6DB0
FFF8
FFF8
38E0
F078
E038
ENDCHAR
STARTCHAR uni517C
ENCODING 20860
SWIDTH 1153 0
DWIDTH 15 0
BBX 13 13 1 0
BITMAP
3060
18C0
FFF8
0D80
7FF0
0DB0
FFF8
0DB0
7FF0
1DC0
3DE0
EDB8
CD98
ENDCHAR
STARTCHAR uni5185
ENCODING 20869
SWIDTH 1153 0
DWIDTH 15 0
BBX 13 13 1 0
BITMAP
0300
0300
0300
FFF8
FFF8
C718
CF98
DDD8
D8D8
E018
6018
6070
6070
ENDCHAR
STARTCHAR uni5186
ENCODING 20870
SWIDTH 1153 0
DWIDTH 15 0
BBX 13 13 1 0
BITMAP
7FF8
7FF8
6318
6318
6318
7FF8
FFF8
E018
C018
C018
C018
C038
C038
ENDCHAR
STARTCHAR uni518A
ENCODING 20874
SWIDTH 1153 0
DWIDTH 15 0
BBX 13 13 1 0
BITMAP
3FE0
7FF0
6DB0
6DB0
6DB0
6DB0
FFF8
FFF8
6DB0
6DB0
6DB0
6DB0
6DB0
ENDCHAR
STARTCHAR uni518D
ENCODING 20877
SWIDTH 1153 0
DWIDTH 15 0
BBX 13 13 1 0
BITMAP
3FF0
3FF0
0300
1FE0
3FF0
3330
3FF0
3330
FFF8
FFF8
3030
3070
3060
ENDCHAR
STARTCHAR uni5192
ENCODING 20882
SWIDTH 1153 0
DWIDTH 15 0
BBX 11 13 2 0
BITMAP
FFE0
C060
FFE0
C060
7FC0
0000
7FC0
60C0
7FC0
60C0
7FC0
60C0
3FC0
ENDCHAR
STARTCHAR uni5197
ENCODING 20887
SWIDTH 1153 0
DWIDTH 15 0
BBX 13 13 1 0
BITMAP
7FF0
FFF8
C018
C018
CF98
1F80
1980
1980
1980
1980
3998
F1F8
E0F8
ENDCHAR
STARTCHAR uni5199
ENCODING 20889
SWIDTH 1153 0
DWIDTH 15 0
BBX 13 13 1 0
BITMAP
7FF8
FFF8
CC18
CFD0
1800
1FC0
1FC0
00C0
FFF8
FFF8
01C0
0780
0700
ENDCHAR
STARTCHAR uni51A0
ENCODING 20896
SWIDTH 1153 0
DWIDTH 15 0
BBX 13 13 1 0
BITMAP
7FF8
FFF8
8008
7C30
7DF8
01F8
FE30
FEB0
6CB0
6C70
6C00
CFF8
C7F8
ENDCHAR
STARTCHAR uni51AC
ENCODING 20908
SWIDTH 1153 0
DWIDTH 15 0
BBX 13 13 1 0
BITMAP
0FC0
1FC0
38C0
F8C0
ED80
0700
0F80
F8F8
F778
0700
1800
1F80
0780
ENDCHAR
STARTCHAR uni51B6
ENCODING 20918
SWIDTH 1153 0
DWIDTH 15 0
BBX 13 13 1 0
BITMAP
0180
C380
E730
6E30
6FF8
0FD8
0000
6FF0
6FF8
6C18
EC38
C7F0
C7F0
ENDCHAR
STARTCHAR uni51B7
ENCODING 20919
SWIDTH 1153 0
DWIDTH 15 0
BBX 13 13 1 0
BITMAP
0180
C3C0
E7E0
6E70
1DB8
19D8
0000
0FF0
6FF0
6060
E3C0
C3E0
C0E0
ENDCHAR
STARTCHAR uni51C6
ENCODING 20934
SWIDTH 1000 0
DWIDTH 15 0
BBX 13 13 1 0
BITMAP
0360
C360
E7F8
67F8
6E40
0FF8
0FF8
6640
67F8
E7F8
C640
C7F8
07F8
ENDCHAR
STARTCHAR uni51CD
ENCODING 20941
SWIDTH 1153 0
DWIDTH 15 0
BBX 13 13 1 0
BITMAP
0180
CFF0
CFF0
6180
6FF0
0DB0
0FF0
6DB0
6FF0
E3C0
C7E0
DDB8
1998
ENDCHAR
STARTCHAR uni51DD
ENCODING 20957
SWIDTH 1153 0
DWIDTH 15 0
BBX 13 13 1 0
BITMAP
18F0
DEF8
DE18
D830
4EF8
10F8
1E68
5E60
CC78
DEB8
CCF0
DEF8
1AD8
ENDCHAR
STARTCHAR uni51E6
ENCODING 20966
SWIDTH 1153 0
DWIDTH 15 0
BBX 13 12 1 0
BITMAP
3CF0
7DF0
6DB0
6DB0
6DB0
FDB0
FBB0
DB38
1C38
3E00
F7F8
E3F8
ENDCHAR
STARTCHAR uni51F6
ENCODING 20982
SWIDTH 1153 0
DWIDTH 15 0
BBX 13 13 1 0
BITMAP
00C0
00C0
18C0
1DC0
CF98
C798
C718
CF98
DDD8
D8D8
C018
FFF8
7FF0
ENDCHAR
STARTCHAR uni51F8
ENCODING 20984
SWIDTH 1153 0
DWIDTH 15 0
BBX 13 13 1 0
BITMAP
0FC0
1FC0
18C0
18C0
78F0
F8F8
C018
C018
C018
C018
C018
FFF8
7FF0
ENDCHAR
STARTCHAR uni51F9
ENCODING 20985
SWIDTH 1153 0
DWIDTH 15 0
BBX 13 13 1 0
BITMAP
F9F0
FDF8
CD98
CD98
CD98
CF98
CF98
C018
C018
C018
C018
FFF8
7FF0
ENDCHAR
STARTCHAR uni51FA
ENCODING 20986
SWIDTH 1153 0
DWIDTH 15 0
BBX 13 13 1 0
BITMAP
0600
0600
6660
6660
6630
7FF0
7FF0
0700
0300
C318
C318
FFF8
FFF8
ENDCHAR
STARTCHAR uni5200
ENCODING 20992
SWIDTH 1153 0
DWIDTH 15 0
BBX 13 12 1 0
BITMAP
03F0
7FF8
7E18
0618
0618
0E18
0C18
1C18
1838
3830
F1F0
E1E0
ENDCHAR
STARTCHAR uni5203
ENCODING 20995
SWIDTH 1153 0
DWIDTH 15 0
BBX 13 12 1 0
BITMAP
7FF0
7FF8
0618
0618
7618
7E18
1F98
1B98
3818
7038
E1F0
C1E0
ENDCHAR
STARTCHAR uni5206
ENCODING 20998
SWIDTH 1153 0
DWIDTH 15 0
BBX 13 13 1 0
BITMAP
0300
1B00
1980
39C0
70E0
E078
DFD8
1FC0
0CC0
0CC0
18C0
7BC0
7380
ENDCHAR
STARTCHAR uni5207
ENCODING 20999
SWIDTH 1153 0
DWIDTH 15 0
BBX 13 13 1 0
BITMAP
6000
63F0
63F8
7D98
FD98
E198
6198
6198
7B98
3B18
0718
1EF8
1CF0
ENDCHAR
STARTCHAR uni5208
ENCODING 21000
SWIDTH 1153 0
DWIDTH 15 0
BBX 13 13 1 0
BITMAP
0618
0618
06D8
C6D8
ECD8
7CD8
38D8
1CD8
3ED8
3618
7018
E038
C038
ENDCHAR
STARTCHAR uni520A
ENCODING 21002
SWIDTH 1153 0
DWIDTH 15 0
BBX 13 13 1 0
BITMAP
7E18
7ED8
18D8
18D8
18D8
FED8
FED8
18D8
18D8
1818
1818
1878
1870
ENDCHAR
STARTCHAR uni5211
ENCODING 21009
SWIDTH 1153 0
DWIDTH 15 0
BBX 13 13 1 0
BITMAP
FE18
FE18
6CD8
6CD8
6CD8
FED8
FED8
6CD8
6CD8
6C18
EC18
CC38
CC38
ENDCHAR
STARTCHAR uni5217
ENCODING 21015
SWIDTH 1153 0
DWIDTH 15 0
BBX 13 13 1 0
BITMAP
FE18
FE18
30D8
3CD8
7ED8
66D8
F6D8
DED8
0C18
1C18
3818
F078
E070
ENDCHAR
STARTCHAR uni521D
ENCODING 21021
SWIDTH 1153 0
DWIDTH 15 0
BBX 13 13 1 0
BITMAP
3000
33F8
FBF8
F998
1998
3198
7598
FD98
FD98
3398
3318
3778
3670
ENDCHAR
STARTCHAR uni5224
ENCODING 21028
SWIDTH 1153 0
DWIDTH 15 0
BBX 13 13 1 0
BITMAP
1818
DB18
DB18
5AD8
18D8
7ED8
7ED8
18D8
FED8
FED8
1818
1838
1838
ENDCHAR
STARTCHAR uni5225
ENCODING 21029
SWIDTH 1153 0
DWIDTH 15 0
BBX 13 13 1 0
BITMAP
FC18
FE18
C6D8
C6D8
7ED8
7ED8
30D8
3CD8
7ED8
6618
E618
DE38
CC38
ENDCHAR
STARTCHAR uni5229
ENCODING 21033
SWIDTH 1153 0
DWIDTH 15 0
BBX 13 13 1 0
BITMAP
1C18
7CD8
78D8
18D8
FED8
FED8
18D8
3CD8
7ED8
FE18
D818
18F8
18F0
ENDCHAR
STARTCHAR uni5230
ENCODING 21040
SWIDTH 1153 0
DWIDTH 15 0
BBX 13 13 1 0
BITMAP
FE18
FE18
30D8
66D8
FED8
C6D8
18D8
FED8
FE18
1818
1F18
FF38
F838
ENDCHAR
STARTCHAR uni5236
ENCODING 21046
SWIDTH 1153 0
DWIDTH 15 0
BBX 13 13 1 0
BITMAP
D818
D818
FED8
FED8
98D8
7ED8
7ED8
18D8
FE18
DB18
DB18
DB78
1870
ENDCHAR
STARTCHAR uni5237
ENCODING 21047
SWIDTH 1153 0
DWIDTH 15 0
BBX 13 13 1 0
BITMAP
7E18
7E18
66D8
7ED8
C0D8
D8D8
D8D8
FED8
FF18
DB18
DB18
DB38
1838
ENDCHAR
STARTCHAR uni5238
ENCODING 21048
SWIDTH 1153 0
DWIDTH 15 0
BBX 13 13 1 0
BITMAP
3330
3B70
0780
3FF0
0D80
FFF8
FFF8
18C0
3FF0
E7B8
CCD8
1DC0
19C0
ENDCHAR
STARTCHAR uni5239
ENCODING 21049
SWIDTH 1153 0
DWIDTH 15 0
BBX 13 13 1 0
BITMAP
6618
7E18
3CD8
FED8
E6D8
18D8
FED8
FED8
18D8
3C18
FE18
DA78
1870
ENDCHAR
STARTCHAR uni523A
ENCODING 21050
SWIDTH 1153 0
DWIDTH 15 0
BBX 13 13 1 0
BITMAP
1818
FE18
FED8
18D8
7ED8
FED8
DAD8
DAD8
38D8
7E18
FF18
DB78
1870
ENDCHAR
STARTCHAR uni523B
ENCODING 21051
SWIDTH 1153 0
DWIDTH 15 0
BBX 13 13 1 0
BITMAP
1818
1818
FED8
FED8
30D8
6CD8
7CD8
3AD8
F6D8
CC18
3E18
F778
C370
ENDCHAR
STARTCHAR uni5247
ENCODING 21063
SWIDTH 1153 0
DWIDTH 15 0
BBX 13 13 1 0
BITMAP
7E18
FE18
C6D8
FED8
FED8
C6D8
FED8
FED8
C6D8
FE18
7C18
EE78
C670
ENDCHAR
STARTCHAR uni524A
ENCODING 21066
SWIDTH 1153 0
DWIDTH 15 0
BBX 13 13 1 0
BITMAP
1818
DB18
FF18
18D8
7ED8
FED8
C6D8
FED8
C6D8
FE18
C618
C678
C670
ENDCHAR
STARTCHAR glyph3087
ENCODING 21067
SWIDTH 1153 0
DWIDTH 15 0
BBX 13 13 1 0
BITMAP
1818
FED8
FED8
18D8
FED8
FED8
C6D8
FED8
FE38
6C38
6C00
EFF8
C7F8
ENDCHAR
STARTCHAR uni524D
ENCODING 21069
SWIDTH 1153 0
DWIDTH 15 0
BBX 13 13 1 0
BITMAP
3060
18C0
FFF8
FFF8
0000
7DB0
7DB0
6DB0
7DB0
6DB0
7C30
EC70
CC70
ENDCHAR
STARTCHAR uni525B
ENCODING 21083
SWIDTH 1153 0
DWIDTH 15 0
BBX 13 13 1 0
BITMAP
7E18
FED8
C6D8
EED8
D6D8
FED8
D6D8
D6D8
EED8
EE18
FE18
C678
C678
ENDCHAR
STARTCHAR uni5263
ENCODING 21091
SWIDTH 1153 0
DWIDTH 15 0
BBX 13 13 1 0
BITMAP
1818
3C18
66D8
C2D8
FCD8
18D8
7ED8
5AD8
7ED8
1818
3C18
E738
C338
ENDCHAR
STARTCHAR uni5264
ENCODING 21092
SWIDTH 1153 0
DWIDTH 15 0
BBX 13 13 1 0
BITMAP
1818
FE18
FED8
64D8
3CD8
7ED8
E6D8
FED8
6618
7E18
6618
E678
C678
ENDCHAR
STARTCHAR uni526F
ENCODING 21103
SWIDTH 1153 0
DWIDTH 15 0
BBX 13 13 1 0
BITMAP
FE18
FED8
00D8
FED8
C6D8
C6D8
7CD8
00D8
FED8
D618
FE18
D678
7C70
ENDCHAR
STARTCHAR uni5270
ENCODING 21104
SWIDTH 1000 0
DWIDTH 15 0
BBX 13 13 1 0
BITMAP
7E18
7ED8
18D8
FED8
FED8
54D8
FED8
FED8
54D8
7E18
7E18
DB38
DB30
ENDCHAR
STARTCHAR uni5272
ENCODING 21106
SWIDTH 1153 0
DWIDTH 15 0
BBX 13 13 1 0
BITMAP
1818
FE18
FED8
9AD8
7CD8
18D8
7ED8
18D8
FED8
7E18
4218
7E38
3E38
ENDCHAR
STARTCHAR uni5275
ENCODING 21109
SWIDTH 1153 0
DWIDTH 15 0
BBX 13 13 1 0
BITMAP
3C18
7E18
E6D8
C2D8
3CD8
66D8
7ED8
66D8
7CD8
C018
FE18
E238
BE38
ENDCHAR
STARTCHAR uni5287
ENCODING 21127
SWIDTH 1153 0
DWIDTH 15 0
BBX 13 13 1 0
BITMAP
1818
1ED8
78D8
6ED8
78D8
6ED8
60D8
7ED8
CCD8
FF18
CE18
FD38
CC38
ENDCHAR
STARTCHAR uni529B
ENCODING 21147
SWIDTH 1153 0
DWIDTH 15 0
BBX 12 13 1 0
BITMAP
0600
0600
07F0
FFF0
FE30
0C30
0C30
1C30
1830
3870
7060
E3E0
C1C0
ENDCHAR
STARTCHAR uni529F
ENCODING 21151
SWIDTH 1153 0
DWIDTH 15 0
BBX 13 13 1 0
BITMAP
00C0
00C0
F8C0
F8F0
37F8
3798
3198
3998
F998
E318
0738
0E70
0C70
ENDCHAR
STARTCHAR uni52A0
ENCODING 21152
SWIDTH 1153 0
DWIDTH 15 0
BBX 13 13 1 0
BITMAP
1800
1800
1800
FEF8
FEF8
36D8
36D8
36D8
36D8
66D8
66F8
CEF0
CC00
ENDCHAR
STARTCHAR uni52A3
ENCODING 21155
SWIDTH 1153 0
DWIDTH 15 0
BBX 13 13 1 0
BITMAP
0300
3B60
7B70
E3B8
C398
0F00
FEC0
F1F0
0FF8
0718
0E18
7CF8
78F0
ENDCHAR
STARTCHAR uni52A9
ENCODING 21161
SWIDTH 1153 0
DWIDTH 15 0
BBX 13 13 1 0
BITMAP
00C0
7CC0
7CC0
45F8
7DF8
7CD8
44D8
7CD8
7CD8
4598
FD98
F3B8
0330
ENDCHAR
STARTCHAR uni52AA
ENCODING 21162
SWIDTH 1153 0
DWIDTH 15 0
BBX 13 13 1 0
BITMAP
30F0
FDF8
FC18
6DB8
78F0
3DF0
EDB8
C318
3FE0
3FF0
0E30
7CF0
70E0
ENDCHAR
STARTCHAR uni52B1
ENCODING 21169
SWIDTH 1153 0
DWIDTH 15 0
BBX 13 13 1 0
BITMAP
7E60
FE60
C060
FE60
FFF8
D9F8
DCD8
DED8
D6D8
36D8
36D8
6FB8
6DB0
ENDCHAR
STARTCHAR uni52B4
ENCODING 21172
SWIDTH 1153 0
DWIDTH 15 0
BBX 13 13 1 0
BITMAP
3630
3670
1B60
7FF8
FFF8
C018
0600
7FE0
7FF0
0E30
1C30
78F0
70E0
ENDCHAR
STARTCHAR uni52B9
ENCODING 21177
SWIDTH 1153 0
DWIDTH 15 0
BBX 13 13 1 0
BITMAP
3060
3060
FC60
FC60
01F8
6DF8
EED8
C6D8
38D8
3198
7998
EDB8
CDB0
ENDCHAR
STARTCHAR uni52BE
ENCODING 21182
SWIDTH 1153 0
DWIDTH 15 0
BBX 13 13 1 0
BITMAP
3060
3060
FC60
FCF0
63F8
DBD8
F8D8
74D8
ECD8
DCD8
39D8
FDB8
CDB0
ENDCHAR
STARTCHAR uni52C7
ENCODING 21191
SWIDTH 1153 0
DWIDTH 15 0
BBX 13 13 1 0
BITMAP
3FE0
3FE0
0180
7FF0
6230
7FF0
6230
3FE0
0600
FFF8
0E18
FC78
F070
ENDCHAR
STARTCHAR uni52C9
ENCODING 21193
SWIDTH 1153 0
DWIDTH 15 0
BBX 13 13 1 0
BITMAP
7CC0
FCC0
CBF8
1BF8
FCD8
B4D8
B4D8
FD98
3BB8
7B30
6C00
EFF8
C7F8
ENDCHAR
STARTCHAR uni52D5
ENCODING 21205
SWIDTH 1153 0
DWIDTH 15 0
BBX 13 13 1 0
BITMAP
1C60
FC60
F060
3DF0
FDF8
B4D8
FCD8
B4D8
FCD8
F1D8
3D98
FBB8
E330
ENDCHAR
STARTCHAR uni52D8
ENCODING 21208
SWIDTH 1153 0
DWIDTH 15 0
BBX 13 13 1 0
BITMAP
6C60
FE60
FE60
6DF0
7DF8
6CD8
7CD8
EED8
FED8
D4D8
D2D8
FDB8
7DB8
ENDCHAR
STARTCHAR uni52D9
ENCODING 21209
SWIDTH 1153 0
DWIDTH 15 0
BBX 13 13 1 0
BITMAP
FCC0
FDF8
1BF8
7330
30F0
FDF8
FD98
3860
7BF8
FBF8
D998
3BB8
3B38
ENDCHAR
STARTCHAR uni52DD
ENCODING 21213
SWIDTH 1153 0
DWIDTH 15 0
BBX 13 13 1 0
BITMAP
F6D8
FAD8
D8C0
DBF8
F9B0
FBF8
DB18
D8C0
FBF0
FBF8
D998
DBB8
DB38
ENDCHAR
STARTCHAR uni52DF
ENCODING 21215
SWIDTH 1153 0
DWIDTH 15 0
BBX 13 13 1 0
BITMAP
18C0
FFF8
18C0
3FE0
3060
3FE0
3060
1FC0
FFF8
3660
FFF8
CCD8
19C0
ENDCHAR
STARTCHAR uni52E2
ENCODING 21218
SWIDTH 1153 0
DWIDTH 15 0
BBX 13 13 1 0
BITMAP
1860
FDF0
19F0
FCB0
65B0
D8F0
7DB8
0318
7FE0
7FF0
0E30
7CF0
78E0
ENDCHAR
STARTCHAR uni52E4
ENCODING 21220
SWIDTH 1153 0
DWIDTH 15 0
BBX 13 13 1 0
BITMAP
48C0
FCC0
FCC0
49F0
FDF8
B4D8
FCD8
30D8
FCD8
30D8
FD98
33B8
FB30
ENDCHAR
STARTCHAR uni52E7
ENCODING 21223
SWIDTH 1153 0
DWIDTH 15 0
BBX 13 13 1 0
BITMAP
6060
7E60
FE60
D9F8
3DF8
F0D8
7ED8
E8D8
FED8
68D8
7ED8
69B8
7DB0
ENDCHAR
STARTCHAR uni52F2
ENCODING 21234
SWIDTH 1153 0
DWIDTH 15 0
BBX 13 13 1 0
BITMAP
1C60
FC60
F9F0
7DF8
D6D8
FED8
D6D8
7CD8
FFD8
FD98
0000
EDB8
EDB8
ENDCHAR
STARTCHAR uni52FA
ENCODING 21242
SWIDTH 1153 0
DWIDTH 15 0
BBX 13 13 1 0
BITMAP
1800
1800
3FF0
3FF8
7018
E018
C618
0718
0318
0038
0030
00F0
00E0
ENDCHAR
STARTCHAR uni52FE
ENCODING 21246
SWIDTH 1153 0
DWIDTH 15 0
BBX 13 13 1 0
BITMAP
1800
1800
3FF0
3FF8
7018
EC18
CC18
1818
3B18
3FB8
3DB0
0070
0060
ENDCHAR
STARTCHAR uni5301
ENCODING 21249
SWIDTH 1153 0
DWIDTH 15 0
BBX 13 13 1 0
BITMAP
1800
1800
3FE0
3FF0
7330
FB30
DF30
0E30
1F70
3BE0
30F8
03D8
0380
ENDCHAR
STARTCHAR uni5302
ENCODING 21250
SWIDTH 1153 0
DWIDTH 15 0
BBX 13 13 1 0
BITMAP
1800
1800
3FF0
3FF8
7018
E998
DF98
1E18
1998
1FB8
0FB0
0070
0060
ENDCHAR
STARTCHAR uni5305
ENCODING 21253
SWIDTH 1153 0
DWIDTH 15 0
BBX 13 13 1 0
BITMAP
1800
1FE0
3FF0
7030
FFB0
DFB0
01B0
3FB0
3F70
3060
3018
3FF8
1FF0
ENDCHAR
STARTCHAR uni5316
ENCODING 21270
SWIDTH 1153 0
DWIDTH 15 0
BBX 13 13 1 0
BITMAP
0D80
0D80
1D98
19B8
39F0
39E0
79C0
F980
D980
1980
1998
19F8
18F8
ENDCHAR
STARTCHAR uni5317
ENCODING 21271
SWIDTH 1153 0
DWIDTH 15 0
BBX 13 13 1 0
BITMAP
1980
1980
1998
19B8
F9F0
F9E0
19C0
1980
1980
1998
1D98
FDF8
F0F0
ENDCHAR
STARTCHAR uni5320
ENCODING 21280
SWIDTH 1000 0
DWIDTH 15 0
BBX 13 13 1 0
BITMAP
FFF8
FFF8
C000
C7E0
CFE0
CC00
CFF0
DFF0
D980
D980
C180
FFF8
7FF8
ENDCHAR
STARTCHAR uni5339
ENCODING 21305
SWIDTH 1153 0
DWIDTH 15 0
BBX 13 13 1 0
BITMAP
FFF8
FFF8
C6C0
C6C0
C6C0
CEC0
CCC0
DCF8
D878
C000
C000
FFF8
7FF8
ENDCHAR
STARTCHAR uni533A
ENCODING 21306
SWIDTH 1153 0
DWIDTH 15 0
BBX 13 13 1 0
BITMAP
7FF8
7FF8
E000
EC30
CE70
C7E0
C3C0
C7E0
DF70
DC30
C000
FFF8
7FF8
ENDCHAR
STARTCHAR uni533B
ENCODING 21307
SWIDTH 1153 0
DWIDTH 15 0
BBX 13 13 1 0
BITMAP
7FF8
FFF8
C600
CFF0
DFF0
C180
DFF8
DFF8
C3C0
CE70
EC30
7FF8
7FF8
ENDCHAR
STARTCHAR uni5341
ENCODING 21313
SWIDTH 1153 0
DWIDTH 15 0
BBX 13 13 1 0
BITMAP
0600
0600
0600
0600
0600
FFF8
FFF8
0300
0300
0300
0300
0300
0300
ENDCHAR
STARTCHAR uni5343
ENCODING 21315
SWIDTH 1153 0
DWIDTH 15 0
BBX 13 13 1 0
BITMAP
0060
01E0
3FC0
3F00
0300
03F8
FFF8
FF00
0300
0300
0300
0300
0300
ENDCHAR
STARTCHAR uni5347
ENCODING 21319
SWIDTH 1153 0
DWIDTH 15 0
BBX 13 13 1 0
BITMAP
0CC0
7CC0
78C0
18C0
18C0
FFF8
FFF8
18C0
18C0
38C0
30C0
70C0
60C0
ENDCHAR
STARTCHAR uni5348
ENCODING 21320
SWIDTH 1153 0
DWIDTH 15 0
BBX 13 13 1 0
BITMAP
1800
1800
1FF0
3FF0
7300
6300
0300
FFF8
FFF8
0300
0300
0300
0300
ENDCHAR
STARTCHAR uni534A
ENCODING 21322
SWIDTH 1153 0
DWIDTH 15 0
BBX 13 13 1 0
BITMAP
6630
7670
3660
0600
7FF0
7FF0
0300
0300
FFF8
FFF8
0300
0300
0300
ENDCHAR
STARTCHAR uni534D
ENCODING 21325
SWIDTH 1153 0
DWIDTH 15 0
BBX 13 13 1 0
BITMAP
3E18
FF18
E318
0318
0318
03F8
7FF0
FF00
C600
C600
C600
C7F8
C3F8
ENDCHAR
STARTCHAR uni5350
ENCODING 21328
SWIDTH 1153 0
DWIDTH 15 0
BBX 13 13 1 0
BITMAP
C1F8
C3F8
C300
C300
C300
FF00
7FF0
03F8
0318
0318
0318
FF18
FE18
ENDCHAR
STARTCHAR uni5352
ENCODING 21330
SWIDTH 1153 0
DWIDTH 15 0
BBX 13 13 1 0
BITMAP
0300
0300
FFF8
FFF8
1860
38E0
7DF0
6DB0
0300
FFF8
FFF8
0300
0300
ENDCHAR
STARTCHAR uni5354
ENCODING 21332
SWIDTH 1153 0
DWIDTH 15 0
BBX 13 13 1 0
BITMAP
6180
67E0
67F0
6330
F770
F670
6000
6630
6F78
6F78
6528
6D68
6B58
ENDCHAR
STARTCHAR uni5357
ENCODING 21335
SWIDTH 1153 0
DWIDTH 15 0
BBX 13 13 1 0
BITMAP
0600
7FF0
7FF0
0600
7FF8
FFF8
C898
CD98
DFD8
C318
DFD8
C318
6330
ENDCHAR
STARTCHAR uni5358
ENCODING 21336
SWIDTH 1153 0
DWIDTH 15 0
BBX 13 13 1 0
BITMAP
3660
3660
1AC0
7FE0
6660
7FE0
6660
3FC0
0600
FFF8
FFF8
0600
0600
ENDCHAR
STARTCHAR uni535A
ENCODING 21338
SWIDTH 1153 0
DWIDTH 15 0
BBX 13 13 1 0
BITMAP
60D8
67F8
67E0
60C0
77F8
F6D8
E7F8
66D8
6FF0
6FF8
6038
6730
6370
ENDCHAR
STARTCHAR uni5360
ENCODING 21344
SWIDTH 1153 0
DWIDTH 15 0
BBX 11 13 2 0
BITMAP
0C00
0C00
0FE0
0FE0
0C00
0C00
FFC0
FFC0
C0C0
C0C0
C0C0
FFC0
7F80
ENDCHAR
STARTCHAR uni5370
ENCODING 21360
SWIDTH 1153 0
DWIDTH 15 0
BBX 13 13 1 0
BITMAP
1800
3800
71F8
E3F8
C318
FB18
FB18
C318
C378
FB70
FB00
0300
0300
ENDCHAR
STARTCHAR uni5371
ENCODING 21361
SWIDTH 1153 0
DWIDTH 15 0
BBX 13 13 1 0
BITMAP
3F80
7F80
E180
DFF8
3FF8
3000
37F0
37F0
7630
6660
6618
E7F8
C3F8
ENDCHAR
STARTCHAR uni5373
ENCODING 21363
SWIDTH 1000 0
DWIDTH 15 0
BBX 13 12 1 0
BITMAP
7CF8
FDF8
CD98
FD98
CD98
FD98
F998
C1B8
DDB0
FD80
ED80
0180
ENDCHAR
STARTCHAR uni5374
ENCODING 21364
SWIDTH 1153 0
DWIDTH 15 0
BBX 13 13 1 0
BITMAP
3000
31F8
FDF8
FD98
3198
3198
FD98
FD98
61B8
CDB0
FD80
FD80
0180
ENDCHAR
STARTCHAR uni5375
ENCODING 21365
SWIDTH 1153 0
DWIDTH 15 0
BBX 13 13 1 0
BITMAP
1C00
7DF8
F1F8
CD98
EDD8
FDF8
DDB8
CD98
FD98
FDB8
1DB0
3980
3180
ENDCHAR
STARTCHAR uni5378
ENCODING 21368
SWIDTH 1153 0
DWIDTH 15 0
BBX 13 13 1 0
BITMAP
6000
7EF8
FEF8
D8D8
1ED8
FED8
F8D8
1ED8
DED8
D8F8
DED8
FEC0
F0C0
ENDCHAR
STARTCHAR uni5384
ENCODING 21380
SWIDTH 1000 0
DWIDTH 15 0
BBX 13 12 1 0
BITMAP
3FF8
7FF8
6000
67F0
6FF0
6C30
6CF0
ECE0
CC00
CC18
CFF8
C7F8
ENDCHAR
STARTCHAR uni539A
ENCODING 21402
SWIDTH 1153 0
DWIDTH 15 0
BBX 13 13 1 0
BITMAP
3FF8
7FF8
6000
6FF0
6C30
6FF0
6C30
6FE0
C180
DFF8
DFF8
C1C0
0780
ENDCHAR
STARTCHAR uni539F
ENCODING 21407
SWIDTH 1153 0
DWIDTH 15 0
BBX 13 13 1 0
BITMAP
3FF8
7FF8
6180
6180
6FF0
6C30
6FF0
6C30
C7E0
C180
CDB0
DDB8
1998
ENDCHAR
STARTCHAR uni53B3
ENCODING 21427
SWIDTH 1153 0
DWIDTH 15 0
BBX 13 13 1 0
BITMAP
3318
19B0
7FF8
7FF8
6000
6F60
6678
7FD8
6958
EF50
C970
DFF8
C1D8
ENDCHAR
STARTCHAR uni53BB
ENCODING 21435
SWIDTH 1153 0
DWIDTH 15 0
BBX 13 13 1 0
BITMAP
0300
0300
3FF0
3FF0
0300
0300
FFF8
FFF8
0600
0C60
19E0
3FF0
3E30
ENDCHAR
STARTCHAR uni53C2
ENCODING 21442
SWIDTH 1153 0
DWIDTH 15 0
BBX 13 13 1 0
BITMAP
0E00
1CC0
38E0
3FE0
0700
FFF8
FFF8
3060
EFB8
CF18
00C0
1FC0
1F00
ENDCHAR
STARTCHAR uni53C8
ENCODING 21448
SWIDTH 1153 0
DWIDTH 15 0
BBX 13 12 1 0
BITMAP
0FE0
7FF0
7830
0070
3060
38E0
1DC0
0F80
0F80
3DE0
F8F8
E038
ENDCHAR
STARTCHAR uni53CA
ENCODING 21450
SWIDTH 1153 0
DWIDTH 15 0
BBX 13 13 1 0
BITMAP
3FE0
3FE0
0C60
0C40
0CF0
18F0
1C30
3E60
76E0
E3C0
C7E0
1E78
1C38
ENDCHAR
STARTCHAR uni53CB
ENCODING 21451
SWIDTH 1153 0
DWIDTH 15 0
BBX 13 13 1 0
BITMAP
0C00
0C00
0FF8
FFF8
F800
1FE0
1FF0
3830
3670
73E0
E7C0
DEF8
1C38
ENDCHAR
STARTCHAR uni53CC
ENCODING 21452
SWIDTH 1153 0
DWIDTH 15 0
BBX 13 13 1 0
BITMAP
3870
FDF8
EDD8
0C18
0C18
CDB8
F9B0
79F0
3CE0
3CE0
71F0
E7B8
C718
ENDCHAR
STARTCHAR uni53CD
ENCODING 21453
SWIDTH 1153 0
DWIDTH 15 0
BBX 13 13 1 0
BITMAP
1FF8
3FF8
3000
3000
3FF0
3FF8
3018
3638
3770
73E0
63E0
EF78
CE38
ENDCHAR
STARTCHAR uni53CE
ENCODING 21454
SWIDTH 1153 0
DWIDTH 15 0
BBX 13 13 1 0
BITMAP
1800
1BF8
DBF8
DB18
DB18
D9B0
D9B0
F9E0
F8E0
D8E0
19F8
37B8
3718
ENDCHAR
STARTCHAR uni53D4
ENCODING 21460
SWIDTH 1153 0
DWIDTH 15 0
BBX 13 13 1 0
BITMAP
3000
30F0
3CF8
3C18
3198
FD98
FD98
31B0
36F0
B660
D8F0
D9F8
1998
ENDCHAR
STARTCHAR uni53D6
ENCODING 21462
SWIDTH 1153 0
DWIDTH 15 0
BBX 13 13 1 0
BITMAP
FF00
FF00
66F8
66F8
7E08
6798
66F0
7EF0
6660
66F0
FED8
E798
0600
ENDCHAR
STARTCHAR uni53D7
ENCODING 21463
SWIDTH 1153 0
DWIDTH 15 0
BBX 13 13 1 0
BITMAP
03C0
1FC0
6630
3360
FFF8
C018
1FC8
3FE0
0060
18C0
0F80
FDF8
F038
ENDCHAR
STARTCHAR uni53D9
ENCODING 21465
SWIDTH 1153 0
DWIDTH 15 0
BBX 13 13 1 0
BITMAP
3800
7CF0
6EF8
C618
FD98
7D98
19D8
FEF0
FEF0
1860
DAF0
DBF8
DB98
ENDCHAR
STARTCHAR uni53E3
ENCODING 21475
SWIDTH 1153 0
DWIDTH 15 0
BBX 13 11 1 1
BITMAP
FFF8
FFF8
C018
C018
C018
C018
C018
E018
6038
7FF0
7FF0
ENDCHAR
STARTCHAR uni53E4
ENCODING 21476
SWIDTH 1153 0
DWIDTH 15 0
BBX 13 13 1 0
BITMAP
0600
0600
07F8
FFF8
FF00
0300
0300
3FE0
3FE0
3060
3060
3FE0
1FC0
ENDCHAR
STARTCHAR uni53E5
ENCODING 21477
SWIDTH 1153 0
DWIDTH 15 0
BBX 13 13 1 0
BITMAP
1800
1800
3FF0
3FF8
7018
EF98
DF98
1998
1998
1F98
0F30
00F0
00E0
ENDCHAR
STARTCHAR uni53E9
ENCODING 21481
SWIDTH 1153 0
DWIDTH 15 0
BBX 13 12 1 0
BITMAP
00F8
FDF8
FD98
CD98
CD98
CD98
CD98
7DB8
71B8
0180
0180
0180
ENDCHAR
STARTCHAR uni53EB
ENCODING 21483
SWIDTH 1153 0
DWIDTH 15 0
BBX 13 13 1 0
BITMAP
0030
0030
F9B0
FDB0
CDB0
CDB0
CDB0
DDB0
F9F8
F3F8
03F0
0030
0030
ENDCHAR
STARTCHAR uni53EC
ENCODING 21484
SWIDTH 1153 0
DWIDTH 15 0
BBX 12 13 2 0
BITMAP
FFF0
FFF0
0630
0E30
3CF0
F0E0
C000
3FE0
7FE0
6060
6060
7FE0
3FC0
ENDCHAR
STARTCHAR uni53EF
ENCODING 21487
SWIDTH 1153 0
DWIDTH 15 0
BBX 13 13 1 0
BITMAP
FFF8
FFF8
0060
3F60
7F60
6360
6360
6360
7F60
3E60
0060
01E0
01C0
ENDCHAR
STARTCHAR uni53F0
ENCODING 21488
SWIDTH 1153 0
DWIDTH 15 0
BBX 13 13 1 0
BITMAP
0C00
1C00
38C0
7060
FFF0
FFF8
0018
3FE0
3FE0
3060
3060
3FE0
1FC0
ENDCHAR
STARTCHAR uni53F1
ENCODING 21489
SWIDTH 1153 0
DWIDTH 15 0
BBX 13 13 1 0
BITMAP
0180
0198
F998
F9B8
D9F0
D9E0
DBC0
DB80
D980
F980
F198
01F8
00F8
ENDCHAR
STARTCHAR uni53F2
ENCODING 21490
SWIDTH 1153 0
DWIDTH 15 0
BBX 13 13 1 0
BITMAP
0300
0300
7FF0
7FF8
6318
6318
7FF8
1FF0
6700
7E00
1F80
F9F8
F078
ENDCHAR
STARTCHAR uni53F3
ENCODING 21491
SWIDTH 1153 0
DWIDTH 15 0
BBX 13 13 1 0
BITMAP
0600
0600
0FF8
FFF8
FC00
1800
3FF0
7FF0
F830
D830
1870
1FE0
0FE0
ENDCHAR
STARTCHAR uni53F6
ENCODING 21494
SWIDTH 1153 0
DWIDTH 15 0
BBX 13 13 1 0
BITMAP
0060
0060
FC60
FC60
CC60
CDF8
CDF8
CC60
F860
7860
0060
0060
0060
ENDCHAR
STARTCHAR uni53F7
ENCODING 21495
SWIDTH 1153 0
DWIDTH 15 0
BBX 13 13 1 0
BITMAP
3FE0
3FE0
3060
3FE0
1FC0
0000
FFF8
FFF8
1800
3FE0
3FE0
00E0
01C0
ENDCHAR
STARTCHAR uni53F8
ENCODING 21496
SWIDTH 1153 0
DWIDTH 15 0
BBX 12 13 2 0
BITMAP
FFE0
FFF0
0030
7F30
7F30
0030
7F30
7F30
6330
7F30
3E30
00F0
00E0
ENDCHAR
STARTCHAR uni5404
ENCODING 21508
SWIDTH 1153 0
DWIDTH 15 0
BBX 13 13 1 0
BITMAP
0FC0
1FE0
7860
7CE0
0FC0
1FE0
F8F8
E038
1FC0
3FE0
3060
3FE0
1FC0
ENDCHAR
STARTCHAR uni5408
ENCODING 21512
SWIDTH 1153 0
DWIDTH 15 0
BBX 13 13 1 0
BITMAP
0700
0F80
1DC0
38E0
7070
EFB8
CF98
0000
3FE0
3FE0
3060
3FE0
1FC0
ENDCHAR
STARTCHAR uni5409
ENCODING 21513
SWIDTH 1153 0
DWIDTH 15 0
BBX 12 13 2 0
BITMAP
0600
0600
FFF0
FFF0
0600
7FE0
7FE0
0000
7FE0
7FE0
6060
7FE0
3FC0
ENDCHAR
STARTCHAR uni540C
ENCODING 21516
SWIDTH 1153 0
DWIDTH 15 0
BBX 12 13 1 0
BITMAP
7FE0
FFE0
C070
DF70
C030
DFB0
D9B0
D9B0
DFB0
C030
C030
C0F0
C0F0
ENDCHAR
STARTCHAR uni540D
ENCODING 21517
SWIDTH 1153 0
DWIDTH 15 0
BBX 12 13 1 0
BITMAP
0FE0
0FE0
1C60
78E0
7DC0
0F80
0700
1FF0
FFF0
EC30
0C30
0FF0
07E0
ENDCHAR
STARTCHAR uni540E
ENCODING 21518
SWIDTH 1153 0
DWIDTH 15 0
BBX 13 13 1 0
BITMAP
00E0
1FE0
3F80
3000
3FF8
3FF8
7000
6FF0
6FF0
EC30
CC30
CFF0
07E0
ENDCHAR
STARTCHAR uni5411
ENCODING 21521
SWIDTH 1153 0
DWIDTH 15 0
BBX 13 13 1 0
BITMAP
0300
0700
0C00
3FE0
FFF0
E038
CF98
DFD8
D8D8
D8D8
DFD8
CFB8
C030
ENDCHAR
STARTCHAR uni541B
ENCODING 21531
SWIDTH 1153 0
DWIDTH 15 0
BBX 13 13 1 0
BITMAP
3FE0
3FE0
0660
FFF8
FFF8
0C60
7FE0
7FC0
1FF0
3830
F830
DFF0
0FE0
ENDCHAR
STARTCHAR uni541F
ENCODING 21535
SWIDTH 1153 0
DWIDTH 15 0
BBX 13 13 1 0
BITMAP
00E0
01F0
F3B8
FB18
D800
D9F0
D9F0
D800
FBF8
73F8
0030
0070
0060
ENDCHAR
STARTCHAR uni5426
ENCODING 21542
SWIDTH 1153 0
DWIDTH 15 0
BBX 13 13 1 0
BITMAP
FFF8
FFF8
0700
1F60
FB78
E318
0300
7FF0
7FF0
6030
6030
7FF0
3FE0
ENDCHAR
STARTCHAR uni542B
ENCODING 21547
SWIDTH 1153 0
DWIDTH 15 0
BBX 13 13 1 0
BITMAP
0700
0F80
1DC0
38E0
F778
C018
1FC0
0180
3FE0
3060
3060
3FE0
1FC0
ENDCHAR
STARTCHAR uni5438
ENCODING 21560
SWIDTH 1153 0
DWIDTH 15 0
BBX 13 13 1 0
BITMAP
07F0
07F0
F9B0
F9B0
D9B8
DB18
DB18
FBB8
77F0
0EE0
1DF0
1BB8
0318
ENDCHAR
STARTCHAR uni5439
ENCODING 21561
SWIDTH 1153 0
DWIDTH 15 0
BBX 13 13 1 0
BITMAP
0300
0300
03F8
77F8
FE18
CCD8
CCC0
CCC0
FCC0
79E0
03F0
0F38
0E18
ENDCHAR
STARTCHAR uni5442
ENCODING 21570
SWIDTH 1153 0
DWIDTH 15 0
BBX 11 13 2 0
BITMAP
7FC0
7FC0
60C0
60C0
7FC0
3F80
0C00
FFE0
FFE0
C060
C060
FFE0
7FC0
ENDCHAR
STARTCHAR uni5449
ENCODING 21577
SWIDTH 1153 0
DWIDTH 15 0
BBX 13 13 1 0
BITMAP
0FE0
6FE0
6C60
6FE0
61C0
7E00
3FE0
01E0
FFF8
FFF8
0000
78F0
7070
ENDCHAR
STARTCHAR uni544A
ENCODING 21578
SWIDTH 1153 0
DWIDTH 15 0
BBX 13 13 1 0
BITMAP
3300
3FF0
7FF0
6300
0300
FFF8
FFF8
0000
3FF0
3FF0
3030
3FF0
1FE0
ENDCHAR
STARTCHAR uni545F
ENCODING 21599
SWIDTH 1153 0
DWIDTH 15 0
BBX 13 13 1 0
BITMAP
00C0
00C0
07F8
77F8
F8C0
C980
CBB0
CBF0
79E0
7398
0338
07F8
07D8
ENDCHAR
STARTCHAR uni5468
ENCODING 21608
SWIDTH 1153 0
DWIDTH 15 0
BBX 13 13 1 0
BITMAP
3FF0
7FF8
6038
6318
6FD8
6318
6FD8
6018
6FD8
6CD8
E798
C038
C038
ENDCHAR
STARTCHAR uni546A
ENCODING 21610
SWIDTH 1153 0
DWIDTH 15 0
BBX 13 13 1 0
BITMAP
07F8
07F8
0618
F618
F618
DBF8
DBF0
D960
FB60
7360
0760
1E78
1C38
ENDCHAR
STARTCHAR uni5473
ENCODING 21619
SWIDTH 1153 0
DWIDTH 15 0
BBX 13 13 1 0
BITMAP
00C0
00C0
03F0
F3F0
F0C0
97F8
97F8
90C0
F1E0
73F0
07F8
06D8
00C0
ENDCHAR
STARTCHAR uni547C
ENCODING 21628
SWIDTH 1153 0
DWIDTH 15 0
BBX 13 13 1 0
BITMAP
0070
03F0
FBC0
F8C8
DED8
DAD0
D8C0
FBF8
73F8
00C0
00C0
03C0
0180
ENDCHAR
STARTCHAR uni547D
ENCODING 21629
SWIDTH 1153 0
DWIDTH 15 0
BBX 13 13 1 0
BITMAP
0700
1FC0
38E0
F778
CF98
0000
7DF8
FDF8
CD98
CD98
7DB8
79B0
0180
ENDCHAR
STARTCHAR uni548C
ENCODING 21644
SWIDTH 1153 0
DWIDTH 15 0
BBX 13 13 1 0
BITMAP
1800
7800
70F8
31F8
FD98
FD98
3198
7998
FD98
F598
B1F8
31F0
3000
ENDCHAR
STARTCHAR uni54B2
ENCODING 21682
SWIDTH 1153 0
DWIDTH 15 0
BBX 13 13 1 0
BITMAP
0318
03B8
F9B0
F800
DBF8
DBF8
D8C0
D7F8
F7F8
F1C0
03E0
0F78
0E38
ENDCHAR
STARTCHAR uni54BD
ENCODING 21693
SWIDTH 1153 0
DWIDTH 15 0
BBX 13 13 1 0
BITMAP
03F0
07F8
F618
F6D8
96D8
97F8
96D8
96D8
F7F8
7738
0618
07F8
03F0
ENDCHAR
STARTCHAR uni54C0
ENCODING 21696
SWIDTH 1153 0
DWIDTH 15 0
BBX 13 13 1 0
BITMAP
0600
FFF8
FFF8
0000
3FE0
3060
3060
3FD8
1DB8
39F0
F8E0
DE78
1E38
ENDCHAR
STARTCHAR uni54C1
ENCODING 21697
SWIDTH 1153 0
DWIDTH 15 0
BBX 13 13 1 0
BITMAP
1FE0
3FE0
3060
3060
1FE0
1FC0
0000
FDF8
FDF8
CD98
CD98
7CF8
7CF0
ENDCHAR
STARTCHAR uni54E1
ENCODING 21729
SWIDTH 1153 0
DWIDTH 15 0
BBX 13 13 1 0
BITMAP
7FF0
6030
3FE0
0000
7FF0
6030
7FF0
6030
7FF0
6030
3FE0
F078
E038
ENDCHAR
STARTCHAR uni5504
ENCODING 21764
SWIDTH 1153 0
DWIDTH 15 0
BBX 13 13 1 0
BITMAP
01F8
03F8
FB18
FBF8
DBF8
DB18
DBF8
DBF8
FB18
7BF8
01F0
03B8
0318
ENDCHAR
STARTCHAR uni5506
ENCODING 21766
SWIDTH 1153 0
DWIDTH 15 0
BBX 13 13 1 0
BITMAP
00C0
01C0
FB98
FBF8
D9B0
DBB8
DB18
D8E0
FBF0
F330
01E0
07F8
0738
ENDCHAR
STARTCHAR uni5507
ENCODING 21767
SWIDTH 1000 0
DWIDTH 15 0
BBX 13 13 1 0
BITMAP
7FF0
7FF0
6000
6FE0
E000
FFF8
D8E0
DE38
0000
7FF0
6030
7FF0
3FE0
ENDCHAR
STARTCHAR uni5510
ENCODING 21776
SWIDTH 1000 0
DWIDTH 15 0
BBX 13 13 1 0
BITMAP
0300
3FF8
7FF8
6180
6FF0
6198
7FF8
6198
EFF0
C000
CFF0
CC30
07E0
ENDCHAR
STARTCHAR uni5531
ENCODING 21809
SWIDTH 1153 0
DWIDTH 15 0
BBX 13 13 1 0
BITMAP
03E0
03F0
F330
FBF0
CB30
CBF0
C800
FBF8
7618
07F8
0618
07F8
03F0
ENDCHAR
STARTCHAR uni5546
ENCODING 21830
SWIDTH 1153 0
DWIDTH 15 0
BBX 13 13 1 0
BITMAP
0700
FFF8
FFF8
18C0
7FF0
FFF8
CD98
DDF8
F8F8
CF98
D8D8
D8D8
CF98
ENDCHAR
STARTCHAR uni554F
ENCODING 21839
SWIDTH 1153 0
DWIDTH 15 0
BBX 13 13 1 0
BITMAP
7DF0
CD98
FDF8
CD98
FDF8
C018
CFD8
D8D8
D8D8
D9D8
CF98
E038
6038
ENDCHAR
STARTCHAR uni5553
ENCODING 21843
SWIDTH 1153 0
DWIDTH 15 0
BBX 13 13 1 0
BITMAP
FCC0
FCF8
01F8
7DB0
FC20
CDF0
FDF8
C018
DFE0
3FE0
3060
3FE0
1FC0
ENDCHAR
STARTCHAR uni5584
ENCODING 21892
SWIDTH 1153 0
DWIDTH 15 0
BBX 13 13 1 0
BITMAP
18C0
7FF0
7FF0
0600
7FF0
7FF0
1320
FFF8
FFF8
3060
3060
3FE0
1FC0
ENDCHAR
STARTCHAR uni5589
ENCODING 21897
SWIDTH 1153 0
DWIDTH 15 0
BBX 13 13 1 0
BITMAP
06E0
06F0
EE30
EDF8
BDF8
BC40
BDF8
ADF8
EC60
EDF8
0C60
0DF8
0D98
ENDCHAR
STARTCHAR uni5598
ENCODING 21912
SWIDTH 1153 0
DWIDTH 15 0
BBX 13 13 1 0
BITMAP
00C0
06D8
F7F8
F7F8
D800
DBF8
DBF8
D980
F7F8
77F8
06D8
06D8
06D8
ENDCHAR
STARTCHAR uni559A
ENCODING 21914
SWIDTH 1153 0
DWIDTH 15 0
BBX 13 13 1 0
BITMAP
03E0
0760
F640
FBF8
DAD8
DB78
DA18
D8C0
F7F8
F7F8
00C0
07F8
0738
ENDCHAR
STARTCHAR uni559C
ENCODING 21916
SWIDTH 1153 0
DWIDTH 15 0
BBX 13 13 1 0
BITMAP
0300
7FF0
0300
3FE0
1FC0
3060
3FE0
18C0
FFF8
FFF8
3060
3FE0
1FC0
ENDCHAR
STARTCHAR uni559D
ENCODING 21917
SWIDTH 1153 0
DWIDTH 15 0
BBX 13 13 1 0
BITMAP
03F0
0330
F3F0
FB30
D9F0
DB00
DBF0
F7F8
7618
03D8
0218
03B8
0030
ENDCHAR
STARTCHAR uni55AB
ENCODING 21931
SWIDTH 1153 0
DWIDTH 15 0
BBX 13 13 1 0
BITMAP
0300
77F8
FB78
DFA8
DB68
DFD8
D8C0
DFF8
F7F8
F1C0
03E0
0F78
0E38
ENDCHAR
STARTCHAR uni55B6
ENCODING 21942
SWIDTH 1153 0
DWIDTH 15 0
BBX 13 13 1 0
BITMAP
3660
36C0
7FF0
E038
DFD8
D8D8
19C0
0F00
3FE0
3060
3060
3FE0
1FC0
ENDCHAR
STARTCHAR uni55C5
ENCODING 21957
SWIDTH 1153 0
DWIDTH 15 0
BBX 13 13 1 0
BITMAP
0180
0380
F7F0
F630
97F0
9630
97F0
F1A0
EFF0
0FF0
03C0
1FF8
1E78
ENDCHAR
STARTCHAR uni55E3
ENCODING 21987
SWIDTH 1153 0
DWIDTH 15 0
BBX 13 13 1 0
BITMAP
FDF8
CDF8
CC18
FDD8
01D8
FC18
FDD8
D558
D558
FD58
D5D8
D438
D438
ENDCHAR
STARTCHAR uni5618
ENCODING 22040
SWIDTH 1153 0
DWIDTH 15 0
BBX 13 13 1 0
BITMAP
00C0
00F0
70F0
FBC0
DFF8
DEF8
D6C0
D678
F780
EDB8
0DB0
1BF8
1BF8
ENDCHAR
STARTCHAR uni5631
ENCODING 22065
SWIDTH 1000 0
DWIDTH 15 0
BBX 13 13 1 0
BITMAP
03F8
0618
77F8
F600
D7F8
D660
DEF8
DD68
FDF8
EC60
0DF8
0D68
0DD8
ENDCHAR
STARTCHAR uni5668
ENCODING 22120
SWIDTH 1153 0
DWIDTH 15 0
BBX 13 13 1 0
BITMAP
7DF0
6DB0
6DB0
38E0
0700
FFF8
0D80
F8F8
E038
1DC0
6DB0
6DB0
3DE0
ENDCHAR
STARTCHAR uni5674
ENCODING 22132
SWIDTH 1153 0
DWIDTH 15 0
BBX 13 13 1 0
BITMAP
00C0
07F8
07F8
F2D0
F7F8
9210
97F8
9618
F7F8
F618
03F0
0738
0618
ENDCHAR
STARTCHAR uni5687
ENCODING 22151
SWIDTH 1153 0
DWIDTH 15 0
BBX 13 13 1 0
BITMAP
0600
0F30
6FF0
F6F8
D678
9F60
BFF8
EDF8
EDB0
0DB8
6DB8
6DB0
0DB0
ENDCHAR
STARTCHAR uni56D7
ENCODING 22231
SWIDTH 1153 0
DWIDTH 15 0
BBX 13 13 1 0
BITMAP
3FF0
FFF8
E018
C018
C018
C018
C018
C018
C018
C018
6038
7FF0
7FF0
ENDCHAR
STARTCHAR uni56DA
ENCODING 22234
SWIDTH 1153 0
DWIDTH 15 0
BBX 13 13 1 0
BITMAP
3FE0
7FF8
E038
C318
C318
C718
C718
CF98
DDD8
D8D8
E038
7FF0
7FE0
ENDCHAR
STARTCHAR uni56DB
ENCODING 22235
SWIDTH 1153 0
DWIDTH 15 0
BBX 13 11 1 1
BITMAP
7FF0
FFF8
CD98
CD98
CD98
D9F8
D8F8
6018
6038
7FF0
7FF0
ENDCHAR
STARTCHAR uni56DE
ENCODING 22238
SWIDTH 1153 0
DWIDTH 15 0
BBX 13 13 1 0
BITMAP
3FF0
7FF8
E018
CF98
DFD8
D8D8
D8D8
DFD8
CF98
C018
6038
7FF0
3FE0
ENDCHAR
STARTCHAR uni56E0
ENCODING 22240
SWIDTH 1153 0
DWIDTH 15 0
BBX 13 13 1 0
BITMAP
3FF0
FFF8
C318
C318
DFD8
DFD8
C718
CF18
DDD8
D8D8
6038
7FF0
7FE0
ENDCHAR
STARTCHAR uni56E3
ENCODING 22243
SWIDTH 1153 0
DWIDTH 15 0
BBX 13 13 1 0
BITMAP
3FF0
7FF8
E018
C198
DD98
DFD8
C3D8
CD98
C598
E398
6038
7FF0
3FE0
ENDCHAR
STARTCHAR uni56F0
ENCODING 22256
SWIDTH 1153 0
DWIDTH 15 0
BBX 13 13 1 0
BITMAP
7FF8
FFF8
C018
C318
DFD8
DFD8
C318
C798
CFD8
DB58
6318
7FF8
7FF0
ENDCHAR
STARTCHAR uni56F2
ENCODING 22258
SWIDTH 1153 0
DWIDTH 15 0
BBX 13 13 1 0
BITMAP
7FF0
FFF8
C018
CD98
DFD8
CD98
CD98
DFD8
CD98
D998
C030
7FF0
7FE0
ENDCHAR
STARTCHAR uni56F3
ENCODING 22259
SWIDTH 1153 0
DWIDTH 15 0
BBX 13 13 1 0
BITMAP
3FF0
7FF8
E018
CCD8
C6D8
D8D8
CD98
C318
C7D8
ECD8
6038
7FF0
3FE0
ENDCHAR
STARTCHAR uni56FA
ENCODING 22266
SWIDTH 1153 0
DWIDTH 15 0
BBX 13 13 1 0
BITMAP
7FF0
FFF8
C318
DFD8
DFD8
C618
DF98
D998
DF98
DFB0
C030
FFF0
7FE0
ENDCHAR
STARTCHAR uni56FD
ENCODING 22269
SWIDTH 1153 0
DWIDTH 15 0
BBX 13 13 1 0
BITMAP
7FF0
FFF8
C018
DFD8
C318
C318
CF98
C618
C698
DFD8
C018
7FF8
7FF0
ENDCHAR
STARTCHAR uni570F
ENCODING 22287
SWIDTH 1153 0
DWIDTH 15 0
BBX 13 13 1 0
BITMAP
7FF8
FFF8
CA98
DFD8
C518
DFD8
CF98
D9D8
CF58
CC98
C798
7FF8
7FF0
ENDCHAR
STARTCHAR uni5712
ENCODING 22290
SWIDTH 1153 0
DWIDTH 15 0
BBX 13 13 1 0
BITMAP
7FF0
FFF8
C618
DFD8
C618
FFD8
D998
CF18
CDD8
DB18
C9D8
FFF8
7FF0
ENDCHAR
STARTCHAR uni571F
ENCODING 22303
SWIDTH 1153 0
DWIDTH 15 0
BBX 13 13 1 0
BITMAP
0300
0300
0300
0300
1FF0
7FF0
7300
0300
0300
0300
0300
FFF8
FFF8
ENDCHAR
STARTCHAR uni5727
ENCODING 22311
SWIDTH 1153 0
DWIDTH 15 0
BBX 13 13 1 0
BITMAP
3FF8
7FF8
7000
6180
6180
6180
6FF0
6FF0
6180
6180
C180
DFF8
DFF8
ENDCHAR
STARTCHAR uni5728
ENCODING 22312
SWIDTH 1153 0
DWIDTH 15 0
BBX 13 13 1 0
BITMAP
0600
0600
FFF8
FFF8
0E00
6CC0
7CC0
3BF0
73F0
F0C0
F0C0
37F8
37F8
ENDCHAR
STARTCHAR uni5730
ENCODING 22320
SWIDTH 1153 0
DWIDTH 15 0
BBX 13 13 1 0
BITMAP
00C0
60C0
66C0
F6D8
F7F8
6FF8
6ED8
66D8
76D8
F600
C618
07F8
03F0
ENDCHAR
STARTCHAR uni5742
ENCODING 22338
SWIDTH 1153 0
DWIDTH 15 0
BBX 13 13 1 0
BITMAP
63F8
67F8
6600
F600
F6F8
67F8
6608
6698
76F0
F660
C6F0
0DF8
0D98
ENDCHAR
STARTCHAR uni5747
ENCODING 22343
SWIDTH 1153 0
DWIDTH 15 0
BBX 13 13 1 0
BITMAP
6300
6300
67F0
F7F8
FC18
6DD8
61D8
6018
71D8
F798
C630
00F0
00E0
ENDCHAR
STARTCHAR uni5751
ENCODING 22353
SWIDTH 1153 0
DWIDTH 15 0
BBX 13 13 1 0
BITMAP
30C0
30C0
37F8
37F8
F800
FBE0
33F0
3330
3B30
FB30
E330
0F38
0E38
ENDCHAR
STARTCHAR uni5782
ENCODING 22402
SWIDTH 1153 0
DWIDTH 15 0
BBX 13 13 1 0
BITMAP
07C0
1FC0
0700
7FF0
1B60
FFF8
FFF8
1B60
7FF0
7FF0
0300
FFF8
FFF8
ENDCHAR
STARTCHAR uni578B
ENCODING 22411
SWIDTH 1153 0
DWIDTH 15 0
BBX 13 13 1 0
BITMAP
FE18
6CD8
6CD8
FED8
6CD8
EC38
CC38
0300
7FF0
7FF0
0300
FFF8
FFF8
ENDCHAR
STARTCHAR uni57A3
ENCODING 22435
SWIDTH 1153 0
DWIDTH 15 0
BBX 13 13 1 0
BITMAP
67F8
67F8
6000
F3F8
F618
6618
67F8
6618
6618
77F0
F000
C7F8
07F8
ENDCHAR
STARTCHAR uni57CB
ENCODING 22475
SWIDTH 1153 0
DWIDTH 15 0
BBX 13 13 1 0
BITMAP
67F8
67F8
66D8
F7F8
F6D8
67F8
67F0
60C0
77F8
F7F8
C0C0
0FF8
0FF8
ENDCHAR
STARTCHAR uni57CE
ENCODING 22478
SWIDTH 1153 0
DWIDTH 15 0
BBX 13 13 1 0
BITMAP
01A0
61A0
6FF8
FFF8
ECC0
6CD8
6ED8
6D70
6D70
FD60
CD70
1AD8
18D8
ENDCHAR
STARTCHAR uni57DF
ENCODING 22495
SWIDTH 1153 0
DWIDTH 15 0
BBX 13 13 1 0
BITMAP
0068
6068
67F8
F7F8
F060
6768
6D68
6D78
6E38
71B0
F770
C6F8
00D8
ENDCHAR
STARTCHAR uni57F7
ENCODING 22519
SWIDTH 1153 0
DWIDTH 15 0
BBX 13 13 1 0
BITMAP
30C0
FCC0
FCF0
31F0
FDF0
FDB0
4BB0
FBF0
F9F0
31B0
FDB0
FDB8
31B8
ENDCHAR
STARTCHAR uni57FA
ENCODING 22522
SWIDTH 1153 0
DWIDTH 15 0
BBX 13 13 1 0
BITMAP
18C0
7FF0
7FF0
18C0
1FC0
18C0
FFF8
FFF8
3360
EFB8
C318
3FE0
3FE0
ENDCHAR
STARTCHAR uni57FC
ENCODING 22524
SWIDTH 1153 0
DWIDTH 15 0
BBX 13 13 1 0
BITMAP
00C0
37F8
37F8
31C0
FBF8
FB38
3000
37F8
37F8
3830
FBB0
E2B0
03B0
ENDCHAR
STARTCHAR uni5800
ENCODING 22528
SWIDTH 1153 0
DWIDTH 15 0
BBX 13 13 1 0
BITMAP
67F8
67F8
7618
F7F8
E7F8
6C60
6D68
6DF8
EDF8
EC60
CD68
0DF8
0DF8
ENDCHAR
STARTCHAR uni5802
ENCODING 22530
SWIDTH 1153 0
DWIDTH 15 0
BBX 13 13 1 0
BITMAP
6330
3360
7FF0
FFF8
D8D8
D8D8
1FC0
0300
3FE0
3FE0
0300
FFF8
FFF8
ENDCHAR
STARTCHAR uni5805
ENCODING 22533
SWIDTH 1153 0
DWIDTH 15 0
BBX 13 13 1 0
BITMAP
FDF0
D9F8
FC18
C5F8
FCF0
D9F8
FD98
0600
7FF0
7FF0
0300
FFF8
FFF8
ENDCHAR
STARTCHAR uni5815
ENCODING 22549
SWIDTH 1153 0
DWIDTH 15 0
BBX 13 13 1 0
BITMAP
F8C0
FBF8
C980
D3F8
CB98
F9F8
D998
C638
3FE0
3FE0
0600
FFF8
FFF8
ENDCHAR
STARTCHAR uni582A
ENCODING 22570
SWIDTH 1153 0
DWIDTH 15 0
BBX 13 13 1 0
BITMAP
0630
6FF8
6FF8
6630
F7F0
F630
67F0
6E38
6FF8
F6A0
E690
07F8
07F8
ENDCHAR
STARTCHAR uni5831
ENCODING 22577
SWIDTH 1153 0
DWIDTH 15 0
BBX 13 13 1 0
BITMAP
30F8
FDF8
FD98
31B8
FD80
FDF8
49F8
FD98
FDD8
33F0
FB70
FEF8
36D8
ENDCHAR
STARTCHAR uni5834
ENCODING 22580
SWIDTH 1153 0
DWIDTH 15 0
BBX 13 13 1 0
BITMAP
07E0
6630
67F0
6630
FBF0
F800
33F8
37F8
35C0
7BF8
F778
C6D8
00D8
ENDCHAR
STARTCHAR uni584A
ENCODING 22602
SWIDTH 1153 0
DWIDTH 15 0
BBX 13 13 1 0
BITMAP
60C0
67F8
67F8
F6D8
F7F8
66D8
67F8
67F0
F368
F378
C760
1E78
1C38
ENDCHAR
STARTCHAR uni5854
ENCODING 22612
SWIDTH 1000 0
DWIDTH 15 0
BBX 13 13 1 0
BITMAP
6330
6FF8
6FF8
F220
F1C0
63E0
6E38
6DD8
7000
F7F0
C630
07F0
03E0
ENDCHAR
STARTCHAR uni5857
ENCODING 22615
SWIDTH 1153 0
DWIDTH 15 0
BBX 13 13 1 0
BITMAP
61C0
37F0
CE38
61C0
07F8
31C0
E6B0
C300
3FF0
3FF0
0300
FFF8
FFF8
ENDCHAR
STARTCHAR uni585E
ENCODING 22622
SWIDTH 1153 0
DWIDTH 15 0
BBX 13 13 1 0
BITMAP
0300
7FF8
FFF8
CCC8
3FF0
0CC0
3FF0
0CC0
FFF8
3360
EFB8
C318
1FE0
ENDCHAR
STARTCHAR uni5869
ENCODING 22633
SWIDTH 1153 0
DWIDTH 15 0
BBX 13 13 1 0
BITMAP
0600
67F8
6FF8
6C00
F3F0
F630
67F0
6000
77F0
F550
C550
0FF8
0FF8
ENDCHAR
STARTCHAR uni587E
ENCODING 22654
SWIDTH 1153 0
DWIDTH 15 0
BBX 13 13 1 0
BITMAP
30C0
FBE0
03F0
F9B0
DBB0
F1F8
39B8
F618
37E0
6FE0
0700
FFF8
FFF8
ENDCHAR
STARTCHAR uni5883
ENCODING 22659
SWIDTH 1153 0
DWIDTH 15 0
BBX 13 13 1 0
BITMAP
01C0
67F0
6220
6FF8
F000
F7F0
6630
67F0
7630
F7F0
C360
0F78
0E38
ENDCHAR
STARTCHAR uni5893
ENCODING 22675
SWIDTH 1153 0
DWIDTH 15 0
BBX 13 13 1 0
BITMAP
18C0
FFF8
1FC0
3060
3FE0
3060
3FE0
0CC0
FFF8
3360
EFB8
C318
3FE0
ENDCHAR
STARTCHAR uni5897
ENCODING 22679
SWIDTH 1153 0
DWIDTH 15 0
BBX 13 13 1 0
BITMAP
0630
6360
6FF8
6C98
EFF8
EC98
67F0
6000
77F0
F630
C7F0
0630
03E0
ENDCHAR
STARTCHAR uni58B3
ENCODING 22707
SWIDTH 1153 0
DWIDTH 15 0
BBX 13 13 1 0
BITMAP
0080
67F0
62A0
6FF8
F220
F7F0
6630
67F0
7630
F7F0
C360
0F78
0E38
ENDCHAR
STARTCHAR uni58BE
ENCODING 22718
SWIDTH 1153 0
DWIDTH 15 0
BBX 13 13 1 0
BITMAP
FDF8
5598
FDF8
1998
FDF0
1DA8
F9D8
0600
7FF0
7FF0
0600
FFF8
FFF8
ENDCHAR
STARTCHAR uni58C1
ENCODING 22721
SWIDTH 1153 0
DWIDTH 15 0
BBX 13 13 1 0
BITMAP
7C60
65F8
7C90
C1F8
FC60
E5F8
BC60
0300
3FE0
3FE0
0300
FFF8
FFF8
ENDCHAR
STARTCHAR uni58CA
ENCODING 22730
SWIDTH 1153 0
DWIDTH 15 0
BBX 13 13 1 0
BITMAP
00C0
67F8
67F8
60C0
F7F8
F6A8
67F8
60C0
77F8
F3F8
CF60
0F78
0338
ENDCHAR
STARTCHAR uni58CC
ENCODING 22732
SWIDTH 1000 0
DWIDTH 15 0
BBX 13 13 1 0
BITMAP
00C0
67F8
6330
6618
F330
F7F8
6330
67F8
7330
F7F8
CE60
0F78
0338
ENDCHAR
STARTCHAR uni58EB
ENCODING 22763
SWIDTH 1153 0
DWIDTH 15 0
BBX 13 13 1 0
BITMAP
0300
0300
0300
0300
3FF8
FFF8
E300
0300
0300
0300
0300
3FF0
3FF0
ENDCHAR
STARTCHAR uni58F0
ENCODING 22768
SWIDTH 1153 0
DWIDTH 15 0
BBX 13 13 1 0
BITMAP
0300
7FF8
7FF8
0300
3FF0
3FF0
0000
3FF8
7FF8
6318
7FF8
FFF0
E000
ENDCHAR
STARTCHAR uni58F1
ENCODING 22769
SWIDTH 1153 0
DWIDTH 15 0
BBX 13 13 1 0
BITMAP
0300
7FF0
7FF0
0300
3FE0
0000
7FF8
E018
DBD8
1FC0
1830
1FF0
0FF0
ENDCHAR
STARTCHAR uni58F2
ENCODING 22770
SWIDTH 1153 0
DWIDTH 15 0
BBX 13 13 1 0
BITMAP
0300
7FF0
7FF0
0300
3FE0
0000
7FF8
E038
CDB0
0D80
1D98
F9F8
F0F0
ENDCHAR
STARTCHAR uni58F3
ENCODING 22771
SWIDTH 1153 0
DWIDTH 15 0
BBX 13 13 1 0
BITMAP
0300
7FF0
7FF0
0300
3FE0
0000
FFF8
C018
DFD8
0000
1F98
F8F8
F070
ENDCHAR
STARTCHAR uni5909
ENCODING 22793
SWIDTH 1153 0
DWIDTH 15 0
BBX 13 13 1 0
BITMAP
0300
7FF0
7FF0
0D80
6DB0
EDB8
0200
0FE0
3FE0
38C0
0780
FDF8
F8F8
ENDCHAR
STARTCHAR uni590F
ENCODING 22799
SWIDTH 1153 0
DWIDTH 15 0
BBX 13 13 1 0
BITMAP
FFF8
FFF8
0C00
3FE0
3060
3FE0
3060
1FC0
FFE0
F8E0
0FC0
FFF8
F8F8
ENDCHAR
STARTCHAR uni5915
ENCODING 22805
SWIDTH 1153 0
DWIDTH 15 0
BBX 11 13 2 0
BITMAP
1800
1FE0
1FE0
3860
70E0
FCC0
DFC0
0780
0380
0700
1E00
FC00
E000
ENDCHAR
STARTCHAR uni5916
ENCODING 22806
SWIDTH 1153 0
DWIDTH 15 0
BBX 13 13 1 0
BITMAP
30C0
3EC0
3EC0
66C0
66C0
F6E0
DEF0
0CF8
0CD8
18D8
38C0
70C0
60C0
ENDCHAR
STARTCHAR uni591A
ENCODING 22810
SWIDTH 1153 0
DWIDTH 15 0
BBX 13 13 1 0
BITMAP
0F80
1F80
3180
F980
DF00
0EF8
FDF8
E318
1F98
1DF0
00E0
3FC0
3F00
ENDCHAR
STARTCHAR uni591C
ENCODING 22812
SWIDTH 1153 0
DWIDTH 15 0
BBX 13 13 1 0
BITMAP
0300
FFF8
FFF8
0000
33F0
77F0
EE30
EDB0
62B0
6760
63E0
6FF8
6E38
ENDCHAR
STARTCHAR uni5922
ENCODING 22818
SWIDTH 1153 0
DWIDTH 15 0
BBX 13 13 1 0
BITMAP
18C0
FFF8
18C0
3FF0
2490
3FF0
0000
FFF8
C858
DCD8
07C0
3F00
3C00
ENDCHAR
STARTCHAR uni5927
ENCODING 22823
SWIDTH 1153 0
DWIDTH 15 0
BBX 13 13 1 0
BITMAP
0300
0300
0300
0300
1FF8
FFF8
F300
0300
0780
0FC0
1CE0
F878
E038
ENDCHAR
STARTCHAR uni5929
ENCODING 22825
SWIDTH 1153 0
DWIDTH 15 0
BBX 13 13 1 0
BITMAP
FFF0
FFF0
0600
0600
0600
7FE0
7FE0
0600
0F00
1F80
39E0
F0F8
E038
ENDCHAR
STARTCHAR uni592A
ENCODING 22826
SWIDTH 1153 0
DWIDTH 15 0
BBX 13 13 1 0
BITMAP
0600
0600
0600
3FF8
FFF8
E600
0700
0F80
1DC0
38E0
7670
E738
C318
ENDCHAR
STARTCHAR uni592B
ENCODING 22827
SWIDTH 1153 0
DWIDTH 15 0
BBX 13 13 1 0
BITMAP
0300
0300
7FF0
7FF0
0300
0300
FFF8
FFF8
0780
0FC0
1CE0
F878
F038
ENDCHAR
STARTCHAR uni592E
ENCODING 22830
SWIDTH 1153 0
DWIDTH 15 0
BBX 13 13 1 0
BITMAP
0300
0300
3FE0
3FF0
3330
3330
FFF8
FFF8
0780
0FC0
1CE0
7878
7038
ENDCHAR
STARTCHAR uni5931
ENCODING 22833
SWIDTH 1153 0
DWIDTH 15 0
BBX 13 13 1 0
BITMAP
1B00
1B00
3FF0
7FF0
E300
C300
3FF8
7FF8
0300
0780
1FE0
FCF8
F038
ENDCHAR
STARTCHAR uni5947
ENCODING 22855
SWIDTH 1153 0
DWIDTH 15 0
BBX 13 13 1 0
BITMAP
0300
7FF0
7FF0
0D80
78F0
0000
FFF8
FFF8
0060
3F60
3360
3F60
00E0
ENDCHAR
STARTCHAR uni5948
ENCODING 22856
SWIDTH 1153 0
DWIDTH 15 0
BBX 13 13 1 0
BITMAP
0300
FFF8
FFF8
1D80
F8F8
E738
1FC0
0000
FFF8
FFF8
0300
F778
E738
ENDCHAR
STARTCHAR uni594F
ENCODING 22863
SWIDTH 1153 0
DWIDTH 15 0
BBX 13 13 1 0
BITMAP
0300
7FF0
0600
3FE0
0D80
FFF8
18C0
3760
E238
DFD8
0700
7DF0
78F0
ENDCHAR
STARTCHAR uni5951
ENCODING 22865
SWIDTH 1153 0
DWIDTH 15 0
BBX 13 13 1 0
BITMAP
3000
FDF8
31F8
FCD8
31D8
FDB8
F9B8
0600
FFF8
FFF8
0F80
FDF8
F078
ENDCHAR
STARTCHAR uni5965
ENCODING 22885
SWIDTH 1153 0
DWIDTH 15 0
BBX 13 13 1 0
BITMAP
0600
7FF0
7FF0
6AB0
6230
6FB0
6230
0A80
FFF8
FFF8
0700
FFF8
F8F8
ENDCHAR
STARTCHAR uni5968
ENCODING 22888
SWIDTH 1153 0
DWIDTH 15 0
BBX 13 13 1 0
BITMAP
3070
B7E0
F598
3270
77F8
F330
B070
0700
FFF8
FFF8
0700
FFF8
F8F8
ENDCHAR
STARTCHAR uni596A
ENCODING 22890
SWIDTH 1000 0
DWIDTH 15 0
BBX 13 13 1 0
BITMAP
0300
FFF8
FCF8
3FE0
F338
FFF8
3300
3FF0
00C0
FFF8
FFF8
18C0
1CC0
ENDCHAR
STARTCHAR uni596E
ENCODING 22894
SWIDTH 1153 0
DWIDTH 15 0
BBX 13 13 1 0
BITMAP
0300
FFF8
FFF8
0FC0
FCF8
FB38
3FE0
1300
7FF8
6318
7FF8
6318
3FF0
ENDCHAR
STARTCHAR uni5973
ENCODING 22899
SWIDTH 1153 0
DWIDTH 15 0
BBX 13 13 1 0
BITMAP
0600
0600
0C00
0CC0
FFF8
FFF8
18C0
38C0
1D80
0F80
07C0
7EF0
7830
ENDCHAR
STARTCHAR uni5974
ENCODING 22900
SWIDTH 1000 0
DWIDTH 15 0
BBX 13 13 1 0
BITMAP
3000
31F0
FDF8
FC18
6D98
ED98
CDB8
CDB0
FCF0
78E0
7DF0
EFB8
C318
ENDCHAR
STARTCHAR uni597D
ENCODING 22909
SWIDTH 1153 0
DWIDTH 15 0
BBX 13 13 1 0
BITMAP
31F0
31F8
FC18
FC38
6C70
CC60
CDF8
CDF8
F830
7830
7C30
ECF0
C0E0
ENDCHAR
STARTCHAR uni5982
ENCODING 22914
SWIDTH 1153 0
DWIDTH 15 0
BBX 13 13 1 0
BITMAP
3000
3000
FCF8
FDF8
6D98
6D98
CD98
ED98
7998
3998
7DF8
ECF0
C000
ENDCHAR
STARTCHAR uni5999
ENCODING 22937
SWIDTH 1153 0
DWIDTH 15 0
BBX 13 13 1 0
BITMAP
60C0
60C0
62D0
FAD0
FAD8
56D8
D6D8
D6C0
F198
7038
78F0
DBE0
C380
ENDCHAR
STARTCHAR uni59B9
ENCODING 22969
SWIDTH 1153 0
DWIDTH 15 0
BBX 13 13 1 0
BITMAP
60C0
60C0
63F0
FBF0
F8C0
5FF8
DFF8
D8C0
D9E0
FBF0
7FF8
EED8
C0C0
ENDCHAR
STARTCHAR uni59BB
ENCODING 22971
SWIDTH 1153 0
DWIDTH 15 0
BBX 13 13 1 0
BITMAP
0600
7FF0
0600
7FF0
0630
FFF0
0630
7FE0
0C00
FFF8
38C0
1FF0
7C70
ENDCHAR
STARTCHAR uni59C9
ENCODING 22985
SWIDTH 1153 0
DWIDTH 15 0
BBX 13 13 1 0
BITMAP
60C0
60C0
63F8
FBF8
F8C0
5BF0
DBF8
D6D8
D6D8
F6D8
76D8
F8C0
D8C0
ENDCHAR
STARTCHAR uni59CB
ENCODING 22987
SWIDTH 1153 0
DWIDTH 15 0
BBX 13 13 1 0
BITMAP
3180
3180
F1B0
FB30
7BF8
DBD8
D800
DBF8
FBF8
7318
7318
FBF8
D9F0
ENDCHAR
STARTCHAR uni59D4
ENCODING 22996
SWIDTH 1153 0
DWIDTH 15 0
BBX 13 13 1 0
BITMAP
1FC0
0600
FFF8
FFF8
1FC0
F0F8
E638
0EC0
FFF8
F9F8
1F80
7FF0
7DF0
ENDCHAR
STARTCHAR uni59EB
ENCODING 23019
SWIDTH 1153 0
DWIDTH 15 0
BBX 13 13 1 0
BITMAP
63F8
63F8
FB60
FB60
5BF8
DBF8
DB18
DBF8
F3F8
7360
7B60
FBF8
C3F8
ENDCHAR
STARTCHAR uni59FB
ENCODING 23035
SWIDTH 1153 0
DWIDTH 15 0
BBX 13 13 1 0
BITMAP
61F8
63F8
7B18
FB58
F358
5BF8
DB58
DB58
FB58
73B8
7B18
DBF8
C1F0
ENDCHAR
STARTCHAR uni59FF
ENCODING 23039
SWIDTH 1153 0
DWIDTH 15 0
BBX 13 13 1 0
BITMAP
C300
F3F8
37F8
0618
30C0
F7F8
C738
0880
FFF8
F9F8
1F80
7FF0
7DF0
ENDCHAR
STARTCHAR uni5A01
ENCODING 23041
SWIDTH 1153 0
DWIDTH 15 0
BBX 13 13 1 0
BITMAP
01B8
0180
7FF8
7FF8
60C0
7EC0
7ED8
60D8
6C78
DF70
CA70
DEF8
DAD8
ENDCHAR
STARTCHAR uni5A18
ENCODING 23064
SWIDTH 1000 0
DWIDTH 15 0
BBX 13 13 1 0
BITMAP
30C0
33F0
FBF8
FB18
7BF8
DB18
DBF8
DBE0
FBD8
7378
7370
FBB8
DB98
ENDCHAR
STARTCHAR uni5A20
ENCODING 23072
SWIDTH 1000 0
DWIDTH 15 0
BBX 13 13 1 0
BITMAP
63F8
67F8
F600
F6F0
56F0
D600
D7F8
D7F8
F6A0
76B8
6EB0
EDD8
CDD8
ENDCHAR
STARTCHAR uni5A2F
ENCODING 23087
SWIDTH 1153 0
DWIDTH 15 0
BBX 13 13 1 0
BITMAP
31F0
3198
F998
F8F8
7B00
DBF0
DBF0
D830
FBF8
73F8
7000
FBB8
DB18
ENDCHAR
STARTCHAR uni5A5A
ENCODING 23130
SWIDTH 1153 0
DWIDTH 15 0
BBX 13 13 1 0
BITMAP
6070
63F0
6360
FB78
FBF0
5B38
DB98
D800
FBF8
7318
73F8
FB18
D9F0
ENDCHAR
STARTCHAR uni5A66
ENCODING 23142
SWIDTH 1153 0
DWIDTH 15 0
BBX 13 13 1 0
BITMAP
63F0
6030
FBF0
F830
5BF0
D800
DBF8
DBF8
F0C8
73F0
7BF0
DAD0
C0C0
ENDCHAR
STARTCHAR uni5A92
ENCODING 23186
SWIDTH 1000 0
DWIDTH 15 0
BBX 13 13 1 0
BITMAP
6330
67F8
F738
FBF0
5B30
DBF0
D8C0
DBF8
FBF8
71E0
77F8
DED8
D8C0
ENDCHAR
STARTCHAR uni5A9B
ENCODING 23195
SWIDTH 1153 0
DWIDTH 15 0
BBX 13 13 1 0
BITMAP
67F8
67F8
6000
F6D8
F6D8
5800
DBF8
D0E0
F7F8
7B98
7B70
E6F8
C6D8
ENDCHAR
STARTCHAR uni5AC1
ENCODING 23233
SWIDTH 1153 0
DWIDTH 15 0
BBX 13 13 1 0
BITMAP
6060
61F8
7BF8
FB18
F0E0
58D8
DBD8
D878
F3F0
7070
73F0
F878
D9D8
ENDCHAR
STARTCHAR uni5AC9
ENCODING 23241
SWIDTH 1153 0
DWIDTH 15 0
BBX 13 13 1 0
BITMAP
6060
6060
7BF8
FBF8
F700
5778
D378
D730
F778
7B78
7B30
E6F8
C6D8
ENDCHAR
STARTCHAR uni5ACC
ENCODING 23244
SWIDTH 1153 0
DWIDTH 15 0
BBX 13 13 1 0
BITMAP
61B0
63F8
7BF8
F9B0
F3F8
59A8
DBF8
D9A8
F3F8
79B0
7BB8
E7B8
C1B0
ENDCHAR
STARTCHAR uni5B09
ENCODING 23305
SWIDTH 1153 0
DWIDTH 15 0
BBX 13 13 1 0
BITMAP
60C0
67F8
78C0
FBF0
F800
5BF0
DB30
D9E0
DB30
F7F8
7BF0
DA18
C3F0
ENDCHAR
STARTCHAR uni5B22
ENCODING 23330
SWIDTH 1000 0
DWIDTH 15 0
BBX 13 13 1 0
BITMAP
60C0
63F8
61B0
FB18
F9B0
5BF8
D9B0
DBF8
D9B0
F1F8
7B30
FBB8
C198
ENDCHAR
STARTCHAR uni5B50
ENCODING 23376
SWIDTH 1153 0
DWIDTH 15 0
BBX 13 13 1 0
BITMAP
0F80
3FC0
31C0
0380
0F00
0E00
07F8
FFF8
FF80
0180
0380
1F00
0E00
ENDCHAR
STARTCHAR uni5B54
ENCODING 23380
SWIDTH 1153 0
DWIDTH 15 0
BBX 13 13 1 0
BITMAP
FD80
FD80
0D80
1980
3180
3D80
FD80
F980
1980
1980
1998
79F8
70F8
ENDCHAR
STARTCHAR uni5B57
ENCODING 23383
SWIDTH 1153 0
DWIDTH 15 0
BBX 13 13 1 0
BITMAP
0600
0600
7FF0
7FF8
E018
DFD0
1FC0
0380
7FF0
7FF0
0180
1F80
0F00
ENDCHAR
STARTCHAR uni5B58
ENCODING 23384
SWIDTH 1153 0
DWIDTH 15 0
BBX 13 13 1 0
BITMAP
0600
0600
FFF8
FFF8
0E00
6DE0
7DE0
38C0
77F8
F7F8
F060
31E0
31C0
ENDCHAR
STARTCHAR uni5B5D
ENCODING 23389
SWIDTH 1153 0
DWIDTH 15 0
BBX 13 13 1 0
BITMAP
0600
1F98
1FB8
0670
FFF8
FFF8
0E00
3FC0
FB80
E1F8
1FF8
01C0
0780
ENDCHAR
STARTCHAR uni5B63
ENCODING 23395
SWIDTH 1153 0
DWIDTH 15 0
BBX 13 13 1 0
BITMAP
1FC0
1FC0
0300
FFF8
FFF8
3260
EFB8
CF98
0300
FFF8
FFF8
0300
0700
ENDCHAR
STARTCHAR uni5B64
ENCODING 23396
SWIDTH 1153 0
DWIDTH 15 0
BBX 13 13 1 0
BITMAP
F078
F1F8
37B0
66B0
76B0
F6B0
E6B0
36B0
36B0
3698
6CB8
EDF8
CC18
ENDCHAR
STARTCHAR uni5B66
ENCODING 23398
SWIDTH 1153 0
DWIDTH 15 0
BBX 13 13 1 0
BITMAP
3660
36C0
7FF0
FFF8
C018
DFD8
1FC0
0380
FFF8
FFF8
0180
1F80
0F00
ENDCHAR
STARTCHAR uni5B6B
ENCODING 23403
SWIDTH 1153 0
DWIDTH 15 0
BBX 13 13 1 0
BITMAP
F8F0
FBF0
30C0
61B0
7770
37E0
3998
F7F8
F7D8
30C0
32D0
F6D8
66D8
ENDCHAR
STARTCHAR uni5B85
ENCODING 23429
SWIDTH 1153 0
DWIDTH 15 0
BBX 13 13 1 0
BITMAP
0300
7FF8
FFF8
C018
03C0
1FC0
1E00
07F8
FFF8
FE00
0618
07F8
03F0
ENDCHAR
STARTCHAR uni5B87
ENCODING 23431
SWIDTH 1153 0
DWIDTH 15 0
BBX 12 13 2 0
BITMAP
0600
0600
7FE0
FFF0
C030
3FC0
3FC0
0600
FFF0
FFF0
0600
1E00
1E00
ENDCHAR
STARTCHAR uni5B88
ENCODING 23432
SWIDTH 1153 0
DWIDTH 15 0
BBX 13 13 1 0
BITMAP
0600
7FF0
7FF8
E018
C0D0
00C0
FFF8
FFF8
00C0
18C0
1CC0
0DC0
01C0
ENDCHAR
STARTCHAR uni5B89
ENCODING 23433
SWIDTH 1153 0
DWIDTH 15 0
BBX 13 13 1 0
BITMAP
0600
7FF0
7FF8
E018
C610
0EC0
FFF8
FFF8
18C0
1DC0
0F80
7FF0
78F0
ENDCHAR
STARTCHAR uni5B8C
ENCODING 23436
SWIDTH 1153 0
DWIDTH 15 0
BBX 13 13 1 0
BITMAP
0600
7FF0
FFF8
C018
DFD8
1FC0
0000
FFF8
FFF8
0D80
1D98
F9F8
F0F8
ENDCHAR
STARTCHAR uni5B97
ENCODING 23447
SWIDTH 1153 0
DWIDTH 15 0
BBX 13 13 1 0
BITMAP
0600
7FF0
FFF8
C018
DFD8
1FC0
0000
FFF8
FFF8
0300
3360
F778
E738
ENDCHAR
STARTCHAR uni5B98
ENCODING 23448
SWIDTH 1153 0
DWIDTH 15 0
BBX 13 13 1 0
BITMAP
0300
7FF0
FFF8
C018
DFD8
18C0
18C0
1FC0
1800
1FE0
1860
1860
1FE0
ENDCHAR
STARTCHAR uni5B99
ENCODING 23449
SWIDTH 1153 0
DWIDTH 15 0
BBX 12 13 2 0
BITMAP
0600
0600
7FE0
FFF0
C030
C630
3FC0
7FE0
6660
7FE0
6660
7FE0
3FC0
ENDCHAR
STARTCHAR uni5B9A
ENCODING 23450
SWIDTH 1153 0
DWIDTH 15 0
BBX 13 13 1 0
BITMAP
0300
7FF0
7FF8
E018
DFD0
1FC0
0300
33E0
33E0
3B00
7F00
EFF8
C3F8
ENDCHAR
STARTCHAR uni5B9B
ENCODING 23451
SWIDTH 1153 0
DWIDTH 15 0
BBX 13 13 1 0
BITMAP
0300
7FF0
FFF8
C018
3DE0
3DF0
6D98
EDB8
FDB8
1D80
3998
F1F8
E0F8
ENDCHAR
STARTCHAR uni5B9C
ENCODING 23452
SWIDTH 1153 0
DWIDTH 15 0
BBX 13 13 1 0
BITMAP
0300
7FF0
FFF8
C018
DFD8
3FE0
3060
3FE0
3060
3FE0
3060
FFF8
FFF8
ENDCHAR
STARTCHAR uni5B9D
ENCODING 23453
SWIDTH 1153 0
DWIDTH 15 0
BBX 13 13 1 0
BITMAP
0600
0600
7FF0
FFF8
C018
BFD0
3FC0
0600
1FA0
1FB0
0610
FFF8
FFF8
ENDCHAR
STARTCHAR uni5B9F
ENCODING 23455
SWIDTH 1153 0
DWIDTH 15 0
BBX 13 13 1 0
BITMAP
0300
7FF0
FFF8
C318
3FE0
3FE0
0300
7FF0
7FF0
0780
1FE0
FCF8
F038
ENDCHAR
STARTCHAR uni5BA2
ENCODING 23458
SWIDTH 1153 0
DWIDTH 15 0
BBX 13 13 1 0
BITMAP
0300
7FF0
FFF8
C018
0FC0
18C0
7DC0
6F80
18E0
FFF8
D8D8
18C0
0F80
ENDCHAR
STARTCHAR uni5BA3
ENCODING 23459
SWIDTH 1153 0
DWIDTH 15 0
BBX 13 13 1 0
BITMAP
0300
7FF8
FFF8
C018
1FC0
0000
3FE0
3060
3FE0
3060
1FC0
FFF8
FFF8
ENDCHAR
STARTCHAR uni5BA4
ENCODING 23460
SWIDTH 1153 0
DWIDTH 15 0
BBX 13 13 1 0
BITMAP
0300
7FF0
7FF8
E018
DFD0
0600
1FE0
1C60
0300
1FC0
0300
FFF8
FFF8
ENDCHAR
STARTCHAR uni5BAE
ENCODING 23470
SWIDTH 1153 0
DWIDTH 15 0
BBX 13 13 1 0
BITMAP
0300
7FF0
FFF8
C018
3FE0
3060
3060
1FC0
0600
7FF0
6030
6030
3FE0
ENDCHAR
STARTCHAR uni5BB0
ENCODING 23472
SWIDTH 1153 0
DWIDTH 15 0
BBX 13 13 1 0
BITMAP
0300
7FF8
FFF8
C308
3FF0
3FF0
0CC0
7FF8
7FF8
0300
3FF0
3FF0
0300
ENDCHAR
STARTCHAR uni5BB3
ENCODING 23475
SWIDTH 1153 0
DWIDTH 15 0
BBX 13 13 1 0
BITMAP
0300
7FF0
FFF8
C318
DFD8
0300
1FC0
0300
FFF8
3060
3060
3FE0
1FC0
ENDCHAR
STARTCHAR uni5BB4
ENCODING 23476
SWIDTH 1153 0
DWIDTH 15 0
BBX 13 13 1 0
BITMAP
0300
7FF0
FFF8
D8D8
DFD8
18C0
1FC0
0600
FFF8
F8F8
0F80
7FF0
7C70
ENDCHAR
STARTCHAR uni5BB5
ENCODING 23477
SWIDTH 1000 0
DWIDTH 15 0
BBX 13 13 1 0
BITMAP
0300
7FF0
FFF8
D358
DB58
0B40
3FF0
3030
3FF0
3030
3FF0
7030
6030
ENDCHAR
STARTCHAR uni5BB6
ENCODING 23478
SWIDTH 1153 0
DWIDTH 15 0
BBX 13 13 1 0
BITMAP
0300
7FF0
FFF8
C018
1FC0
7FC0
7618
0F38
FFF0
F3E0
0F70
7F38
7B18
ENDCHAR
STARTCHAR uni5BB9
ENCODING 23481
SWIDTH 1153 0
DWIDTH 15 0
BBX 13 13 1 0
BITMAP
0300
7FF0
FFF8
CCD8
38E0
6770
1F80
38E0
FFF8
F078
3060
3FE0
1FC0
ENDCHAR
STARTCHAR uni5BBF
ENCODING 23487
SWIDTH 1153 0
DWIDTH 15 0
BBX 13 13 1 0
BITMAP
0300
7FF0
FFF8
C018
1BF8
3BF0
70C0
F7F8
F618
37F8
3618
37F8
33F0
ENDCHAR
STARTCHAR uni5BC2
ENCODING 23490
SWIDTH 1153 0
DWIDTH 15 0
BBX 13 13 1 0
BITMAP
0600
7FF0
FFF8
C018
B008
3DF0
3DF8
3018
FDB8
FDF0
30E0
BBF8
BBB8
ENDCHAR
STARTCHAR uni5BC4
ENCODING 23492
SWIDTH 1153 0
DWIDTH 15 0
BBX 13 13 1 0
BITMAP
0300
7FF0
FFF8
C718
3FE0
3DE0
0000
FFF8
FFF8
3360
3F60
1EE0
00E0
ENDCHAR
STARTCHAR uni5BC6
ENCODING 23494
SWIDTH 1153 0
DWIDTH 15 0
BBX 13 13 1 0
BITMAP
0600
7FF0
FFF8
8408
56B0
D998
0F20
FFF0
F1F0
0600
6630
7FF0
3FE0
ENDCHAR
STARTCHAR uni5BCC
ENCODING 23500
SWIDTH 1153 0
DWIDTH 15 0
BBX 13 13 1 0
BITMAP
0600
7FF0
FFF8
C018
DFD8
0000
1FC0
18C0
7FF0
6230
7FF0
6230
3FE0
ENDCHAR
STARTCHAR uni5BD2
ENCODING 23506
SWIDTH 1153 0
DWIDTH 15 0
BBX 13 13 1 0
BITMAP
0300
7FF0
FFF8
CD98
3FE0
0D80
7FF0
18C0
F778
E738
1800
1FC0
07C0
ENDCHAR
STARTCHAR uni5BDB
ENCODING 23515
SWIDTH 1153 0
DWIDTH 15 0
BBX 13 13 1 0
BITMAP
0300
FFF8
FFF8
98C8
7FF0
18C0
3FE0
3060
3FE0
3060
1FD8
F8F8
F078
ENDCHAR
STARTCHAR uni5BDD
ENCODING 23517
SWIDTH 1153 0
DWIDTH 15 0
BBX 13 13 1 0
BITMAP
0600
7FF0
FFF8
C038
33F0
B030
F3F0
3000
37F8
7638
F3E0
B7F8
3618
ENDCHAR
STARTCHAR uni5BDF
ENCODING 23519
SWIDTH 1153 0
DWIDTH 15 0
BBX 13 13 1 0
BITMAP
0300
7FF0
FFF8
C008
3DF0
EDB0
DCE0
33B8
EF98
0000
FFF8
3360
6730
ENDCHAR
STARTCHAR uni5BE1
ENCODING 23521
SWIDTH 1153 0
DWIDTH 15 0
BBX 13 13 1 0
BITMAP
0300
7FF8
FFF8
C618
1FC0
18C0
1FC0
F8F8
FFF8
38E0
FFF8
CCD8
19C0
ENDCHAR
STARTCHAR uni5BE7
ENCODING 23527
SWIDTH 1153 0
DWIDTH 15 0
BBX 13 13 1 0
BITMAP
0600
7FF0
FFF8
8210
5B58
D858
8FC0
7FF0
6490
FFF8
FFF8
0300
0700
ENDCHAR
STARTCHAR uni5BE9
ENCODING 23529
SWIDTH 1000 0
DWIDTH 15 0
BBX 13 13 1 0
BITMAP
0300
7FF0
FFF8
C198
1F80
F278
FFF8
3FE0
E238
FFF8
6230
7FF0
3FE0
ENDCHAR
STARTCHAR uni5BF8
ENCODING 23544
SWIDTH 1153 0
DWIDTH 15 0
BBX 13 13 1 0
BITMAP
0180
0180
0180
3FF8
FFF8
E0C0
18C0
1CC0
0CC0
0CC0
00C0
03C0
0380
ENDCHAR
STARTCHAR uni5BFA
ENCODING 23546
SWIDTH 1153 0
DWIDTH 15 0
BBX 12 13 2 0
BITMAP
0600
0600
3FC0
3FC0
0600
FFF0
FFF0
0180
7FE0
7FE0
0180
3980
1B80
ENDCHAR
STARTCHAR uni5BFE
ENCODING 23550
SWIDTH 1153 0
DWIDTH 15 0
BBX 13 13 1 0
BITMAP
3030
3030
FC30
FDF8
19F8
5830
7B30
73B0
39B0
3830
7C30
EC70
C070
ENDCHAR
STARTCHAR uni5BFF
ENCODING 23551
SWIDTH 1153 0
DWIDTH 15 0
BBX 13 13 1 0
BITMAP
0600
FFF8
FFF8
0C00
7FF0
7FF0
1860
FFF8
FFF8
7060
EC60
CEE0
06E0
ENDCHAR
STARTCHAR uni5C01
ENCODING 23553
SWIDTH 1153 0
DWIDTH 15 0
BBX 13 13 1 0
BITMAP
3030
3030
FC30
FDF8
31F8
FC30
FDB0
31B0
FDB0
FDB0
3030
FEF0
FCE0
ENDCHAR
STARTCHAR uni5C02
ENCODING 23554
SWIDTH 1153 0
DWIDTH 15 0
BBX 13 13 1 0
BITMAP
0300
FFF8
FFF8
3330
3FF0
3330
1FE0
00C0
FFF8
FFF8
00C0
39C0
1BC0
ENDCHAR
STARTCHAR uni5C04
ENCODING 23556
SWIDTH 1153 0
DWIDTH 15 0
BBX 13 13 1 0
BITMAP
1C30
3830
7C30
65F0
7DF8
6438
7DB0
65B0
FEB0
FE30
1C30
FC70
EC70
ENDCHAR
STARTCHAR uni5C06
ENCODING 23558
SWIDTH 1153 0
DWIDTH 15 0
BBX 13 13 1 0
BITMAP
3070
37F0
B7C0
B018
76D8
36D8
3030
77F8
F7F8
B030
B730
3330
3070
ENDCHAR
STARTCHAR uni5C09
ENCODING 23561
SWIDTH 1153 0
DWIDTH 15 0
BBX 13 13 1 0
BITMAP
7E30
C630
C630
FE30
C1F8
FDF8
C030
FDB0
99B0
DAB0
DA30
3870
3870
ENDCHAR
STARTCHAR uni5C0A
ENCODING 23562
SWIDTH 1153 0
DWIDTH 15 0
BBX 13 13 1 0
BITMAP
18C0
0D80
7FF0
7FF0
2520
39E0
2020
3FE0
00C0
FFF8
FFF8
1CC0
0CC0
ENDCHAR
STARTCHAR uni5C0B
ENCODING 23563
SWIDTH 1000 0
DWIDTH 15 0
BBX 13 13 1 0
BITMAP
3FE0
0060
3FE0
0060
FFF0
F1F8
3D08
F1F8
0060
FFF8
FFF8
1C60
0EE0
ENDCHAR
STARTCHAR uni5C0E
ENCODING 23566
SWIDTH 1153 0
DWIDTH 15 0
BBX 13 13 1 0
BITMAP
6630
6360
0FF8
31C0
F7F0
6630
37F0
E630
FFF8
1FF8
0060
1CE0
0CE0
ENDCHAR
STARTCHAR uni5C0F
ENCODING 23567
SWIDTH 1153 0
DWIDTH 15 0
BBX 13 13 1 0
BITMAP
0300
0300
0300
3330
3330
7338
6318
E318
C318
0300
0300
0700
0700
ENDCHAR
STARTCHAR uni5C11
ENCODING 23569
SWIDTH 1153 0
DWIDTH 15 0
BBX 13 13 1 0
BITMAP
0300
0300
1B60
1B70
3B38
7318
E718
C760
00E0
01C0
0780
3F00
3C00
ENDCHAR
STARTCHAR uni5C1A
ENCODING 23578
SWIDTH 1000 0
DWIDTH 15 0
BBX 13 13 1 0
BITMAP
6330
7B70
3B60
0300
7FF0
FFF8
C018
CFD8
DFD8
D8D8
DFD8
CF98
C018
ENDCHAR
STARTCHAR uni5C31
ENCODING 23601
SWIDTH 1153 0
DWIDTH 15 0
BBX 13 13 1 0
BITMAP
1868
FE68
FE68
0060
7DF8
6DF8
6C60
7860
1CE0
5CE8
DDF8
DBB8
9B38
ENDCHAR
STARTCHAR uni5C3A
ENCODING 23610
SWIDTH 1153 0
DWIDTH 15 0
BBX 13 13 1 0
BITMAP
3FF0
3FF0
3030
3030
3FF0
3FE0
3300
3380
7180
61C0
60E0
E078
C038
ENDCHAR
STARTCHAR uni5C3B
ENCODING 23611
SWIDTH 1000 0
DWIDTH 15 0
BBX 13 13 1 0
BITMAP
3FF0
7FF8
6018
7FF8
7FF0
6300
E300
DFC0
DFC0
C6C0
CED8
DCF8
D878
ENDCHAR
STARTCHAR uni5C3D
ENCODING 23613
SWIDTH 1000 0
DWIDTH 15 0
BBX 13 13 1 0
BITMAP
3FF0
7FF0
6030
6030
7FF0
7FE0
6060
EF70
CFB0
C1B8
DE18
1FC0
03C0
ENDCHAR
STARTCHAR uni5C40
ENCODING 23616
SWIDTH 1153 0
DWIDTH 15 0
BBX 13 13 1 0
BITMAP
3FE0
3FF0
3030
3FF0
3000
3FF0
3FF8
6018
6F98
ED98
CD98
0778
0070
ENDCHAR
STARTCHAR uni5C45
ENCODING 23621
SWIDTH 1153 0
DWIDTH 15 0
BBX 13 13 1 0
BITMAP
3FF0
3FF0
3030
3FF0
3FF0
6180
7FF8
7FF8
E180
DFF0
D830
1FF0
0FE0
ENDCHAR
STARTCHAR uni5C48
ENCODING 23624
SWIDTH 1153 0
DWIDTH 15 0
BBX 13 13 1 0
BITMAP
3FF0
7FF8
6018
7FF8
7FF0
6180
6DB0
6DB0
EFF0
C180
D998
DFF8
1FF8
ENDCHAR
STARTCHAR uni5C4A
ENCODING 23626
SWIDTH 1153 0
DWIDTH 15 0
BBX 13 13 1 0
BITMAP
3FF0
7FF8
6018
7FF8
7FF8
6180
EFF0
DFF8
D998
DFF8
D998
DFF8
CFF0
ENDCHAR
STARTCHAR uni5C4B
ENCODING 23627
SWIDTH 1153 0
DWIDTH 15 0
BBX 13 13 1 0
BITMAP
3FF0
7FF8
6018
7FF8
7FC0
6630
6FF8
6198
6FE0
6FF0
E180
DFF8
DFF8
ENDCHAR
STARTCHAR uni5C4D
ENCODING 23629
SWIDTH 1153 0
DWIDTH 15 0
BBX 13 13 1 0
BITMAP
3FF8
7FF8
6018
7FF8
FFF0
C000
DFF8
DFF8
CF60
D978
DF60
C778
CE38
ENDCHAR
STARTCHAR uni5C4F
ENCODING 23631
SWIDTH 1153 0
DWIDTH 15 0
BBX 13 13 1 0
BITMAP
3FF8
7FF8
6018
7FF0
6000
6660
6FF0
EFF0
C660
DFF8
DFF8
C660
0C60
ENDCHAR
STARTCHAR uni5C55
ENCODING 23637
SWIDTH 1153 0
DWIDTH 15 0
BBX 13 13 1 0
BITMAP
3FF8
7FF8
6018
7FF8
6660
6FF0
6FF0
6660
FFF8
DFF8
D8E0
DE78
1E38
ENDCHAR
STARTCHAR uni5C5E
ENCODING 23646
SWIDTH 1153 0
DWIDTH 15 0
BBX 13 13 1 0
BITMAP
3FF8
6018
7FF8
6000
6FF0
6180
6FF0
6990
EFF0
C180
CFF8
D998
1BD8
ENDCHAR
STARTCHAR uni5C64
ENCODING 23652
SWIDTH 1153 0
DWIDTH 15 0
BBX 13 13 1 0
BITMAP
7FF8
6018
7FF8
6420
6FF8
7998
FFF8
D998
DFF8
CC30
CFF0
CC30
0FF0
ENDCHAR
STARTCHAR uni5C65
ENCODING 23653
SWIDTH 1153 0
DWIDTH 15 0
BBX 13 13 1 0
BITMAP
7FF8
6018
7FF8
60C0
6DF8
7990
66F0
6C90
DC60
CCF8
CD98
CC70
0DD8
ENDCHAR
STARTCHAR uni5C71
ENCODING 23665
SWIDTH 1153 0
DWIDTH 15 0
BBX 13 13 1 0
BITMAP
0300
0300
0300
0300
0300
C318
C318
C318
C318
E318
6318
7FF0
7FF0
ENDCHAR
STARTCHAR uni5C90
ENCODING 23696
SWIDTH 1153 0
DWIDTH 15 0
BBX 13 13 1 0
BITMAP
30C0
30F8
3BF8
1BC0
18F0
DBF8
DB18
DBB8
DFF0
FEE0
71F0
07B8
0718
ENDCHAR
STARTCHAR uni5CA1
ENCODING 23713
SWIDTH 1153 0
DWIDTH 15 0
BBX 13 13 1 0
BITMAP
7FF0
FFF8
C018
D8D8
CD98
DFD8
DFD8
C318
DB58
DB58
DFD8
C038
C038
ENDCHAR
STARTCHAR uni5CA9
ENCODING 23721
SWIDTH 1153 0
DWIDTH 15 0
BBX 13 13 1 0
BITMAP
0300
3330
3330
3FF0
3FE0
0000
7FF8
7FF8
0600
1FF0
FC30
EC30
07E0
ENDCHAR
STARTCHAR uni5CB3
ENCODING 23731
SWIDTH 1153 0
DWIDTH 15 0
BBX 13 13 1 0
BITMAP
0380
0F80
3C00
3FF0
3FF0
3060
3060
FFF8
FFF8
0300
6330
7FF0
7FF0
ENDCHAR
STARTCHAR uni5CB8
ENCODING 23736
SWIDTH 1153 0
DWIDTH 15 0
BBX 13 13 1 0
BITMAP
3330
3FF0
3FF0
0000
7FF8
7FF8
6000
6FF0
6FF0
E180
DFF8
DFF8
C180
ENDCHAR
STARTCHAR uni5CE0
ENCODING 23776
SWIDTH 1153 0
DWIDTH 15 0
BBX 13 13 1 0
BITMAP
1860
1878
1878
1B60
DBF8
DBF8
DB00
DBF8
DFF8
FF60
7878
0078
0060
ENDCHAR
STARTCHAR uni5CE1
ENCODING 23777
SWIDTH 1153 0
DWIDTH 15 0
BBX 13 13 1 0
BITMAP
30C0
33F8
3BF8
18C0
DAD8
DBD8
D8C0
DBF8
DFF8
FEE0
7DF0
03B8
0318
ENDCHAR
STARTCHAR uni5CF6
ENCODING 23798
SWIDTH 1153 0
DWIDTH 15 0
BBX 13 13 1 0
BITMAP
0700
0E00
7FE0
6060
7FE0
6060
7FF8
6000
7FF0
1818
DB18
DB78
FF70
ENDCHAR
STARTCHAR uni5D0E
ENCODING 23822
SWIDTH 1153 0
DWIDTH 15 0
BBX 13 13 1 0
BITMAP
1860
1BF8
1BF8
D8E0
DBF8
DB38
D800
DBF8
DBF8
DE30
FDB0
7AB0
03B0
ENDCHAR
STARTCHAR uni5D29
ENCODING 23849
SWIDTH 1153 0
DWIDTH 15 0
BBX 13 13 1 0
BITMAP
0300
6318
7FF8
7FF0
0000
7CF8
FDF8
CD98
FDF8
CD98
FDF8
CD98
CDB8
ENDCHAR
STARTCHAR uni5D50
ENCODING 23888
SWIDTH 1153 0
DWIDTH 15 0
BBX 13 13 1 0
BITMAP
0600
6630
7FF0
7FF0
0000
7FF0
7FF0
6230
6FB0
6AB0
6FB0
E258
DFD8
ENDCHAR
STARTCHAR uni5DDD
ENCODING 24029
SWIDTH 1153 0
DWIDTH 15 0
BBX 12 13 1 0
BITMAP
6030
6030
7030
3330
3330
3330
3330
3330
3330
7030
6030
E030
C030
ENDCHAR
STARTCHAR uni5DDE
ENCODING 24030
SWIDTH 1153 0
DWIDTH 15 0
BBX 12 13 1 0
BITMAP
3030
3330
3330
3330
7330
FBB0
BFF0
3770
3330
3330
7330
E330
C030
ENDCHAR
STARTCHAR uni5DE1
ENCODING 24033
SWIDTH 1153 0
DWIDTH 15 0
BBX 13 13 1 0
BITMAP
66D8
76D8
06D8
36D8
F5B0
EDB0
6DB0
66D8
66D8
C6D8
F800
FFF8
0FF8
ENDCHAR
STARTCHAR uni5DE3
ENCODING 24035
SWIDTH 1153 0
DWIDTH 15 0
BBX 13 13 1 0
BITMAP
3330
3B70
1FE0
3330
3FF0
3330
3FF0
0300
FFF8
FFF8
0FC0
FB78
F338
ENDCHAR
STARTCHAR uni5DE5
ENCODING 24037
SWIDTH 1153 0
DWIDTH 15 0
BBX 13 11 1 1
BITMAP
03E0
3FE0
3F00
0300
0300
0300
0300
0300
1FF8
FFF8
F000
ENDCHAR
STARTCHAR uni5DE6
ENCODING 24038
SWIDTH 1153 0
DWIDTH 15 0
BBX 13 13 1 0
BITMAP
0600
0600
07F8
FFF8
FC00
1800
1FF0
3FF0
7180
E180
C180
1FF8
1FF8
ENDCHAR
STARTCHAR uni5DE7
ENCODING 24039
SWIDTH 1153 0
DWIDTH 15 0
BBX 13 12 1 0
BITMAP
03F8
FBF8
F8C0
30C0
3180
31F0
39F8
F818
E018
0018
00F8
00F0
ENDCHAR
STARTCHAR uni5DE8
ENCODING 24040
SWIDTH 1153 0
DWIDTH 15 0
BBX 13 13 1 0
BITMAP
3FF0
7FF0
6000
C000
FFE0
FFF0
C030
C0F0
FFE0
FF00
C000
FFF8
7FF8
ENDCHAR
STARTCHAR uni5DEE
ENCODING 24046
SWIDTH 1153 0
DWIDTH 15 0
BBX 13 13 1 0
BITMAP
1860
0CC0
7FF0
0300
3FE0
0300
FFF8
1800
3FF0
7FF0
E180
DFF8
1FF8
ENDCHAR
STARTCHAR uni5DF1
ENCODING 24049
SWIDTH 1153 0
DWIDTH 15 0
BBX 11 13 2 0
BITMAP
FFC0
FFC0
00C0
00C0
00C0
7FC0
FF80
C000
C000
C060
C060
FFE0
7FC0
ENDCHAR
STARTCHAR uni5DFB
ENCODING 24059
SWIDTH 1153 0
DWIDTH 15 0
BBX 13 13 1 0
BITMAP
3330
3B60
0780
3FF0
0D80
FFF8
FFF8
18C0
3FF0
E0B8
DF98
1860
1FE0
ENDCHAR
STARTCHAR uni5DFE
ENCODING 24062
SWIDTH 1153 0
DWIDTH 15 0
BBX 12 13 2 0
BITMAP
0600
0600
0600
7FE0
FFF0
C630
C630
C630
C630
C6F0
C6F0
0600
0600
ENDCHAR
STARTCHAR uni5E02
ENCODING 24066
SWIDTH 1153 0
DWIDTH 15 0
BBX 13 13 1 0
BITMAP
0600
0600
FFF8
FFF8
0600
1FE0
3FF0
3330
3330
3330
3370
0300
0300
ENDCHAR
STARTCHAR uni5E03
ENCODING 24067
SWIDTH 1153 0
DWIDTH 15 0
BBX 13 13 1 0
BITMAP
0600
0600
FFF8
FFF8
0C00
1B00
3FE0
7FF0
F330
F330
3330
3330
0300
ENDCHAR
STARTCHAR uni5E0C
ENCODING 24076
SWIDTH 1153 0
DWIDTH 15 0
BBX 13 13 1 0
BITMAP
0660
07E0
3FC0
38C0
0300
FFF8
FFF8
0E00
3FE0
FB30
DB30
1B30
0300
ENDCHAR
STARTCHAR uni5E25
ENCODING 24101
SWIDTH 1153 0
DWIDTH 15 0
BBX 13 13 1 0
BITMAP
30C0
70C0
E0C0
F3F8
97F8
F6D8
F6D8
86D8
F6D8
96D8
F6D8
70C0
00C0
ENDCHAR
STARTCHAR uni5E2B
ENCODING 24107
SWIDTH 1153 0
DWIDTH 15 0
BBX 13 13 1 0
BITMAP
3078
77F8
E7C0
F0F0
93F8
F7D8
F6D8
86D8
F6D8
96D8
F6D8
70C0
00C0
ENDCHAR
STARTCHAR uni5E2D
ENCODING 24109
SWIDTH 1153 0
DWIDTH 15 0
BBX 13 13 1 0
BITMAP
0300
7FF8
7FF8
6660
7FF8
6660
67E0
6180
EFF0
CDB0
CDB0
CDB0
C180
ENDCHAR
STARTCHAR uni5E2F
ENCODING 24111
SWIDTH 1153 0
DWIDTH 15 0
BBX 13 13 1 0
BITMAP
3330
FFF8
FFF8
3330
3FF0
0000
FFF8
FFF8
C318
3FE0
3FE0
3360
0300
ENDCHAR
STARTCHAR uni5E30
ENCODING 24112
SWIDTH 1153 0
DWIDTH 15 0
BBX 13 13 1 0
BITMAP
1BF0
1830
DBF0
D830
DBF8
DFF8
DCC8
DBF0
1BF0
36D8
36D8
70C0
60C0
ENDCHAR
STARTCHAR uni5E33
ENCODING 24115
SWIDTH 1153 0
DWIDTH 15 0
BBX 13 13 1 0
BITMAP
31F8
31F8
3180
FDF8
FD80
B5F8
B580
B7F8
B7F8
31A0
31B0
31B8
31D8
ENDCHAR
STARTCHAR uni5E38
ENCODING 24120
SWIDTH 1153 0
DWIDTH 15 0
BBX 12 13 2 0
BITMAP
6660
36C0
7FE0
C030
DFB0
D9B0
1F80
0600
3FC0
7FE0
6660
6660
0600
ENDCHAR
STARTCHAR uni5E45
ENCODING 24133
SWIDTH 1153 0
DWIDTH 15 0
BBX 13 13 1 0
BITMAP
33F8
33F8
3000
FDF0
FD10
B5F0
B400
B5F8
B648
33F8
3248
33F8
31F0
ENDCHAR
STARTCHAR uni5E55
ENCODING 24149
SWIDTH 1153 0
DWIDTH 15 0
BBX 13 13 1 0
BITMAP
18C0
FFF8
18C0
3FE0
3060
3FE0
0C80
FFF8
3FE0
F678
F678
36E0
0600
ENDCHAR
STARTCHAR uni5E72
ENCODING 24178
SWIDTH 1153 0
DWIDTH 15 0
BBX 13 13 1 0
BITMAP
3FE0
3FE0
0300
0300
0300
1FF8
FFF8
F300
0300
0300
0300
0300
0300
ENDCHAR
STARTCHAR uni5E73
ENCODING 24179
SWIDTH 1153 0
DWIDTH 15 0
BBX 13 13 1 0
BITMAP
7FF0
7FF0
0300
3360
3B60
0300
FFF8
FFF8
0300
0300
0300
0300
0300
ENDCHAR
STARTCHAR uni5E74
ENCODING 24180
SWIDTH 1153 0
DWIDTH 15 0
BBX 13 13 1 0
BITMAP
1800
1838
3FF8
7FC0
E180
CFE0
0FE0
1980
19F8
FFF8
FF80
0180
0180
ENDCHAR
STARTCHAR uni5E78
ENCODING 24184
SWIDTH 1153 0
DWIDTH 15 0
BBX 13 13 1 0
BITMAP
0300
3FF0
3FF0
0300
FFF8
F878
0CC0
7FF8
0300
7FF8
7FF8
0300
0300
ENDCHAR
STARTCHAR uni5E79
ENCODING 24185
SWIDTH 1153 0
DWIDTH 15 0
BBX 13 13 1 0
BITMAP
3060
FCF0
FDF8
3198
FC00
CCF0
FCF0
CC60
FDF8
31F8
FC60
FC60
3060
ENDCHAR
STARTCHAR uni5E7B
ENCODING 24187
SWIDTH 1153 0
DWIDTH 15 0
BBX 13 13 1 0
BITMAP
3000
33F0
63F8
6018
CC18
FC18
7818
3018
6618
FE38
FE30
E6F0
00E0
ENDCHAR
STARTCHAR uni5E7C
ENCODING 24188
SWIDTH 1153 0
DWIDTH 15 0
BBX 13 13 1 0
BITMAP
30C0
30C0
70C0
EDF0
CDF8
FCD8
78D8
70D8
ECD8
CDD8
FD98
FBB8
0330
ENDCHAR
STARTCHAR uni5E7D
ENCODING 24189
SWIDTH 1153 0
DWIDTH 15 0
BBX 13 13 1 0
BITMAP
0300
0B20
1B60
D358
CB58
DBD8
F798
E738
FFF8
C618
C638
FFF0
7FE0
ENDCHAR
STARTCHAR uni5E7E
ENCODING 24190
SWIDTH 1153 0
DWIDTH 15 0
BBX 13 13 1 0
BITMAP
3630
6660
F6F0
6B68
FBF8
0320
FFF8
FFF8
3190
31F0
78E0
FBF8
C3B8
ENDCHAR
STARTCHAR uni5E81
ENCODING 24193
SWIDTH 1153 0
DWIDTH 15 0
BBX 13 13 1 0
BITMAP
0300
7FF8
7FF8
6000
6000
6FF8
6FF8
E0C0
C0C0
C0C0
C0C0
C7C0
0780
ENDCHAR
STARTCHAR uni5E83
ENCODING 24195
SWIDTH 1153 0
DWIDTH 15 0
BBX 13 13 1 0
BITMAP
0300
7FF8
7FF8
6000
6300
6300
6700
E660
CE60
CC30
CCF0
DFF8
DF18
ENDCHAR
STARTCHAR uni5E8A
ENCODING 24202
SWIDTH 1153 0
DWIDTH 15 0
BBX 13 13 1 0
BITMAP
0300
7FF8
7FF8
6180
6180
6FF0
6FF0
E3C0
C7E0
CFF0
DDB8
D998
0180
ENDCHAR
STARTCHAR uni5E8F
ENCODING 24207
SWIDTH 1153 0
DWIDTH 15 0
BBX 13 13 1 0
BITMAP
0300
3FF8
7FF8
6000
67E0
67E0
61C0
6FF8
6FF8
E0D0
C0C0
C3C0
C380
ENDCHAR
STARTCHAR uni5E95
ENCODING 24213
SWIDTH 1153 0
DWIDTH 15 0
BBX 13 13 1 0
BITMAP
0300
7FF8
7FF8
6000
67F0
6FF0
6CC0
6FF8
6FF8
EC60
C068
DFB8
DF98
ENDCHAR
STARTCHAR uni5E97
ENCODING 24215
SWIDTH 1153 0
DWIDTH 15 0
BBX 13 13 1 0
BITMAP
0300
7FF0
7FF0
6300
63F8
63F8
6300
EFF0
DFF0
D830
D870
DFE0
0FE0
ENDCHAR
STARTCHAR uni5E9C
ENCODING 24220
SWIDTH 1153 0
DWIDTH 15 0
BBX 13 13 1 0
BITMAP
0300
7FF8
7FF8
6000
6630
6630
6DF8
EDF8
DC30
DDB0
CDB0
CC70
CC70
ENDCHAR
STARTCHAR uni5EA6
ENCODING 24230
SWIDTH 1153 0
DWIDTH 15 0
BBX 13 13 1 0
BITMAP
0300
7FF8
7FF8
6660
6FF0
6660
67E0
6000
67E0
E660
C3C0
DFF8
DC38
ENDCHAR
STARTCHAR uni5EA7
ENCODING 24231
SWIDTH 1153 0
DWIDTH 15 0
BBX 13 13 1 0
BITMAP
0300
7FF8
7FF8
6180
6DB0
6DB0
7BE8
6180
CFF0
CFF0
C180
DFF8
DFF8
ENDCHAR
STARTCHAR uni5EAB
ENCODING 24235
SWIDTH 1153 0
DWIDTH 15 0
BBX 13 13 1 0
BITMAP
0300
7FF8
FFF8
C180
DFF8
D998
DFF8
D998
DFF0
C180
DFF8
DFF8
C180
ENDCHAR
STARTCHAR uni5EAD
ENCODING 24237
SWIDTH 1153 0
DWIDTH 15 0
BBX 13 13 1 0
BITMAP
0300
7FF8
FFF8
C000
DDF8
DDF8
CC60
D9F8
DC60
DDF8
CE00
DFF8
DBF8
ENDCHAR
STARTCHAR uni5EB6
ENCODING 24246
SWIDTH 1153 0
DWIDTH 15 0
BBX 13 13 1 0
BITMAP
0300
7FF8
7FF8
6660
6FF8
6FF8
E660
C7E0
C7E0
C000
D6D8
36D8
36D8
ENDCHAR
STARTCHAR uni5EB7
ENCODING 24247
SWIDTH 1153 0
DWIDTH 15 0
BBX 13 13 1 0
BITMAP
0300
7FF8
7FF8
6180
6FF0
6190
7FF8
6190
6FF0
E188
DDF0
C5B0
DB98
ENDCHAR
STARTCHAR uni5EC3
ENCODING 24259
SWIDTH 1153 0
DWIDTH 15 0
BBX 13 13 1 0
BITMAP
0300
7FF8
7FF8
6000
6770
6B68
6E30
6FF8
6660
EFF8
C660
DE78
DC78
ENDCHAR
STARTCHAR uni5ECA
ENCODING 24266
SWIDTH 1153 0
DWIDTH 15 0
BBX 13 13 1 0
BITMAP
0300
3FF8
7FF8
6000
6678
6F78
6948
6F50
E958
CF48
C878
CF60
CD60
ENDCHAR
STARTCHAR uni5EF6
ENCODING 24310
SWIDTH 1153 0
DWIDTH 15 0
BBX 13 13 1 0
BITMAP
F078
F7F8
37C0
70C0
E6F8
F6F8
36C0
F6C0
E7F8
73F8
7800
FFF8
CFF8
ENDCHAR
STARTCHAR uni5EFA
ENCODING 24314
SWIDTH 1153 0
DWIDTH 15 0
BBX 13 13 1 0
BITMAP
00C0
F7F0
F0D8
37F8
60D8
F7F0
F0C0
37F8
F0C0
E7F8
70C0
FFF8
DFF8
ENDCHAR
STARTCHAR uni5F01
ENCODING 24321
SWIDTH 1153 0
DWIDTH 15 0
BBX 13 13 1 0
BITMAP
0C00
1CC0
38E0
7FF0
7FB0
0000
18C0
FFF8
FFF8
18C0
18C0
38C0
30C0
ENDCHAR
STARTCHAR uni5F0F
ENCODING 24335
SWIDTH 1153 0
DWIDTH 15 0
BBX 13 13 1 0
BITMAP
01B0
0198
0180
FFF0
FFF0
00C0
7EC0
7EC0
18E0
1860
1F78
FE38
F018
ENDCHAR
STARTCHAR uni5F10
ENCODING 24336
SWIDTH 1000 0
DWIDTH 15 0
BBX 13 13 1 0
BITMAP
7DB0
7D98
0180
FFF0
FFF0
00C0
7EC0
7EC0
00E0
0E60
3E78
F838
E018
ENDCHAR
STARTCHAR uni5F13
ENCODING 24339
SWIDTH 1153 0
DWIDTH 15 0
BBX 11 13 2 0
BITMAP
FFC0
FFC0
00C0
7FC0
7F80
C000
FFE0
FFE0
0060
0060
30E0
3FC0
1F80
ENDCHAR
STARTCHAR uni5F15
ENCODING 24341
SWIDTH 1153 0
DWIDTH 15 0
BBX 11 13 2 0
BITMAP
FC60
FC60
0C60
7C60
7860
C060
FC60
FC60
0C60
1C60
1860
F8E0
70C0
ENDCHAR
STARTCHAR uni5F1F
ENCODING 24351
SWIDTH 1153 0
DWIDTH 15 0
BBX 13 13 1 0
BITMAP
1860
0CC0
7FF0
7FF0
0330
3FF0
7FE0
6300
7FF8
7FF8
1B18
FB78
F330
ENDCHAR
STARTCHAR uni5F26
ENCODING 24358
SWIDTH 1153 0
DWIDTH 15 0
BBX 13 13 1 0
BITMAP
F0C0
F7F8
37F8
30C0
F1C0
F380
C730
F3F0
71C0
3380
3730
F7F8
E7D8
ENDCHAR
STARTCHAR uni5F27
ENCODING 24359
SWIDTH 1153 0
DWIDTH 15 0
BBX 13 13 1 0
BITMAP
F078
F1F8
37B0
36B0
F6B0
F6B0
C6B0
F6B0
76B0
3698
36B8
F7F8
E618
ENDCHAR
STARTCHAR uni5F31
ENCODING 24369
SWIDTH 1153 0
DWIDTH 15 0
BBX 13 13 1 0
BITMAP
FDF8
FDF8
0C18
7CF8
F9F0
C180
FDF8
FDF8
0C18
EDD8
CD98
3C78
3870
ENDCHAR
STARTCHAR uni5F35
ENCODING 24373
SWIDTH 1153 0
DWIDTH 15 0
BBX 13 13 1 0
BITMAP
F7F0
F7F0
3600
37F0
F600
F7F0
CE00
EFF8
77F8
36D0
36E0
F778
E738
ENDCHAR
STARTCHAR uni5F37
ENCODING 24375
SWIDTH 1153 0
DWIDTH 15 0
BBX 13 13 1 0
BITMAP
F180
F3B0
3778
37D8
F0C0
F7F8
C6D8
F6D8
77F0
30C0
30F8
F7F8
E798
ENDCHAR
STARTCHAR uni5F3E
ENCODING 24382
SWIDTH 1153 0
DWIDTH 15 0
BBX 13 13 1 0
BITMAP
F6D8
F6D8
3000
37F8
F6D8
E7F8
C6D8
F3F0
F0C0
37F8
37F8
F0C0
E0C0
ENDCHAR
STARTCHAR uni5F41
ENCODING 24385
SWIDTH 1153 0
DWIDTH 15 0
BBX 13 13 1 0
BITMAP
FBF8
FBF8
1830
1BB0
FAB0
F3B0
C000
FBF8
FBF8
1830
1BB0
FAB0
73B0
ENDCHAR
STARTCHAR uni5F53
ENCODING 24403
SWIDTH 1153 0
DWIDTH 15 0
BBX 11 13 2 0
BITMAP
0600
6660
76E0
36C0
0600
FFE0
FFE0
0060
7FE0
7FE0
0060
7FE0
7FC0
ENDCHAR
STARTCHAR uni5F59
ENCODING 24409
SWIDTH 1153 0
DWIDTH 15 0
BBX 12 13 2 0
BITMAP
1800
1FC0
30C0
7FE0
0180
FFF0
C030
3FC0
2640
FFF0
1F80
F6F0
E670
ENDCHAR
STARTCHAR uni5F62
ENCODING 24418
SWIDTH 1153 0
DWIDTH 15 0
BBX 13 13 1 0
BITMAP
0018
7F38
7F70
36E0
36C0
3718
FF38
FEF0
36C0
7618
6638
E6F0
C6C0
ENDCHAR
STARTCHAR uni5F69
ENCODING 24425
SWIDTH 1153 0
DWIDTH 15 0
BBX 13 13 1 0
BITMAP
1E18
7E38
6070
1B60
DB18
C238
1870
FF60
FF18
1818
7E38
FF70
DB60
ENDCHAR
STARTCHAR uni5F6B
ENCODING 24427
SWIDTH 1153 0
DWIDTH 15 0
BBX 13 13 1 0
BITMAP
3F18
7F38
6370
6B60
7F18
6B38
7F70
6360
7F18
7718
7F38
E370
C360
ENDCHAR
STARTCHAR uni5F70
ENCODING 24432
SWIDTH 1153 0
DWIDTH 15 0
BBX 13 13 1 0
BITMAP
1818
7E38
2470
FEE0
3CD8
6638
7E70
66E0
7ED8
1838
FF70
18E0
18C0
ENDCHAR
STARTCHAR uni5F71
ENCODING 24433
SWIDTH 1153 0
DWIDTH 15 0
BBX 13 13 1 0
BITMAP
7E18
6638
7E70
66E0
3CD8
FF38
0070
7EE0
66D8
7E38
1870
DEE0
DAC0
ENDCHAR
STARTCHAR uni5F79
ENCODING 24441
SWIDTH 1153 0
DWIDTH 15 0
BBX 13 13 1 0
BITMAP
31E0
73E0
E368
DB78
3A38
7000
F3F0
F7F8
3018
3330
31E0
37F8
3738
ENDCHAR
STARTCHAR uni5F80
ENCODING 24448
SWIDTH 1153 0
DWIDTH 15 0
BBX 13 13 1 0
BITMAP
3180
71C0
E0C0
DBF0
3BF0
70C0
F0C0
F3F0
33F0
30C0
30C0
37F8
37F8
ENDCHAR
STARTCHAR uni5F84
ENCODING 24452
SWIDTH 1153 0
DWIDTH 15 0
BBX 13 13 1 0
BITMAP
33F0
77F8
E018
DB30
39E0
77F8
F738
F0C0
33F0
33F0
30C0
37F8
37F8
ENDCHAR
STARTCHAR uni5F85
ENCODING 24453
SWIDTH 1153 0
DWIDTH 15 0
BBX 13 13 1 0
BITMAP
30C0
73F0
E3F0
D8C0
3BF8
73F8
F060
F7F8
37F8
3060
3360
3160
30E0
ENDCHAR
STARTCHAR uni5F8B
ENCODING 24459
SWIDTH 1153 0
DWIDTH 15 0
BBX 13 13 1 0
BITMAP
30C0
70C0
E3F0
D8D0
3BF8
70D0
F3F0
F0C0
37F8
30C0
37F8
30C0
30C0
ENDCHAR
STARTCHAR uni5F8C
ENCODING 24460
SWIDTH 1153 0
DWIDTH 15 0
BBX 13 13 1 0
BITMAP
3180
73B0
E770
C7E0
33D8
7FF8
EE18
E1E0
6FF0
6E30
63E0
6FF8
6E38
ENDCHAR
STARTCHAR uni5F90
ENCODING 24464
SWIDTH 1000 0
DWIDTH 15 0
BBX 13 13 1 0
BITMAP
31E0
73F0
E7B8
C618
37F8
73F0
E0C0
E7F8
67F8
60C0
66D8
6ED8
6CD8
ENDCHAR
STARTCHAR uni5F92
ENCODING 24466
SWIDTH 1153 0
DWIDTH 15 0
BBX 13 13 1 0
BITMAP
30C0
70C0
E3F0
DBF0
38C0
77F8
E7F8
E0C0
66F8
66F8
6FC0
6FF8
6CF8
ENDCHAR
STARTCHAR uni5F93
ENCODING 24467
SWIDTH 1153 0
DWIDTH 15 0
BBX 13 13 1 0
BITMAP
3318
73B8
E1B0
D800
3BF8
73F8
F0C0
F0F8
36F8
36C0
37E0
37F8
3638
ENDCHAR
STARTCHAR uni5F97
ENCODING 24471
SWIDTH 1153 0
DWIDTH 15 0
BBX 13 13 1 0
BITMAP
33F0
7630
E7F0
C630
37F0
7000
EFF8
E060
6FF8
6060
6660
6760
60E0
ENDCHAR
STARTCHAR uni5F98
ENCODING 24472
SWIDTH 1153 0
DWIDTH 15 0
BBX 13 13 1 0
BITMAP
3360
7360
EF78
CF78
3360
7F78
EF78
E360
6F78
6F78
6360
6760
6660
ENDCHAR
STARTCHAR uni5FA1
ENCODING 24481
SWIDTH 1153 0
DWIDTH 15 0
BBX 13 13 1 0
BITMAP
6C00
EFB8
CFB8
3668
7768
EF68
EE68
6768
6378
6B78
6F60
6E60
6060
ENDCHAR
STARTCHAR uni5FA9
ENCODING 24489
SWIDTH 1153 0
DWIDTH 15 0
BBX 13 13 1 0
BITMAP
3300
73F8
E7F8
DA10
3BF0
7210
F3F0
F100
33F0
3730
31E0
37F8
3738
ENDCHAR
STARTCHAR uni5FAA
ENCODING 24490
SWIDTH 1000 0
DWIDTH 15 0
BBX 13 13 1 0
BITMAP
3070
73F0
E7E0
C660
37F8
7660
E6F8
EE98
6DF8
6D98
6DF8
6D98
60F0
ENDCHAR
STARTCHAR uni5FAE
ENCODING 24494
SWIDTH 1153 0
DWIDTH 15 0
BBX 13 13 1 0
BITMAP
6230
EAB0
CAB0
2FF8
6FD8
E0D8
EF58
6F70
6530
6570
6D70
6DD8
69D8
ENDCHAR
STARTCHAR uni5FB3
ENCODING 24499
SWIDTH 1153 0
DWIDTH 15 0
BBX 13 13 1 0
BITMAP
30C0
77F8
E7F8
C0C0
37F8
7528
E528
E7F8
6080
66D8
6718
6BE8
6DE0
ENDCHAR
STARTCHAR uni5FB4
ENCODING 24500
SWIDTH 1153 0
DWIDTH 15 0
BBX 13 13 1 0
BITMAP
6230
EAB0
CAB0
2FF8
6058
EF58
EF58
6670
6F30
6E70
6770
6ED8
6CD8
ENDCHAR
STARTCHAR uni5FC3
ENCODING 24515
SWIDTH 1153 0
DWIDTH 15 0
BBX 13 12 1 0
BITMAP
0700
0780
0180
0000
0C30
6C30
6C38
EC18
CC00
0E30
07F0
03E0
ENDCHAR
STARTCHAR uni5FC5
ENCODING 24517
SWIDTH 1153 0
DWIDTH 15 0
BBX 13 13 1 0
BITMAP
0E00
0F00
0300
18C0
18C0
D8D8
D9D8
DD98
EF98
6F00
1E30
FFF0
F3F0
ENDCHAR
STARTCHAR uni5FCC
ENCODING 24524
SWIDTH 1153 0
DWIDTH 15 0
BBX 13 13 1 0
BITMAP
7FE0
7FE0
0060
7FC0
6030
7FF0
3FF0
0000
4B30
DBB8
D858
DFD8
0FC0
ENDCHAR
STARTCHAR uni5FCD
ENCODING 24525
SWIDTH 1153 0
DWIDTH 15 0
BBX 13 13 1 0
BITMAP
7FF0
7FF0
0630
6E30
7C30
3EF0
76E0
6000
0330
DB38
D8D8
DFD8
0FC0
ENDCHAR
STARTCHAR uni5FD7
ENCODING 24535
SWIDTH 1153 0
DWIDTH 15 0
BBX 13 13 1 0
BITMAP
0300
0300
FFF8
FFF8
0300
3FE0
3FE0
0000
5B30
DBB8
D858
DFD8
0FC0
ENDCHAR
STARTCHAR uni5FD8
ENCODING 24536
SWIDTH 1153 0
DWIDTH 15 0
BBX 13 13 1 0
BITMAP
0300
FFF8
FFF8
1800
1800
1FE0
0FE0
0000
5B30
DBB8
D858
DFD8
0FC0
ENDCHAR
STARTCHAR uni5FD9
ENCODING 24537
SWIDTH 1153 0
DWIDTH 15 0
BBX 13 13 1 0
BITMAP
30C0
30C0
30C0
37F8
77F8
FB00
B300
3300
3300
3300
3300
33F0
31F0
ENDCHAR
STARTCHAR uni5FDC
ENCODING 24540
SWIDTH 1153 0
DWIDTH 15 0
BBX 13 13 1 0
BITMAP
0300
3FF8
7FF8
6000
6380
63C0
60D8
E618
C618
D700
DB30
DBF0
19E0
ENDCHAR
STARTCHAR uni5FE0
ENCODING 24544
SWIDTH 1153 0
DWIDTH 15 0
BBX 13 13 1 0
BITMAP
0600
7FE0
7FE0
6660
6660
7FE0
3F80
0600
19B0
5BB8
D858
DFD8
CFC0
ENDCHAR
STARTCHAR uni5FEB
ENCODING 24555
SWIDTH 1153 0
DWIDTH 15 0
BBX 13 13 1 0
BITMAP
30C0
30C0
33F0
3BF0
BCD0
F0D0
F7F8
B7F8
30C0
31E0
33F0
3738
3618
ENDCHAR
STARTCHAR uni5FF5
ENCODING 24565
SWIDTH 1153 0
DWIDTH 15 0
BBX 13 13 1 0
BITMAP
0700
1FC0
38E0
F778
C018
1FC0
00C0
0180
4630
DB38
D8D8
DFD8
0FC0
ENDCHAR
STARTCHAR uni6012
ENCODING 24594
SWIDTH 1153 0
DWIDTH 15 0
BBX 13 13 1 0
BITMAP
30F0
FDF8
EC18
49B0
78E0
3DF8
6D98
6000
0B30
5BB8
D858
DFD8
CFC0
ENDCHAR
STARTCHAR uni6016
ENCODING 24598
SWIDTH 1153 0
DWIDTH 15 0
BBX 13 13 1 0
BITMAP
3180
3180
37F8
B7F8
F300
F6C0
BFF0
3BF8
36D8
36D8
36D8
30C0
30C0
ENDCHAR
STARTCHAR uni601D
ENCODING 24605
SWIDTH 1153 0
DWIDTH 15 0
BBX 13 13 1 0
BITMAP
3FF0
3330
3330
3FF0
3330
3330
1FE0
0000
6BB0
DBB8
D858
DFD8
0FC0
ENDCHAR
STARTCHAR uni6025
ENCODING 24613
SWIDTH 1153 0
DWIDTH 15 0
BBX 13 13 1 0
BITMAP
3F80
7F80
E180
DFE0
0060
3FE0
0060
3FC0
0000
5BB0
D838
DFD8
CFC0
ENDCHAR
STARTCHAR uni6027
ENCODING 24615
SWIDTH 1153 0
DWIDTH 15 0
BBX 13 13 1 0
BITMAP
3060
3360
3B60
BBF8
F7F8
F660
B060
33F0
33F0
30C0
30C0
37F8
37F8
ENDCHAR
STARTCHAR uni6028
ENCODING 24616
SWIDTH 1153 0
DWIDTH 15 0
BBX 13 13 1 0
BITMAP
3DF0
7DF8
ED98
CD98
3D80
39F8
F0F8
E000
0B30
5BB8
D858
DFD8
CFC0
ENDCHAR
STARTCHAR uni602A
ENCODING 24618
SWIDTH 1153 0
DWIDTH 15 0
BBX 13 13 1 0
BITMAP
67F0
67F8
6038
73F0
F3E0
EF78
EE38
60C0
67F0
67F0
60C0
6FF8
6FF8
ENDCHAR
STARTCHAR uni604B
ENCODING 24651
SWIDTH 1153 0
DWIDTH 15 0
BBX 13 13 1 0
BITMAP
0300
FFF8
FFF8
0D80
6DB0
EDB8
CD98
0000
5B30
DBB8
D858
DFD8
0FC0
ENDCHAR
STARTCHAR uni6050
ENCODING 24656
SWIDTH 1153 0
DWIDTH 15 0
BBX 13 13 1 0
BITMAP
01F0
FBF0
FB30
33B0
3370
7B38
FB18
E000
0B30
5BB8
D858
DFD8
CFC0
ENDCHAR
STARTCHAR uni6052
ENCODING 24658
SWIDTH 1153 0
DWIDTH 15 0
BBX 13 13 1 0
BITMAP
37F8
37F8
3000
33F0
BBF0
FB30
F3F0
B330
33F0
33F0
3000
37F8
37F8
ENDCHAR
STARTCHAR uni6063
ENCODING 24675
SWIDTH 1153 0
DWIDTH 15 0
BBX 13 13 1 0
BITMAP
C300
F3F8
77F8
06D8
31E0
F7F8
E738
0000
1BB0
DBB8
D818
DFD8
CFC0
ENDCHAR
STARTCHAR uni6065
ENCODING 24677
SWIDTH 1000 0
DWIDTH 15 0
BBX 13 13 1 0
BITMAP
FC60
FC70
6C30
6DB0
7D80
6D98
6F98
7F98
6F98
6D80
FDB0
ECF0
0CF0
ENDCHAR
STARTCHAR uni6068
ENCODING 24680
SWIDTH 1153 0
DWIDTH 15 0
BBX 13 13 1 0
BITMAP
67F0
67F0
6630
77F0
F630
E7F0
E7E0
6618
6798
67F0
66E0
6778
6738
ENDCHAR
STARTCHAR uni6069
ENCODING 24681
SWIDTH 1153 0
DWIDTH 15 0
BBX 13 13 1 0
BITMAP
3FF0
7FF0
6230
6FB0
6730
68B0
7FE0
3FC0
0B30
5BB8
D858
DFD8
CFC0
ENDCHAR
STARTCHAR uni606D
ENCODING 24685
SWIDTH 1153 0
DWIDTH 15 0
BBX 13 13 1 0
BITMAP
18C0
7FF0
7FF0
18C0
FFF8
FFF8
38E0
F078
CC18
2DA0
6DB0
6DB0
0C00
ENDCHAR
STARTCHAR uni606F
ENCODING 24687
SWIDTH 1153 0
DWIDTH 15 0
BBX 13 13 1 0
BITMAP
0600
1FE0
3FE0
3060
3FE0
3060
3FE0
1FC0
0B30
5BB8
D858
DFD8
CFC0
ENDCHAR
STARTCHAR uni6075
ENCODING 24693
SWIDTH 1153 0
DWIDTH 15 0
BBX 13 13 1 0
BITMAP
0600
FFF0
FFF0
0600
7FE0
6660
7FE0
6660
3FC0
0300
58B8
DFD8
CFC0
ENDCHAR
STARTCHAR uni6094
ENCODING 24724
SWIDTH 1153 0
DWIDTH 15 0
BBX 13 13 1 0
BITMAP
6600
67F8
6FF8
6C00
63F0
F7F8
F6D8
E7F8
6FF8
6DB0
6FF8
67F8
6060
ENDCHAR
STARTCHAR uni609F
ENCODING 24735
SWIDTH 1153 0
DWIDTH 15 0
BBX 13 13 1 0
BITMAP
67F0
67F0
6180
77F0
F7F0
E330
EFF8
6FF8
6000
67F0
6630
67F0
63E0
ENDCHAR
STARTCHAR uni60A3
ENCODING 24739
SWIDTH 1153 0
DWIDTH 15 0
BBX 13 13 1 0
BITMAP
0600
7FE0
6660
7FE0
0600
FFF0
C630
FFF0
0300
1BB8
D858
DFE0
CFE0
ENDCHAR
STARTCHAR uni60A6
ENCODING 24742
SWIDTH 1153 0
DWIDTH 15 0
BBX 13 13 1 0
BITMAP
3318
33B8
31B0
BBF8
FBF8
F318
B318
33F8
30F0
31E0
3360
3778
3638
ENDCHAR
STARTCHAR uni60A9
ENCODING 24745
SWIDTH 1000 0
DWIDTH 15 0
BBX 13 13 1 0
BITMAP
6D98
6DD8
6ED8
76F8
F630
E000
E360
6DD8
6DD8
6F78
6C18
6FF8
6FF8
ENDCHAR
STARTCHAR uni60AA
ENCODING 24746
SWIDTH 1153 0
DWIDTH 15 0
BBX 13 13 1 0
BITMAP
FFF8
0D80
7FF0
6DB0
7FF0
0D80
FFF8
0000
4B30
DBB8
D858
DFD8
0FC0
ENDCHAR
STARTCHAR uni60B2
ENCODING 24754
SWIDTH 1153 0
DWIDTH 15 0
BBX 13 13 1 0
BITMAP
0D80
FDF8
0D80
FDF8
0D80
FDF8
39C0
30C0
0B30
5BB8
D858
DFD8
CFC0
ENDCHAR
STARTCHAR uni60C5
ENCODING 24773
SWIDTH 1153 0
DWIDTH 15 0
BBX 13 13 1 0
BITMAP
30C0
37F8
30C0
3BF0
78C0
F7F8
F7F8
3330
33F0
3330
37F0
3630
3630
ENDCHAR
STARTCHAR uni60D1
ENCODING 24785
SWIDTH 1153 0
DWIDTH 15 0
BBX 13 13 1 0
BITMAP
0330
FFD8
FFD8
0300
FDB0
CDF0
78E8
01F8
FB98
0300
D8B0
DFD8
CF98
ENDCHAR
STARTCHAR uni60DA
ENCODING 24794
SWIDTH 1153 0
DWIDTH 15 0
BBX 13 13 1 0
BITMAP
6600
67F0
6FF8
6D58
F558
F558
E018
66C0
66D8
6718
63B0
6DF0
6CF0
ENDCHAR
STARTCHAR uni60DC
ENCODING 24796
SWIDTH 1000 0
DWIDTH 15 0
BBX 13 13 1 0
BITMAP
6360
6360
67F0
F7F0
F360
EFF8
6FF8
6000
67F0
6630
67F0
6630
67F0
ENDCHAR
STARTCHAR uni60E7
ENCODING 24807
SWIDTH 1153 0
DWIDTH 15 0
BBX 13 13 1 0
BITMAP
67F0
67F0
6630
77F0
F630
E7F0
E630
67F0
6E38
6FF8
6000
6F78
6E38
ENDCHAR
STARTCHAR uni60E8
ENCODING 24808
SWIDTH 1153 0
DWIDTH 15 0
BBX 13 13 1 0
BITMAP
6180
63A0
6730
77F0
F0C0
EFF8
EFF8
6630
6DD8
6D98
6060
63E0
6380
ENDCHAR
STARTCHAR uni60F3
ENCODING 24819
SWIDTH 1153 0
DWIDTH 15 0
BBX 13 13 1 0
BITMAP
30F0
FD98
FDF8
3198
79F8
FD98
B4F0
3000
0B30
5BB8
D858
DFD8
CFC0
ENDCHAR
STARTCHAR uni6101
ENCODING 24833
SWIDTH 1000 0
DWIDTH 15 0
BBX 13 13 1 0
BITMAP
38C0
7AD8
33D8
FCD0
FDE0
7BF8
DB38
D800
0330
5BB8
D858
DFD8
CFC0
ENDCHAR
STARTCHAR uni610F
ENCODING 24847
SWIDTH 1153 0
DWIDTH 15 0
BBX 13 13 1 0
BITMAP
0300
3FE0
3FE0
18C0
FFF8
F8F8
1FC0
18C0
5FB0
C738
D8D8
DFE0
0FE0
ENDCHAR
STARTCHAR uni611A
ENCODING 24858
SWIDTH 1153 0
DWIDTH 15 0
BBX 13 13 1 0
BITMAP
3FC0
6660
7FE0
6660
7FE0
0600
7FF0
C6B0
DFB0
0300
D8D8
DFD8
CFD8
ENDCHAR
STARTCHAR uni611B
ENCODING 24859
SWIDTH 1153 0
DWIDTH 15 0
BBX 13 13 1 0
BITMAP
03F0
7FF0
7E60
27F0
7FF8
FB18
D8C0
0FD8
7F98
78C0
0FC0
FFF8
F8F8
ENDCHAR
STARTCHAR uni611F
ENCODING 24863
SWIDTH 1153 0
DWIDTH 15 0
BBX 13 13 1 0
BITMAP
0198
3FD8
7FC0
60F8
7E78
60E0
DEF8
D218
1D80
C1B0
D838
DFD8
0FC0
ENDCHAR
STARTCHAR uni6148
ENCODING 24904
SWIDTH 1153 0
DWIDTH 15 0
BBX 13 13 1 0
BITMAP
18C0
FFF8
FFF8
60C0
D9B0
F9F0
64C8
FCF8
FB78
0300
D8D8
DFD8
CFD8
ENDCHAR
STARTCHAR uni614B
ENCODING 24907
SWIDTH 1153 0
DWIDTH 15 0
BBX 13 13 1 0
BITMAP
31B0
6DE0
FD88
46F8
7D10
45E0
7D88
4CF8
0200
5BB0
D858
DFD8
0FC0
ENDCHAR
STARTCHAR uni614C
ENCODING 24908
SWIDTH 1153 0
DWIDTH 15 0
BBX 13 13 1 0
BITMAP
6660
6FF8
6FF8
6180
EFF8
EFF8
E600
67F0
63C0
6C30
6DB0
6DB8
6D98
ENDCHAR
STARTCHAR uni614E
ENCODING 24910
SWIDTH 1153 0
DWIDTH 15 0
BBX 13 13 1 0
BITMAP
6180
6FF8
6180
77F0
F630
E7F0
E630
67F0
6630
63E0
6FF8
6630
6C18
ENDCHAR
STARTCHAR uni6162
ENCODING 24930
SWIDTH 1000 0
DWIDTH 15 0
BBX 13 13 1 0
BITMAP
67F0
6630
67F0
7630
F7F8
ED58
ED58
6FF8
67F0
6630
63E0
6FF8
6E38
ENDCHAR
STARTCHAR uni6163
ENCODING 24931
SWIDTH 1153 0
DWIDTH 15 0
BBX 13 13 1 0
BITMAP
67F0
6490
6FF8
6490
77F0
F000
E7F0
E630
67F0
6630
63E0
6E38
6C18
ENDCHAR
STARTCHAR uni6168
ENCODING 24936
SWIDTH 1153 0
DWIDTH 15 0
BBX 13 13 1 0
BITMAP
60F8
6EF8
6F50
7950
FF50
E970
EFF8
6E30
6860
6E68
6EE8
6DB8
61B8
ENDCHAR
STARTCHAR uni616E
ENCODING 24942
SWIDTH 1153 0
DWIDTH 15 0
BBX 13 13 1 0
BITMAP
0300
03F0
03F0
3F00
7FF8
67F8
6DB0
6FF0
EDB0
CFE0
C618
DFF8
DBE0
ENDCHAR
STARTCHAR uni6170
ENCODING 24944
SWIDTH 1153 0
DWIDTH 15 0
BBX 13 13 1 0
BITMAP
7E30
C630
FDF8
C1F8
FC30
D9B0
FDB0
D800
0330
5B38
D8D8
DFD8
CFC0
ENDCHAR
STARTCHAR uni6176
ENCODING 24950
SWIDTH 1153 0
DWIDTH 15 0
BBX 13 13 1 0
BITMAP
0300
7FF8
CCC0
FFF8
CCC8
FFF8
C000
FFF8
D558
CFE0
FC60
CFF8
FC78
ENDCHAR
STARTCHAR uni61A4
ENCODING 24996
SWIDTH 1153 0
DWIDTH 15 0
BBX 13 13 1 0
BITMAP
60C0
67F8
67F8
72D0
F7F8
F210
E7F8
6618
67F8
6618
63F0
6738
6618
ENDCHAR
STARTCHAR uni61A7
ENCODING 24999
SWIDTH 1000 0
DWIDTH 15 0
BBX 13 13 1 0
BITMAP
6180
6FF0
6FF0
6660
FFF8
FFF8
EDB0
6FF0
6DB0
67E0
6180
6FF8
6FF8
ENDCHAR
STARTCHAR uni61A9
ENCODING 25001
SWIDTH 1153 0
DWIDTH 15 0
BBX 13 13 1 0
BITMAP
7860
79F8
3198
FDF8
FD98
31F8
FD98
CDF8
7800
03B0
D838
DFD8
CFC0
ENDCHAR
STARTCHAR uni61AC
ENCODING 25004
SWIDTH 1153 0
DWIDTH 15 0
BBX 13 13 1 0
BITMAP
33F0
3330
33F0
BB30
F9E0
F7F8
B000
33F0
3330
33F0
30C0
36D8
36D8
ENDCHAR
STARTCHAR uni61B2
ENCODING 25010
SWIDTH 1153 0
DWIDTH 15 0
BBX 13 13 1 0
BITMAP
0300
7FF0
C318
DFD8
0300
FFF8
0000
3FE0
3560
1FC0
4010
DFD8
CFD8
ENDCHAR
STARTCHAR uni61B6
ENCODING 25014
SWIDTH 1153 0
DWIDTH 15 0
BBX 13 13 1 0
BITMAP
61C0
67F0
6220
6FF8
73E0
F630
E7F0
E630
63E0
6CD8
6D18
6BE0
61E0
ENDCHAR
STARTCHAR uni61BE
ENCODING 25022
SWIDTH 1153 0
DWIDTH 15 0
BBX 13 13 1 0
BITMAP
60D8
67F8
6FF0
6CC0
EF68
ED38
ED70
6F18
6CC0
60C0
6518
6DF8
6CE0
ENDCHAR
STARTCHAR uni61C7
ENCODING 25031
SWIDTH 1153 0
DWIDTH 15 0
BBX 13 13 1 0
BITMAP
FDF8
5598
FDF8
1998
FDF0
1DA8
F9D8
0000
5BB0
DBB8
D818
DFD8
0FC0
ENDCHAR
STARTCHAR uni61D0
ENCODING 25040
SWIDTH 1153 0
DWIDTH 15 0
BBX 13 13 1 0
BITMAP
60C0
67F8
60C0
77F8
F528
E7F8
E0C0
6FF8
6FF8
6368
6F70
6FB8
6398
ENDCHAR
STARTCHAR uni61F8
ENCODING 25080
SWIDTH 1153 0
DWIDTH 15 0
BBX 13 13 1 0
BITMAP
3DF8
2460
BCD8
A5F0
BC60
A4D8
FDF8
3060
0300
DBB0
D838
DFD8
0FC0
ENDCHAR
STARTCHAR uni6210
ENCODING 25104
SWIDTH 1153 0
DWIDTH 15 0
BBX 13 13 1 0
BITMAP
01B0
0198
01E0
3FF0
7F80
60C0
7CD8
7ED8
6670
6660
C6F0
DDB8
C198
ENDCHAR
STARTCHAR uni6211
ENCODING 25105
SWIDTH 1153 0
DWIDTH 15 0
BBX 13 13 1 0
BITMAP
0DB0
7DB8
7998
1980
FFF8
FFF8
1980
1D98
FDF8
F8F0
19E0
7BF8
7B38
ENDCHAR
STARTCHAR uni6212
ENCODING 25106
SWIDTH 1153 0
DWIDTH 15 0
BBX 13 13 1 0
BITMAP
0338
0338
0300
FFF8
FFF8
0180
6DD8
FEF8
FEF0
6C60
6CF8
EDF8
CD98
ENDCHAR
STARTCHAR uni6226
ENCODING 25126
SWIDTH 1153 0
DWIDTH 15 0
BBX 13 13 1 0
BITMAP
DB68
DB68
7E68
FF60
DBF8
FFF8
DB60
FF68
7E78
1870
FEE0
FDF8
19B8
ENDCHAR
STARTCHAR uni622F
ENCODING 25135
SWIDTH 1153 0
DWIDTH 15 0
BBX 13 13 1 0
BITMAP
1868
1E68
1860
7EF8
D0F8
FE60
D060
DE78
C038
D530
D570
FEF8
FED8
ENDCHAR
STARTCHAR uni6230
ENCODING 25136
SWIDTH 1153 0
DWIDTH 15 0
BBX 13 13 1 0
BITMAP
EF68
9968
F760
00F8
FEF8
DB60
FF68
DB78
FF78
1830
FF70
FEF8
18D8
ENDCHAR
STARTCHAR uni6234
ENCODING 25140
SWIDTH 1153 0
DWIDTH 15 0
BBX 13 13 1 0
BITMAP
18D8
FED8
FED8
18C0
FFF8
7FF8
DB60
FF68
DB78
FEF8
66F0
FF78
E338
ENDCHAR
STARTCHAR uni6238
ENCODING 25144
SWIDTH 1153 0
DWIDTH 15 0
BBX 13 13 1 0
BITMAP
7FF8
7FF8
0000
3FF0
3FF0
3030
3030
3FF0
3FE0
7000
6000
E000
C000
ENDCHAR
STARTCHAR uni623B
ENCODING 25147
SWIDTH 1153 0
DWIDTH 15 0
BBX 13 13 1 0
BITMAP
3FF0
3FF0
0000
3FF0
3030
3FF0
3180
6FF0
6FF0
6180
C7E0
DE78
1818
ENDCHAR
STARTCHAR uni6240
ENCODING 25152
SWIDTH 1153 0
DWIDTH 15 0
BBX 13 13 1 0
BITMAP
FC18
FCF8
01E0
7D80
7DF8
65F8
65B0
7DB0
7DB0
61B0
E3B0
C330
C030
ENDCHAR
STARTCHAR uni6247
ENCODING 25159
SWIDTH 1000 0
DWIDTH 15 0
BBX 13 13 1 0
BITMAP
7FF8
7FF8
0000
7FF8
6018
7FF8
6000
6F78
6318
EB58
C738
DB58
0738
ENDCHAR
STARTCHAR uni6249
ENCODING 25161
SWIDTH 1153 0
DWIDTH 15 0
BBX 13 13 1 0
BITMAP
7FF8
7FF8
0000
7FF8
6018
7FF0
6360
6F78
6360
EF78
C360
DF78
C660
ENDCHAR
STARTCHAR uni624B
ENCODING 25163
SWIDTH 1153 0
DWIDTH 15 0
BBX 13 13 1 0
BITMAP
0780
3F80
3E00
07F0
7FF0
7F00
03F8
FFF8
FF00
0300
1B00
1F00
0E00
ENDCHAR
STARTCHAR uni624D
ENCODING 25165
SWIDTH 1153 0
DWIDTH 15 0
BBX 13 13 1 0
BITMAP
0300
0300
03F8
FFF8
FF80
01E0
01E0
07C0
1F80
FD80
F180
0780
0780
ENDCHAR
STARTCHAR uni6253
ENCODING 25171
SWIDTH 1153 0
DWIDTH 15 0
BBX 13 13 1 0
BITMAP
3000
3000
33F8
FBF8
F860
3060
3860
F860
F060
3060
3060
70E0
70E0
ENDCHAR
STARTCHAR uni6271
ENCODING 25201
SWIDTH 1153 0
DWIDTH 15 0
BBX 13 13 1 0
BITMAP
6000
67F0
67F0
F130
F320
6378
7318
F798
E6F0
6CE0
6DF0
E3B8
E318
ENDCHAR
STARTCHAR uni6279
ENCODING 25209
SWIDTH 1153 0
DWIDTH 15 0
BBX 13 13 1 0
BITMAP
6660
6660
F660
F6E8
67F8
6770
7660
F660
E660
6660
6678
E778
E738
ENDCHAR
STARTCHAR uni627F
ENCODING 25215
SWIDTH 1153 0
DWIDTH 15 0
BBX 13 13 1 0
BITMAP
1FC0
1FC0
0180
0718
F338
FFF0
3360
3FE0
6330
EFB8
C318
0F00
0600
ENDCHAR
STARTCHAR uni6280
ENCODING 25216
SWIDTH 1153 0
DWIDTH 15 0
BBX 13 13 1 0
BITMAP
60C0
60C0
F7F8
F7F8
60C0
63F0
77F8
F618
E738
63F0
61E0
EFF8
EE38
ENDCHAR
STARTCHAR uni6284
ENCODING 25220
SWIDTH 1000 0
DWIDTH 15 0
BBX 13 13 1 0
BITMAP
60C0
60C0
F2D0
F6D8
66D8
66D8
76D8
F1C0
E198
6038
60F0
E7E0
E780
ENDCHAR
STARTCHAR uni628A
ENCODING 25226
SWIDTH 1153 0
DWIDTH 15 0
BBX 13 13 1 0
BITMAP
6000
67F8
F7F8
F6D8
66D8
66D8
77F8
F7F0
E600
6600
6618
E7F8
E3F8
ENDCHAR
STARTCHAR uni6295
ENCODING 25237
SWIDTH 1153 0
DWIDTH 15 0
BBX 13 13 1 0
BITMAP
63E0
63E0
7368
F778
E638
6000
77F0
F7F0
E230
6360
63E0
EF78
EE38
ENDCHAR
STARTCHAR uni6297
ENCODING 25239
SWIDTH 1153 0
DWIDTH 15 0
BBX 13 13 1 0
BITMAP
60C0
60C0
F7F8
F7F8
6000
63E0
73F0
F330
E330
6330
6330
EF38
EE38
ENDCHAR
STARTCHAR uni6298
ENCODING 25240
SWIDTH 1153 0
DWIDTH 15 0
BBX 13 13 1 0
BITMAP
6070
61F0
F7C0
F700
6600
67F8
77F8
F660
E660
6E60
6C60
EC60
E060
ENDCHAR
STARTCHAR uni629C
ENCODING 25244
SWIDTH 1153 0
DWIDTH 15 0
BBX 13 13 1 0
BITMAP
6180
6180
77F8
F7F8
E180
63F0
73F8
F318
E7B0
66E0
6CF0
EDF8
E198
ENDCHAR
STARTCHAR uni629E
ENCODING 25246
SWIDTH 1153 0
DWIDTH 15 0
BBX 13 13 1 0
BITMAP
6000
63F0
77F8
F618
E618
67F8
77F0
F660
E660
6670
6E30
EC38
EC18
ENDCHAR
STARTCHAR uni62B1
ENCODING 25265
SWIDTH 1153 0
DWIDTH 15 0
BBX 13 13 1 0
BITMAP
6300
6300
67F8
EFF8
EC18
63D8
73D8
F0D8
E7B8
6630
6600
E7F8
E3F8
ENDCHAR
STARTCHAR uni62B9
ENCODING 25273
SWIDTH 1000 0
DWIDTH 15 0
BBX 13 13 1 0
BITMAP
60C0
60C0
F7F8
F7F8
60C0
60C0
77F8
F7F8
E1E0
67F0
6EF8
ECD8
E0C0
ENDCHAR
STARTCHAR uni62BC
ENCODING 25276
SWIDTH 1153 0
DWIDTH 15 0
BBX 13 13 1 0
BITMAP
63F0
67F8
76D8
F6D8
E7F8
66D8
76D8
F7F8
E3F0
60C0
60C0
E0E0
E060
ENDCHAR
STARTCHAR uni62BD
ENCODING 25277
SWIDTH 1153 0
DWIDTH 15 0
BBX 13 13 1 0
BITMAP
6060
60E0
70C0
F0C0
E3F0
67F8
76D8
F6D8
E7F8
66D8
66D8
E7F8
E3F0
ENDCHAR
STARTCHAR uni62C5
ENCODING 25285
SWIDTH 1153 0
DWIDTH 15 0
BBX 13 13 1 0
BITMAP
63F0
67F0
F630
F630
67F0
67F0
7630
F630
E7F0
67E0
6000
EFF8
EFF8
ENDCHAR
STARTCHAR uni62D0
ENCODING 25296
SWIDTH 1153 0
DWIDTH 15 0
BBX 13 13 1 0
BITMAP
67F8
67F8
F618
F618
67F8
63F0
7000
F7F8
E7F8
6198
6398
EF78
EE70
ENDCHAR
STARTCHAR uni62D2
ENCODING 25298
SWIDTH 1153 0
DWIDTH 15 0
BBX 13 13 1 0
BITMAP
63F8
67F8
F600
F600
67F8
67F8
7618
F618
E7F8
67F0
6600
E7F8
E7F8
ENDCHAR
STARTCHAR uni62D8
ENCODING 25304
SWIDTH 1153 0
DWIDTH 15 0
BBX 13 13 1 0
BITMAP
6300
6300
F7F0
F7F8
6618
61D8
77D8
F6D8
E6D8
67D8
6398
E078
E070
ENDCHAR
STARTCHAR uni62DB
ENCODING 25307
SWIDTH 1153 0
DWIDTH 15 0
BBX 13 13 1 0
BITMAP
67F8
67F8
F198
F398
6738
6630
7000
F7F8
E7F8
6618
6618
E7F8
E3F0
ENDCHAR
STARTCHAR uni62DD
ENCODING 25309
SWIDTH 1153 0
DWIDTH 15 0
BBX 13 13 1 0
BITMAP
67F8
67F8
F0C0
F3F0
63F0
60C0
73F0
F3F0
E0C0
67F8
67F8
E0C0
E0C0
ENDCHAR
STARTCHAR uni62E0
ENCODING 25312
SWIDTH 1153 0
DWIDTH 15 0
BBX 13 13 1 0
BITMAP
6770
6770
ED70
ED70
6D70
6B70
6378
EED8
EED8
66D8
6700
EFF8
EDF8
ENDCHAR
STARTCHAR uni62E1
ENCODING 25313
SWIDTH 1153 0
DWIDTH 15 0
BBX 13 13 1 0
BITMAP
60C0
60C0
67F8
F7F8
F600
6660
6660
EEE0
ECC0
6DD8
6D98
EDF8
EDD8
ENDCHAR
STARTCHAR uni62EC
ENCODING 25324
SWIDTH 1153 0
DWIDTH 15 0
BBX 13 13 1 0
BITMAP
60F0
63F0
F3C0
F0C0
67F8
67F8
70C0
F3F0
E7F8
6618
6618
E7F8
E3F0
ENDCHAR
STARTCHAR uni62ED
ENCODING 25325
SWIDTH 1000 0
DWIDTH 15 0
BBX 13 13 1 0
BITMAP
60D8
60D8
F0C0
F7F8
67F8
6060
7760
F760
E370
6330
6FB0
EFB8
E018
ENDCHAR
STARTCHAR uni62F3
ENCODING 25331
SWIDTH 1153 0
DWIDTH 15 0
BBX 13 13 1 0
BITMAP
3330
1B60
7FF0
18C0
FFF8
3060
EFB8
C718
3FE0
0380
7FF0
0380
0F00
ENDCHAR
STARTCHAR uni62F6
ENCODING 25334
SWIDTH 1153 0
DWIDTH 15 0
BBX 13 13 1 0
BITMAP
66D8
66D8
EDB0
EDB0
66D8
66D8
7000
F1F8
E7F8
6798
60F8
E7F0
E7C0
ENDCHAR
STARTCHAR uni62F7
ENCODING 25335
SWIDTH 1153 0
DWIDTH 15 0
BBX 13 13 1 0
BITMAP
6180
67D8
F7D8
F1B0
6FF8
6FF8
6380
E7F0
EFC0
6DF0
6030
E1F0
E1E0
ENDCHAR
STARTCHAR uni62FE
ENCODING 25342
SWIDTH 1153 0
DWIDTH 15 0
BBX 13 13 1 0
BITMAP
61C0
63E0
F770
FE38
6C18
63E0
73E0
F000
E7F0
6630
6630
E7F0
E3E0
ENDCHAR
STARTCHAR uni6301
ENCODING 25345
SWIDTH 1153 0
DWIDTH 15 0
BBX 13 13 1 0
BITMAP
30C0
30C0
33F0
FBF0
F8C0
37F8
37F8
F860
F3F8
33F8
3060
7360
70E0
ENDCHAR
STARTCHAR uni6307
ENCODING 25351
SWIDTH 1153 0
DWIDTH 15 0
BBX 13 13 1 0
BITMAP
6670
67F0
F780
F618
67F8
63F0
F000
E7F8
6618
67F8
6618
E7F0
E3F0
ENDCHAR
STARTCHAR uni6311
ENCODING 25361
SWIDTH 1153 0
DWIDTH 15 0
BBX 13 13 1 0
BITMAP
6360
6360
EB68
EF78
6F78
6770
6360
EF78
EF78
6368
6660
EE78
EC38
ENDCHAR
STARTCHAR uni6319
ENCODING 25369
SWIDTH 1153 0
DWIDTH 15 0
BBX 13 13 1 0
BITMAP
6630
7770
3360
FFF8
FFF8
3060
EFB8
C718
3FE0
0380
7FF0
0380
1F00
ENDCHAR
STARTCHAR uni631F
ENCODING 25375
SWIDTH 1153 0
DWIDTH 15 0
BBX 13 13 1 0
BITMAP
60C0
67F8
F7F8
F0C0
66D8
60C0
77F8
F7F8
E0C0
61E0
63F0
E738
E618
ENDCHAR
STARTCHAR uni6328
ENCODING 25384
SWIDTH 1153 0
DWIDTH 15 0
BBX 13 13 1 0
BITMAP
6180
6330
67F8
F7D8
F300
67F0
77F0
F0C0
EFF8
6FF8
63E0
EF78
EE38
ENDCHAR
STARTCHAR uni632B
ENCODING 25387
SWIDTH 1153 0
DWIDTH 15 0
BBX 13 13 1 0
BITMAP
60C0
66D8
F6D8
F6F0
6FF8
6DE8
70C0
F7F8
E7F8
60C0
60C0
E7F8
E7F8
ENDCHAR
STARTCHAR uni632F
ENCODING 25391
SWIDTH 1153 0
DWIDTH 15 0
BBX 13 13 1 0
BITMAP
67F8
67F8
6600
F6F0
F6F0
6600
67F8
F7F8
EDB0
6DB8
6DB0
ED98
EDD8
ENDCHAR
STARTCHAR uni6349
ENCODING 25417
SWIDTH 1153 0
DWIDTH 15 0
BBX 13 13 1 0
BITMAP
63F0
67F8
6618
F618
F3F8
63F0
60C0
F0F0
E6F0
66C0
67C0
EDF8
EC78
ENDCHAR
STARTCHAR uni6355
ENCODING 25429
SWIDTH 1153 0
DWIDTH 15 0
BBX 13 13 1 0
BITMAP
60D8
67F8
67F0
F0C0
F3F0
66D8
66D8
F7F8
E6D8
66D8
67F8
E6D8
E6D8
ENDCHAR
STARTCHAR uni6357
ENCODING 25431
SWIDTH 1153 0
DWIDTH 15 0
BBX 13 13 1 0
BITMAP
60C0
60F0
F6F0
F6C0
6FF8
6FF8
70C0
F6D8
EED8
6C38
6070
E3E0
E3C0
ENDCHAR
STARTCHAR uni6368
ENCODING 25448
SWIDTH 1153 0
DWIDTH 15 0
BBX 13 13 1 0
BITMAP
63C0
67E0
6E70
FC38
F998
67E0
7180
EFF0
E000
6FF0
6C30
EC70
E7E0
ENDCHAR
STARTCHAR uni6383
ENCODING 25475
SWIDTH 1153 0
DWIDTH 15 0
BBX 13 13 1 0
BITMAP
67F0
6030
F7F0
F030
67E0
6000
FFF8
E988
67F0
6590
65B0
E180
E180
ENDCHAR
STARTCHAR uni6388
ENCODING 25480
SWIDTH 1153 0
DWIDTH 15 0
BBX 13 13 1 0
BITMAP
60E0
63E0
F530
F2A0
67F0
6FF8
6C18
F3E0
E220
6360
61C0
EF78
EE38
ENDCHAR
STARTCHAR uni638C
ENCODING 25484
SWIDTH 1153 0
DWIDTH 15 0
BBX 13 13 1 0
BITMAP
3330
1B60
FFF8
F078
D058
0FC0
3FE0
0600
7FF0
0300
FFF8
0300
0F00
ENDCHAR
STARTCHAR uni6392
ENCODING 25490
SWIDTH 1153 0
DWIDTH 15 0
BBX 13 13 1 0
BITMAP
6360
6360
6F78
EF78
E360
6F78
6F78
E360
EF78
6F78
6360
E760
E660
ENDCHAR
STARTCHAR uni6398
ENCODING 25496
SWIDTH 1153 0
DWIDTH 15 0
BBX 13 13 1 0
BITMAP
67F8
67F8
6618
F7F8
F7F8
6C60
6D68
EDF8
EDF8
6C60
6D68
EDF8
EDF8
ENDCHAR
STARTCHAR uni639B
ENCODING 25499
SWIDTH 1153 0
DWIDTH 15 0
BBX 13 13 1 0
BITMAP
6660
6F60
EF60
F660
6F60
6F70
7678
F778
EF68
6E60
6760
EF60
EC60
ENDCHAR
STARTCHAR uni63A1
ENCODING 25505
SWIDTH 1153 0
DWIDTH 15 0
BBX 13 13 1 0
BITMAP
63F0
63F0
F000
F6D8
66D8
6250
70C0
F7F8
E7F8
60C0
63F0
E6D8
E6D8
ENDCHAR
STARTCHAR uni63A2
ENCODING 25506
SWIDTH 1153 0
DWIDTH 15 0
BBX 13 13 1 0
BITMAP
63F8
67F8
F4A8
F1A0
6338
66D8
F0C0
E7F8
67F8
61E0
63F0
E6D8
E6D8
ENDCHAR
STARTCHAR uni63A5
ENCODING 25509
SWIDTH 1153 0
DWIDTH 15 0
BBX 13 13 1 0
BITMAP
60C0
67F8
67F8
F330
FFF8
6FF8
60C0
EFF8
EFF8
6630
67F0
EFF8
EE38
ENDCHAR
STARTCHAR uni63A7
ENCODING 25511
SWIDTH 1153 0
DWIDTH 15 0
BBX 13 13 1 0
BITMAP
60C0
67F8
F7F8
F618
6160
6778
7738
F000
E3F0
63F0
60C0
E7F8
E7F8
ENDCHAR
STARTCHAR uni63A8
ENCODING 25512
SWIDTH 1153 0
DWIDTH 15 0
BBX 13 13 1 0
BITMAP
6360
6360
F7F8
F7F8
6E40
6FF8
77F8
F640
E7F8
67F8
6640
E7F8
E7F8
ENDCHAR
ENDFONT
